P2
128 82
255
254 247 247 232 222 237 240 232 241 243 247 250 247 244 244 246 244 243 241 240 243 245 240 233 231 232 232 231 229 227 226 226 222 223 225 192 199 198 181 184 183 184 188 188 179 171 181 198 212 204 216 219 220 229 225 229 228 221 218 219 219 220 226 236 242 250 251 254 225 204 228 227 225 223 220 218 219 224 232 238 242 244 248 250 251 255 254 252 253 252 255 255 254 254 254 249 252 252 248 212 165 160 181 201 201 204 187 157 123 77 49 68 78 77 147 201 194 164 154 162 136 157 161 145 129 123 125 129 
232 232 238 224 212 223 227 225 240 241 244 247 248 246 244 244 241 240 238 237 239 241 239 234 233 232 230 230 230 227 221 216 218 227 229 211 198 195 192 181 181 180 183 187 188 188 194 203 202 192 200 203 210 225 225 228 227 223 221 222 222 222 228 236 238 245 244 246 218 202 228 230 223 223 222 222 224 229 237 242 241 243 245 247 249 250 250 250 255 255 255 252 253 254 254 252 237 214 201 199 201 202 189 175 143 128 62 15 50 106 140 173 195 162 92 138 193 145 113 139 156 122 83 82 121 152 144 124 
210 222 240 231 218 224 230 235 238 239 242 245 248 247 244 242 240 240 238 235 236 237 237 235 234 231 229 231 233 230 221 214 232 230 231 243 212 181 186 179 186 188 189 186 183 184 189 195 192 184 187 188 199 221 229 230 225 222 221 223 224 225 229 236 242 247 245 244 220 206 226 229 219 219 219 221 224 230 235 239 243 241 241 244 245 243 244 247 252 253 251 255 254 230 203 196 194 201 196 176 153 127 90 57 75 129 159 164 181 196 189 179 145 194 174 60 143 204 181 191 187 152 113 117 158 187 182 166 
191 210 240 249 249 248 232 221 231 236 242 246 248 248 245 241 241 241 239 237 235 235 235 235 234 233 233 233 234 232 229 227 248 251 250 245 217 184 191 185 177 183 188 188 188 189 187 184 187 182 182 182 192 215 230 230 223 220 219 222 225 228 233 238 244 247 246 247 232 221 230 229 222 222 222 224 228 233 239 243 245 239 238 241 240 236 238 244 243 249 251 254 240 200 182 201 186 146 108 102 96 94 131 176 198 200 199 188 153 116 80 39 6 70 175 192 102 120 195 183 188 186 179 178 183 183 182 185 
196 205 221 229 237 238 218 205 218 228 240 245 245 245 244 241 240 239 239 238 236 234 235 236 235 238 239 237 233 233 238 243 250 241 246 244 240 194 184 194 194 193 187 183 185 191 190 185 182 184 182 180 184 203 224 227 223 221 220 222 226 231 236 241 242 242 241 245 242 238 239 234 223 222 222 224 229 234 240 243 243 237 234 235 233 228 230 236 240 243 242 246 233 180 128 114 70 64 86 155 201 205 201 191 159 142 81 20 1 6 66 109 143 118 90 161 195 153 187 190 187 188 186 187 188 180 174 176 
202 215 225 215 207 205 200 210 212 226 239 244 244 245 245 244 239 238 237 237 236 235 236 239 241 244 245 241 235 235 242 250 249 247 237 199 156 98 100 142 171 184 194 194 189 188 189 189 183 187 184 183 183 193 219 224 224 222 222 224 229 235 240 242 246 243 240 241 245 244 238 233 224 224 224 227 231 236 240 243 235 231 227 225 220 215 218 223 232 233 230 232 231 194 130 86 145 176 195 199 172 143 113 59 47 107 106 108 144 168 183 191 196 200 114 3 160 205 186 195 191 192 188 188 192 188 184 185 
199 224 244 238 227 215 205 214 225 236 246 248 248 250 250 247 246 241 237 236 236 235 237 241 248 248 248 246 244 244 246 248 247 210 122 80 66 86 94 83 96 123 159 185 196 195 192 189 186 190 185 187 183 190 217 225 222 223 223 226 230 235 236 236 243 242 240 239 242 239 227 222 224 225 226 230 233 236 235 235 222 221 217 211 204 203 204 206 216 218 220 218 213 206 202 200 199 161 129 118 72 51 98 122 148 188 183 188 200 188 165 134 83 147 196 153 90 129 193 191 183 191 192 190 187 182 180 184 
226 230 234 235 249 251 232 229 244 251 255 255 254 254 255 250 254 247 240 237 235 235 238 242 252 249 248 250 253 253 249 244 253 167 59 94 88 91 97 93 85 84 95 124 161 187 195 193 187 188 181 186 183 188 216 225 220 221 223 227 230 233 233 231 228 231 236 236 239 233 216 212 208 210 212 215 215 215 211 208 213 213 209 200 193 193 193 194 208 197 204 218 204 169 141 129 75 16 24 125 172 173 192 183 201 172 154 164 137 116 124 99 97 115 130 190 160 145 186 192 191 193 188 185 188 187 180 176 
232 238 245 249 249 248 248 248 253 254 254 252 253 255 255 255 254 252 247 241 237 237 242 247 251 251 252 253 254 252 249 247 253 180 84 96 87 80 95 103 96 99 99 91 98 119 149 191 206 203 194 184 180 185 204 225 221 222 224 226 228 226 223 220 221 224 227 232 235 233 225 218 204 194 192 195 194 190 192 190 212 207 191 186 193 188 182 192 189 202 199 202 209 184 115 56 106 147 178 196 204 188 165 157 138 120 138 125 108 113 120 109 108 135 117 115 182 203 200 185 191 189 189 188 188 187 183 181 
233 238 244 248 249 249 250 250 248 252 254 255 255 252 252 252 254 252 247 244 243 245 248 251 250 250 252 253 254 253 251 249 251 184 87 94 87 85 100 102 90 98 110 104 97 96 96 104 168 203 225 213 188 176 192 218 231 218 209 215 223 222 217 215 219 222 226 230 235 236 232 227 198 194 188 184 179 177 181 190 207 197 189 181 179 182 184 180 182 202 199 192 199 205 196 181 202 187 181 165 136 119 118 99 95 107 119 133 123 106 124 98 100 140 132 108 130 149 181 200 192 190 189 189 189 187 183 180 
238 242 246 249 249 249 250 251 252 252 252 251 251 253 254 254 254 252 248 248 250 252 252 252 249 250 251 253 254 254 252 250 251 186 87 91 87 89 105 102 97 98 111 105 96 103 105 104 91 131 175 200 200 192 194 206 217 213 215 219 211 201 206 218 217 221 226 230 232 235 235 233 215 206 186 183 191 191 190 196 211 198 195 190 181 191 198 183 197 183 189 223 220 167 149 162 137 125 119 122 125 105 116 126 101 108 135 134 122 111 111 105 101 130 130 113 124 149 184 196 191 190 190 189 189 187 182 179 
247 248 250 250 249 249 249 250 254 251 250 250 252 250 246 243 252 250 249 249 251 252 251 249 248 249 250 251 252 252 250 248 252 182 81 87 84 87 104 104 99 93 111 114 103 112 116 110 120 99 89 113 152 178 194 210 209 204 203 205 205 204 210 219 211 221 229 229 230 232 234 234 228 216 189 182 198 197 185 188 198 191 191 190 186 192 195 186 190 196 213 241 238 174 129 96 107 130 123 105 117 113 130 132 105 112 149 139 124 114 109 120 134 156 174 169 165 180 194 183 191 189 189 189 188 186 181 178 
251 251 251 251 250 250 250 251 251 248 246 248 249 247 248 250 249 249 250 251 251 251 251 251 248 248 248 249 249 248 247 245 250 174 73 84 83 83 103 109 102 89 111 122 109 109 115 112 115 118 115 104 100 112 150 190 199 203 203 198 193 196 203 209 202 217 229 231 229 234 237 238 233 227 203 187 190 184 177 186 188 190 186 189 197 193 188 193 200 220 228 228 224 198 187 151 112 120 120 121 120 114 139 131 135 147 148 145 134 126 173 192 187 173 166 150 142 177 205 197 190 189 188 187 187 184 180 177 
251 249 249 249 249 250 251 252 248 246 245 245 242 239 243 249 246 248 250 251 252 253 253 254 247 246 246 246 246 245 242 241 251 174 75 90 89 89 108 119 106 88 107 117 106 110 121 127 110 124 129 125 129 130 119 107 142 169 194 201 196 192 192 192 195 207 220 222 227 236 241 241 238 230 209 193 193 191 188 193 193 200 197 200 209 203 199 213 232 219 211 218 216 181 198 193 171 164 111 99 109 113 140 159 112 122 147 152 140 131 159 173 165 153 159 159 149 183 198 183 191 189 187 186 186 183 181 178 
248 247 247 247 248 249 250 251 254 251 243 247 253 252 246 244 249 248 248 249 252 253 253 252 244 244 243 243 242 241 239 238 250 181 84 95 92 93 112 116 102 91 106 114 107 110 115 118 142 139 125 116 118 121 113 105 103 115 135 161 184 196 194 186 193 200 202 205 215 229 235 232 226 218 205 198 197 197 193 190 195 199 200 200 204 208 215 225 233 227 221 227 225 186 197 173 194 240 172 140 157 164 150 151 129 114 149 144 132 137 151 170 176 176 194 187 157 183 200 200 192 189 187 185 185 184 182 180 
249 247 246 245 246 247 247 247 231 194 161 165 195 226 243 249 252 248 245 247 251 253 250 247 242 241 241 240 240 239 238 236 248 184 88 94 89 90 107 106 106 96 104 105 105 120 129 133 130 121 113 108 99 87 96 120 128 117 108 112 127 150 174 192 195 193 189 189 202 218 223 218 213 215 219 213 198 191 190 188 196 194 200 199 194 211 232 234 237 240 243 248 239 191 203 176 197 227 188 209 205 174 146 153 152 139 149 162 155 156 198 201 196 177 178 171 152 186 198 192 193 190 187 185 185 185 183 182 
246 248 248 247 247 245 253 218 115 87 76 89 102 112 140 174 218 239 252 253 251 248 248 248 244 242 240 238 240 241 239 236 245 182 83 94 90 93 111 111 102 99 94 95 101 126 111 91 93 97 100 103 129 130 107 124 116 114 127 127 117 113 125 142 185 206 211 196 190 202 209 204 199 201 210 220 214 197 190 192 198 199 200 200 206 218 229 236 236 237 239 238 231 200 198 184 194 237 161 145 170 158 149 169 160 146 168 189 176 177 164 167 185 181 176 164 160 186 201 192 193 188 189 187 185 191 187 183 
249 250 250 248 248 245 252 215 91 84 91 108 111 100 94 98 120 150 190 224 243 251 253 248 242 239 237 239 241 239 238 236 246 188 95 102 98 100 113 107 107 99 92 93 90 96 82 82 107 119 116 120 165 187 136 107 115 117 125 128 123 122 121 121 122 156 199 221 214 200 200 208 197 196 202 209 206 198 199 207 199 197 200 209 216 218 220 223 227 223 226 234 223 202 211 179 196 219 166 175 208 188 174 173 170 173 170 161 155 160 150 176 183 138 170 200 171 183 212 195 192 197 196 188 182 174 169 175 
249 250 249 248 250 247 253 214 96 91 93 102 108 109 108 109 99 100 106 124 154 191 225 245 253 247 241 242 244 243 239 234 245 178 86 97 99 102 117 113 106 97 90 98 92 84 75 103 119 134 133 123 114 107 75 89 101 115 121 118 112 120 128 133 122 114 118 148 191 221 223 213 199 191 188 194 198 197 197 200 205 197 199 211 220 219 217 219 214 219 206 211 217 193 191 182 172 197 180 179 188 164 168 153 115 119 143 147 125 139 162 200 187 157 132 140 186 205 194 195 181 177 160 147 143 134 123 123 
247 247 247 248 250 249 254 215 100 93 93 100 108 110 111 112 107 118 123 113 95 97 125 153 185 212 238 247 247 243 241 239 254 187 92 98 100 98 112 115 108 99 90 96 89 74 66 106 120 117 120 134 116 70 1 3 61 95 118 133 129 126 122 120 120 123 122 111 109 134 179 217 206 199 193 192 192 190 193 197 188 188 194 208 220 223 223 225 224 195 161 156 173 169 162 172 165 174 153 117 112 117 151 116 79 88 139 157 109 97 122 171 186 139 102 90 137 174 162 141 146 143 141 144 150 161 165 147 
247 247 247 247 250 248 253 213 94 85 89 104 110 103 98 100 107 107 112 119 122 115 102 95 87 118 153 185 219 249 254 248 216 166 100 101 99 97 111 112 106 99 88 91 85 73 65 99 125 118 105 92 79 69 46 65 60 82 81 102 110 120 124 130 114 110 119 135 127 108 107 121 157 172 191 200 198 191 187 188 194 195 195 197 206 221 230 233 207 144 136 133 136 168 155 129 143 161 158 111 99 111 155 119 84 111 149 160 125 96 97 159 169 118 126 132 145 153 154 147 144 151 170 176 159 168 176 134 
249 250 249 246 248 245 250 211 99 82 82 97 106 101 106 120 113 118 118 118 115 115 120 123 126 124 117 118 143 172 172 154 116 115 98 98 95 101 118 112 104 96 86 85 80 77 66 83 73 62 56 48 62 77 76 93 90 100 70 72 67 81 99 118 122 113 111 117 120 114 110 112 114 129 148 170 187 196 196 193 187 196 200 195 193 193 184 172 156 141 156 143 143 185 162 135 122 152 170 144 133 125 158 141 108 123 154 163 141 140 148 187 188 150 149 148 178 158 132 150 140 144 158 167 151 161 169 116 
251 252 251 247 247 244 250 212 100 86 86 98 102 97 99 111 100 105 111 119 129 134 131 124 128 134 130 114 101 100 103 102 95 106 106 105 100 101 116 111 110 96 85 80 69 67 50 52 60 55 80 84 100 91 87 102 81 118 103 106 85 74 64 62 85 103 117 113 112 119 120 115 125 121 116 121 142 169 188 195 186 178 163 147 142 143 142 137 132 172 169 150 161 184 171 181 152 155 141 128 146 142 153 145 135 129 161 174 146 154 163 179 170 116 124 128 163 168 155 153 168 167 157 165 164 171 176 134 
249 252 251 247 247 244 252 216 101 91 90 98 100 96 99 109 108 116 119 119 120 122 116 107 103 101 98 100 101 106 114 122 121 112 103 106 102 94 111 115 110 94 86 85 75 77 60 55 93 86 109 93 103 88 93 107 70 113 98 109 104 106 94 82 62 66 75 93 111 123 124 121 111 121 125 118 112 119 132 141 144 143 146 154 157 148 133 121 122 165 160 171 179 179 169 169 167 175 154 141 165 157 153 151 112 121 150 171 161 150 139 172 188 139 162 164 182 175 168 177 166 175 160 166 171 164 167 149 
248 248 248 248 250 247 254 219 101 85 90 99 104 107 101 101 105 112 130 100 77 86 75 73 91 100 118 113 107 117 119 120 118 108 110 102 103 99 112 113 107 94 82 82 79 79 61 66 98 81 105 85 104 91 95 113 76 106 96 108 101 107 109 114 99 87 66 61 61 84 103 120 110 118 136 120 120 121 116 99 115 146 132 126 177 151 119 143 140 173 169 157 177 179 165 171 171 166 162 151 164 140 167 150 124 125 142 168 162 155 159 178 186 189 187 189 172 174 165 171 170 157 167 162 150 167 173 152 
248 249 249 249 250 248 254 219 102 86 91 99 104 106 101 100 89 98 105 75 57 73 87 98 112 115 123 115 105 107 103 101 69 84 109 107 105 99 111 111 104 92 79 79 75 75 60 68 99 83 107 88 106 93 96 114 76 106 95 107 98 103 106 109 94 100 96 91 69 63 57 62 98 104 125 119 120 117 115 108 105 110 120 130 166 170 149 116 161 180 170 163 185 185 164 164 162 178 163 140 145 138 165 154 142 154 168 171 153 167 163 166 161 165 156 134 125 139 164 169 180 166 165 159 162 175 177 143 
249 251 252 251 252 250 254 220 104 88 92 98 101 102 96 96 90 90 79 65 69 92 107 110 112 109 108 93 79 70 54 50 51 78 113 113 108 101 110 107 103 93 81 79 73 73 60 70 101 83 107 88 107 93 95 113 76 105 93 104 95 100 100 104 95 97 96 104 99 95 75 64 53 63 94 105 114 110 110 117 122 105 120 125 114 119 137 127 157 180 173 162 180 188 172 166 168 178 163 164 167 151 165 164 159 155 152 157 140 141 113 145 145 46 54 40 22 141 131 91 157 167 172 171 173 173 178 145 
250 253 254 254 254 251 254 222 108 90 93 97 97 96 87 87 93 88 72 71 87 99 98 84 75 65 58 50 55 65 68 77 75 90 114 111 108 101 110 108 103 94 83 82 74 73 62 73 100 82 106 86 104 90 92 108 76 104 91 102 93 98 97 101 89 96 98 106 97 97 91 92 88 64 47 46 69 93 106 121 108 108 124 131 119 108 116 124 148 172 181 180 188 185 173 171 170 171 165 167 166 148 164 143 120 101 126 150 62 1 4 134 154 72 101 112 121 159 166 139 128 149 151 164 162 165 175 158 
250 252 254 253 252 250 254 222 110 92 94 97 94 93 85 85 80 85 74 67 67 63 60 55 49 57 70 79 95 98 84 86 89 91 108 108 106 98 109 114 100 94 87 85 76 75 63 74 101 82 104 84 102 88 89 105 74 101 89 101 93 98 98 102 93 99 98 103 92 93 86 87 89 96 95 82 71 70 70 86 103 124 132 127 118 112 106 109 103 114 135 168 191 184 167 163 144 162 158 104 89 108 148 85 3 17 112 167 98 106 122 165 156 129 111 104 81 154 165 150 163 156 127 155 164 179 172 145 
247 250 251 250 250 248 253 222 110 94 95 98 97 94 88 89 80 84 73 57 51 48 49 63 88 92 93 90 100 100 85 88 83 87 109 113 107 93 106 115 100 94 87 85 76 74 61 73 103 83 104 84 103 88 89 106 71 100 87 100 93 99 99 101 99 96 90 98 98 103 91 85 107 108 100 96 103 107 83 80 63 74 95 117 117 121 121 120 112 111 110 117 136 145 119 81 46 124 163 77 30 71 176 148 118 132 163 186 141 107 87 152 172 95 106 110 113 127 112 97 137 154 160 186 169 171 168 155 
247 249 250 250 249 247 253 224 111 94 96 99 97 95 89 91 89 84 75 60 64 69 64 85 82 93 96 91 102 105 90 92 83 90 112 114 110 97 107 112 102 94 86 84 75 74 61 73 103 82 103 83 102 89 91 108 71 97 86 99 93 99 99 101 94 101 100 102 90 90 87 92 99 104 99 102 113 123 108 114 106 79 63 83 89 102 108 118 119 122 113 95 99 121 111 72 72 150 192 153 134 150 188 134 105 100 137 161 116 116 128 140 132 152 138 156 142 120 95 108 106 111 135 156 168 182 179 143 
248 250 251 250 250 248 253 226 112 95 96 98 96 93 87 89 88 82 84 70 77 81 66 89 100 110 105 90 96 100 87 91 88 94 109 108 109 104 113 110 104 95 85 83 75 74 62 74 101 80 101 81 101 89 92 109 70 97 85 97 92 99 98 101 100 101 98 107 103 105 92 87 112 112 99 100 108 119 106 122 107 121 105 96 84 85 85 107 115 116 122 117 101 102 111 109 123 171 154 103 95 128 167 142 117 153 146 134 148 159 144 152 149 136 158 146 124 128 107 123 119 113 139 120 127 148 173 149 
246 246 251 249 251 248 253 228 117 98 103 95 91 86 89 86 85 82 81 69 87 86 86 101 114 112 110 97 97 102 92 84 86 92 110 112 110 113 110 108 98 97 88 82 75 73 62 77 103 74 108 87 102 92 89 112 73 95 86 97 92 101 97 104 98 102 100 110 104 107 100 101 117 116 104 106 109 125 103 120 111 122 122 127 124 108 98 91 84 96 110 117 117 113 107 102 117 113 99 108 140 148 149 169 158 147 158 144 146 156 141 158 153 137 158 138 124 143 129 133 120 128 139 130 117 113 146 156 
245 245 250 248 250 247 252 227 118 97 101 94 91 86 89 86 82 80 81 74 93 90 88 103 114 113 111 99 96 101 92 85 90 92 107 110 107 108 104 104 96 96 86 82 76 76 64 79 107 81 112 88 101 90 85 103 71 90 80 95 93 100 95 104 95 96 96 101 100 105 105 107 113 122 114 110 111 132 106 110 104 113 112 117 119 113 115 116 110 93 75 81 104 124 123 113 116 118 110 107 112 113 126 154 155 147 162 155 150 151 138 163 160 133 149 137 130 149 145 137 118 130 138 128 127 136 161 152 
242 242 247 245 248 245 250 226 119 94 97 90 89 85 87 83 80 78 82 78 98 92 87 101 101 104 112 108 110 115 105 99 97 93 104 108 103 103 98 102 96 94 84 80 75 75 62 75 104 83 113 85 91 72 61 68 54 73 63 84 91 102 99 112 97 95 99 107 120 118 110 99 115 119 108 103 104 130 107 113 102 113 114 121 122 115 118 121 113 115 110 95 83 85 99 112 125 118 112 111 110 108 112 121 120 131 169 171 157 145 138 172 171 165 193 177 153 140 155 151 136 152 155 144 157 177 189 158 
240 240 244 242 245 242 248 224 118 91 92 86 86 82 84 80 80 77 81 78 98 92 84 96 107 109 114 110 112 116 104 96 103 94 103 108 104 101 96 102 98 95 83 78 73 72 56 68 81 60 80 48 60 61 75 94 78 91 60 60 65 85 87 101 97 102 114 109 113 104 107 103 116 110 105 114 113 128 104 115 106 117 118 123 120 108 109 113 120 113 105 102 106 106 96 84 91 99 119 130 120 113 112 111 102 100 124 141 160 173 169 188 190 181 189 177 175 153 158 146 145 163 164 153 174 193 194 153 
238 238 242 240 242 239 245 221 118 89 90 84 84 80 82 79 80 77 79 75 97 93 85 95 112 107 105 100 104 112 104 100 104 94 104 110 107 102 98 104 98 95 83 78 72 70 56 67 65 58 88 70 88 88 102 117 83 108 77 67 68 85 73 73 84 87 101 104 120 119 120 110 125 112 102 107 103 118 98 110 101 109 107 111 109 98 104 113 106 106 106 106 107 109 107 104 97 82 84 96 105 117 119 108 95 97 104 99 109 132 149 177 191 184 171 158 184 159 153 142 143 160 161 156 180 193 186 149 
238 237 241 238 240 237 243 219 118 90 90 85 84 79 80 78 77 76 78 71 95 97 90 96 101 97 100 99 105 113 106 102 98 91 103 110 106 104 100 106 97 95 83 78 73 72 60 73 99 87 108 84 97 90 105 117 66 108 90 84 91 107 84 73 86 87 91 94 107 113 113 104 125 118 109 106 97 119 97 95 91 99 101 109 108 97 101 109 110 107 102 99 102 107 110 109 106 99 96 88 77 85 102 106 105 101 96 86 93 104 101 106 138 162 173 173 190 165 155 154 146 160 161 161 189 197 187 156 
238 237 240 237 239 237 241 218 115 87 89 84 82 75 77 77 73 76 78 67 92 98 91 92 96 94 97 91 90 91 83 81 89 86 102 108 105 103 99 104 95 93 83 78 72 73 63 78 88 75 97 82 98 83 89 92 81 117 90 80 89 112 99 98 109 120 116 96 70 68 80 95 102 103 111 123 116 131 98 87 86 95 100 111 111 98 99 104 101 102 101 99 99 104 109 112 109 105 105 105 105 104 94 78 86 98 109 108 104 98 93 101 92 108 133 150 172 175 166 155 154 164 160 161 193 199 184 152 
238 237 240 236 238 236 241 217 112 83 87 82 80 72 74 74 71 77 78 64 89 97 89 85 85 79 75 62 60 65 69 77 81 83 101 106 102 101 97 100 94 92 83 77 71 71 63 79 94 72 82 68 91 83 97 103 71 109 88 86 100 120 106 109 117 129 127 127 109 105 88 80 88 75 79 99 97 115 96 101 90 95 94 103 104 95 100 108 108 104 99 96 99 103 105 103 103 100 97 99 109 118 115 106 98 94 91 93 97 94 94 103 108 94 102 110 118 150 162 153 168 175 165 162 197 202 184 147 
246 236 245 243 251 241 250 220 112 87 84 74 76 72 72 71 69 67 74 66 69 67 71 60 53 69 65 62 95 98 103 102 101 88 103 108 110 99 96 99 91 90 81 75 73 70 59 96 123 93 115 81 105 88 110 113 71 100 94 98 109 131 116 132 130 139 133 129 124 112 109 104 111 101 95 90 79 85 80 81 71 93 106 106 104 94 99 102 107 105 94 100 92 99 105 103 95 90 98 101 107 115 107 97 103 110 103 86 78 78 84 92 103 103 104 114 105 99 121 124 154 176 162 160 195 199 188 148 
242 245 242 221 204 208 223 203 108 84 82 73 74 71 71 69 74 69 72 60 62 63 70 64 78 80 84 85 109 108 104 98 95 85 104 107 106 98 98 97 92 90 82 76 74 72 60 97 128 99 120 86 106 86 106 107 70 104 96 96 109 135 119 127 129 136 127 122 117 109 108 105 114 109 111 112 99 98 82 76 60 66 79 104 105 99 102 110 107 106 94 96 87 97 104 105 104 94 97 98 104 116 111 102 104 109 103 94 92 86 79 75 81 90 103 118 108 97 110 110 104 136 155 166 196 196 181 149 
204 184 168 172 161 164 177 171 103 80 79 71 72 68 68 66 67 68 70 61 70 74 85 84 81 71 83 85 96 90 77 80 98 85 105 105 101 96 98 94 91 89 81 75 74 71 58 95 120 93 117 84 105 86 105 108 67 104 91 89 102 129 113 113 123 129 120 116 113 106 106 103 106 104 108 116 108 117 104 103 99 78 62 74 63 83 94 103 106 111 101 103 92 96 99 99 95 87 94 99 106 113 102 91 96 99 94 91 95 97 90 85 87 79 74 86 95 104 120 122 102 125 164 178 198 196 175 149 
163 166 171 176 180 198 211 188 99 77 79 69 72 66 66 64 64 68 70 62 71 72 77 75 82 76 87 84 89 76 54 80 111 88 101 102 99 96 101 96 88 85 77 72 70 68 54 90 111 85 111 80 104 85 106 111 70 104 86 85 98 122 109 108 117 124 117 117 117 108 105 99 112 108 106 113 102 117 109 113 121 103 76 70 44 88 88 72 74 91 87 95 93 100 106 110 106 91 89 87 93 103 99 94 97 102 96 88 89 90 89 90 97 95 90 82 70 67 79 89 96 105 154 173 196 199 173 153 
176 172 185 178 173 168 201 201 97 76 78 69 71 65 64 63 62 67 69 63 77 77 80 79 94 96 96 92 105 86 53 92 117 89 94 98 102 100 103 102 86 82 74 70 68 65 51 86 111 84 110 78 102 82 103 107 77 108 86 91 103 120 112 118 117 123 117 118 121 114 109 102 111 110 108 118 104 119 106 109 112 104 87 80 52 110 103 74 68 86 78 80 79 86 93 102 106 92 91 91 95 103 98 93 96 99 95 88 89 90 89 90 99 94 89 87 95 100 96 93 81 93 152 175 198 198 166 148 
200 161 164 176 180 151 174 182 97 76 77 68 70 64 63 63 61 66 66 61 82 88 93 95 93 99 92 97 113 96 62 90 109 91 96 96 106 100 97 99 86 82 73 68 68 65 50 85 109 81 106 75 100 80 100 102 75 109 86 94 103 116 114 123 123 127 118 119 123 117 113 105 104 104 102 119 105 126 113 118 121 105 87 79 56 114 108 89 92 110 97 89 78 71 63 65 79 73 84 95 101 105 94 86 98 97 87 80 87 93 93 92 91 97 99 86 83 87 89 100 80 108 169 184 198 191 161 148 
189 189 202 208 219 220 218 179 96 75 76 66 67 62 62 63 65 68 62 54 76 80 82 83 91 96 89 96 93 80 62 74 77 87 101 96 107 99 91 93 85 81 73 68 68 65 51 84 103 75 102 74 101 82 99 97 71 113 91 95 100 113 113 119 123 126 116 117 122 116 108 100 104 104 99 115 99 121 107 113 121 104 94 84 66 113 99 81 91 115 107 102 90 78 62 59 77 67 73 79 84 91 89 89 106 105 94 83 83 85 85 86 99 96 92 83 94 102 86 83 67 112 168 178 193 188 165 154 
180 205 216 199 173 182 195 174 96 75 76 66 66 61 61 62 61 67 61 54 80 85 84 85 91 95 89 91 58 45 45 48 41 75 103 95 107 102 93 94 85 80 72 67 67 64 50 82 106 79 105 79 104 84 97 92 74 124 102 101 102 115 115 116 116 121 114 117 121 112 100 88 89 93 92 114 98 120 102 106 118 105 95 78 68 119 107 88 84 109 100 97 91 83 69 67 85 75 80 84 82 83 76 73 84 97 101 95 90 87 87 91 95 94 87 72 81 90 77 79 66 119 170 181 199 190 162 144 
184 214 197 180 165 182 197 166 94 72 81 68 64 62 60 61 61 58 59 56 75 78 85 85 92 87 98 89 52 44 58 53 57 79 109 102 95 102 93 93 85 81 76 73 70 61 39 85 102 82 108 85 112 87 95 94 76 123 99 113 105 122 115 119 113 123 117 114 125 116 95 88 83 86 85 110 98 116 97 110 112 111 90 80 79 103 107 87 94 105 101 93 92 83 69 65 87 72 87 92 91 86 85 60 56 69 75 73 75 79 82 87 93 96 91 86 89 88 78 71 65 99 152 168 192 187 161 153 
173 190 181 192 185 192 206 189 97 74 81 67 62 59 57 57 61 55 52 51 73 77 81 78 89 83 91 88 71 75 89 85 88 80 98 104 105 105 90 90 90 88 78 66 68 71 53 86 102 88 102 73 90 77 86 84 68 118 108 120 112 119 113 116 106 117 114 113 120 110 93 91 109 105 94 111 102 122 102 107 114 109 95 88 77 101 99 83 97 108 104 94 92 87 76 72 91 76 88 93 90 86 93 78 62 70 71 68 72 75 75 75 77 82 80 79 86 90 86 80 70 91 133 140 160 160 143 135 
185 195 186 208 199 194 200 184 95 71 78 64 61 60 58 59 60 56 54 52 75 80 86 84 91 86 88 89 88 92 95 88 105 84 98 106 104 103 91 93 83 85 84 76 71 63 43 66 82 79 85 62 73 81 93 92 73 101 85 91 100 111 112 111 105 106 101 104 115 109 95 93 101 108 105 116 100 117 102 110 112 101 96 93 69 103 95 87 98 106 101 89 88 90 85 80 95 81 92 94 89 81 91 83 71 76 74 72 82 90 88 84 78 79 77 74 76 78 75 70 63 89 139 138 130 120 111 110 
188 207 198 211 200 199 203 179 94 69 76 63 60 61 60 61 57 56 58 54 70 73 81 83 89 88 84 85 92 95 93 92 87 81 105 109 98 99 91 92 88 81 79 76 69 61 68 106 119 129 137 134 138 142 136 124 110 142 143 129 114 97 96 97 99 98 94 98 107 105 97 98 100 113 115 116 93 105 95 105 115 103 101 93 56 99 89 82 85 98 104 101 101 100 84 66 94 83 95 97 92 81 86 80 69 73 71 70 83 95 95 91 90 89 86 81 76 75 70 64 49 82 147 153 141 130 129 132 
189 212 203 209 194 195 203 179 97 72 78 64 60 59 58 58 57 54 54 53 73 78 82 83 82 85 79 75 78 80 79 86 88 84 107 109 101 98 82 79 88 79 78 74 68 62 75 100 117 116 104 98 85 76 59 47 40 80 113 126 135 130 136 139 128 129 128 123 117 103 92 89 99 108 108 105 89 106 99 105 107 102 103 92 56 103 92 82 93 98 101 99 101 104 93 75 91 83 93 97 97 86 87 80 67 76 75 72 82 93 94 91 94 92 95 95 90 89 89 82 66 80 127 136 139 134 121 109 
196 211 198 208 192 184 194 178 95 70 76 63 61 61 59 59 65 57 54 57 86 94 93 86 89 101 108 113 116 118 121 128 117 99 101 100 101 94 68 68 70 73 81 74 70 58 44 18 9 5 1 1 1 1 2 3 7 4 1 1 22 51 75 88 118 117 120 131 142 145 134 119 99 111 116 112 95 101 91 95 102 104 106 99 70 105 94 78 99 97 96 95 97 106 107 96 95 88 94 92 95 86 85 77 68 80 81 76 83 94 98 96 92 88 97 100 92 94 96 89 69 78 122 138 155 154 134 118 
191 203 192 206 193 186 197 183 91 66 74 62 60 62 60 59 50 48 56 71 110 127 136 133 117 122 126 121 110 100 95 92 85 90 98 95 99 93 61 63 61 63 70 63 63 59 45 4 4 12 9 22 22 19 19 14 9 15 16 10 1 1 1 1 0 0 2 22 51 77 80 66 38 52 70 81 78 93 95 106 98 101 99 100 86 103 96 82 92 93 103 107 101 98 95 84 95 94 99 92 95 88 86 75 65 79 80 75 81 92 95 93 93 86 94 96 85 86 89 82 64 89 137 147 154 137 113 107 
196 211 197 205 193 189 194 172 93 68 76 62 60 59 56 55 58 57 54 46 56 50 48 43 26 23 19 11 1 2 1 2 1 56 101 99 102 96 61 57 60 54 62 60 60 55 53 20 5 15 8 10 6 3 12 8 9 11 12 16 12 23 17 21 20 22 19 5 0 0 3 0 6 1 0 7 16 40 42 51 67 71 73 91 100 115 124 120 112 104 103 96 78 71 76 74 90 96 104 97 101 95 91 81 72 86 86 79 84 94 94 91 94 86 93 96 85 85 93 86 60 91 141 149 154 135 113 117 
195 216 193 206 204 197 199 176 92 67 75 62 59 57 56 58 55 56 45 58 85 76 53 53 25 1 2 2 1 12 1 1 4 55 91 97 95 87 68 56 56 60 56 57 60 63 51 21 1 10 6 5 6 4 7 5 0 10 5 0 9 11 2 6 5 9 8 10 18 20 17 17 11 16 17 13 13 7 1 1 1 14 23 32 52 87 119 128 139 144 138 139 127 126 108 96 86 87 86 87 93 95 80 60 58 87 91 85 85 87 93 96 92 85 91 93 79 77 91 83 51 104 142 130 152 148 140 126 
188 209 187 200 196 189 192 171 93 69 73 57 52 53 53 54 48 44 31 86 165 174 150 145 149 135 144 131 103 91 76 68 60 77 90 98 106 91 65 52 56 57 54 59 65 63 47 15 3 8 8 19 23 12 8 5 10 13 8 18 8 11 12 17 16 12 7 7 8 1 0 3 4 0 0 4 6 8 14 21 13 7 0 0 0 1 8 12 47 68 79 101 108 127 137 129 142 142 145 130 107 109 108 84 78 84 92 74 74 91 82 83 89 90 100 101 81 76 85 80 66 93 120 137 179 157 129 131 
191 213 191 201 197 189 193 174 93 69 71 52 45 49 52 51 55 50 22 83 183 195 184 190 193 190 204 192 163 171 182 161 132 123 100 90 95 89 70 59 57 57 54 60 62 59 50 29 3 4 1 1 1 1 2 5 2 8 1 5 1 8 3 3 1 3 12 14 8 2 5 13 13 6 8 16 9 3 2 4 13 8 8 12 12 5 1 1 1 3 1 5 1 4 28 36 62 89 93 101 125 118 111 137 135 135 142 122 108 114 104 90 92 91 94 90 74 75 77 73 66 77 102 141 185 152 115 135 
190 212 189 200 196 188 191 170 92 69 71 49 42 49 51 50 44 56 25 82 177 180 166 173 177 181 201 194 148 142 152 122 93 105 99 91 97 95 73 54 57 59 59 61 54 51 60 56 60 74 88 104 104 88 65 35 38 58 41 18 10 15 1 3 9 4 0 0 0 4 4 1 2 1 2 9 3 8 10 12 7 9 14 10 13 20 21 23 21 26 13 15 8 1 1 3 0 3 7 0 0 14 39 48 69 85 94 119 123 126 136 95 91 95 105 106 92 98 93 89 75 77 115 159 187 149 101 105 
193 212 188 202 200 192 193 169 94 70 73 50 44 49 49 47 50 66 34 87 184 199 189 184 200 198 210 189 115 75 78 63 58 85 98 98 101 92 68 51 56 61 59 62 53 49 61 62 53 95 151 184 163 123 101 83 90 127 167 151 128 108 106 108 88 78 76 71 54 37 27 20 24 24 14 13 1 8 2 1 5 1 1 1 1 1 1 1 1 1 8 6 13 17 11 11 20 1 1 15 7 1 3 1 3 1 2 31 56 81 89 40 10 17 38 55 60 103 122 133 123 90 129 172 191 169 142 136 
196 213 188 201 202 195 195 170 97 72 74 52 45 47 47 46 49 58 30 57 127 149 147 141 163 168 164 123 80 84 94 83 94 100 98 96 96 80 62 60 56 59 59 62 57 52 55 48 54 78 112 123 79 42 59 83 54 84 152 183 167 137 176 173 132 113 116 125 100 70 63 69 75 80 61 60 58 78 71 73 81 51 45 46 51 53 47 65 55 1 24 16 3 5 1 26 15 61 54 3 3 55 90 93 93 88 112 99 97 122 88 40 18 1 8 30 48 113 128 126 133 80 131 170 180 157 158 165 
189 208 182 193 193 187 189 167 97 69 71 53 45 45 46 48 52 60 47 58 85 94 92 87 81 97 98 65 70 104 97 77 80 88 91 94 98 81 62 56 58 61 60 60 55 55 60 52 74 65 65 74 66 70 98 107 73 105 109 153 149 105 169 172 152 109 89 94 86 77 78 76 78 86 62 68 82 110 105 121 137 99 86 79 83 94 104 140 117 8 72 64 9 6 0 28 30 100 128 67 3 21 79 113 113 123 140 74 49 97 85 62 28 3 16 52 73 144 143 118 94 58 136 171 173 123 110 110 
191 210 184 194 192 186 192 172 95 64 67 51 44 44 47 53 52 47 40 43 57 74 84 86 76 80 85 69 81 90 62 64 59 81 91 91 97 87 66 52 61 66 62 56 48 54 71 73 62 66 68 64 56 74 94 80 76 157 107 145 144 62 106 110 140 126 117 97 61 46 49 44 20 45 45 80 107 120 93 102 110 98 109 103 102 115 125 157 112 1 98 73 0 21 19 24 33 111 138 117 89 29 1 35 88 130 144 74 46 97 98 61 28 4 20 47 55 133 151 138 82 56 136 160 180 128 103 93 
190 210 185 160 186 188 187 166 88 71 61 48 51 40 44 52 39 50 37 34 94 102 77 85 118 90 72 80 88 75 65 74 49 71 86 88 89 84 67 55 53 62 62 55 50 53 67 85 89 109 80 50 57 48 90 77 65 117 124 156 152 77 84 85 85 71 90 96 107 88 75 47 69 62 73 128 151 107 94 38 49 49 64 119 119 110 137 162 109 1 74 66 1 25 23 28 37 111 144 129 118 121 63 7 15 97 117 95 95 108 81 66 40 43 7 49 68 127 144 153 85 68 142 135 182 165 133 154 
208 210 177 163 187 194 197 164 88 68 63 46 46 42 42 47 48 35 29 53 138 108 71 77 104 111 76 72 71 66 86 75 27 57 81 88 87 79 62 50 59 65 61 54 56 59 61 65 95 92 97 80 65 56 99 94 56 68 127 173 118 47 71 82 63 85 106 150 156 151 100 83 108 128 96 141 80 81 97 36 72 21 2 51 70 89 119 155 111 37 66 46 1 3 8 20 22 117 148 135 118 148 147 80 1 2 86 102 65 83 86 48 77 118 45 49 64 131 147 139 76 62 121 121 179 181 124 133 
176 215 175 155 189 186 182 166 93 63 67 46 43 47 43 44 39 47 47 62 79 95 94 83 78 100 82 71 63 60 61 32 50 72 87 87 85 77 62 53 56 61 61 57 49 47 62 88 95 66 75 76 77 74 102 110 80 76 154 180 115 69 87 93 89 116 165 162 139 138 148 137 78 121 138 115 69 88 84 77 97 62 55 80 76 97 90 103 92 49 34 41 3 25 31 6 21 99 99 80 80 95 93 86 25 5 48 91 100 107 107 38 29 55 25 48 68 94 116 127 47 54 99 112 145 126 79 90 
152 213 184 170 201 198 191 169 89 49 60 43 40 45 37 41 44 32 16 32 62 116 144 129 87 72 77 43 38 65 54 59 71 82 84 80 80 75 62 53 55 63 64 58 52 49 61 80 73 59 63 81 106 87 82 90 37 78 135 127 111 101 98 99 95 102 107 103 68 92 121 131 124 101 153 118 87 103 79 43 72 66 97 115 101 126 86 72 93 51 14 27 12 22 30 1 11 50 67 57 64 54 4 30 33 0 84 99 62 83 81 87 90 84 89 69 63 83 105 79 12 40 74 89 95 71 79 89 
83 138 164 169 143 144 177 164 82 38 52 44 43 45 37 46 32 80 110 86 147 139 147 134 44 70 135 92 42 46 36 74 43 58 67 69 72 68 55 49 53 60 54 46 54 59 49 36 3 11 20 45 64 48 61 74 3 56 62 26 32 28 27 35 59 85 69 67 73 57 84 131 165 133 89 115 92 110 94 8 2 26 102 117 75 86 62 79 88 55 17 6 26 0 0 15 20 82 97 77 101 78 1 50 66 24 80 119 72 64 56 104 136 134 121 85 52 84 113 71 19 33 88 94 97 84 90 74 
93 98 98 115 110 111 116 101 70 36 46 42 46 42 37 45 42 63 81 55 139 162 160 132 114 125 143 125 105 104 79 49 38 54 64 65 64 59 54 53 55 51 50 52 50 47 65 95 97 92 92 100 85 80 112 110 77 88 78 67 73 59 66 67 101 114 89 71 94 62 107 110 100 122 53 92 74 95 108 37 1 4 66 56 15 26 2 5 22 24 13 30 33 51 33 45 22 64 82 78 69 48 18 54 61 63 66 136 100 54 54 81 108 91 32 58 58 107 130 105 22 3 92 107 125 119 100 107 
108 114 91 85 87 78 51 55 59 41 45 39 45 41 38 40 61 29 39 52 110 149 141 135 153 157 142 150 155 155 140 77 64 69 67 62 61 59 55 54 58 53 58 67 53 40 85 154 166 153 158 160 148 152 158 147 140 121 132 141 134 121 129 115 142 163 126 137 81 67 131 127 93 100 100 106 54 96 133 68 22 18 70 41 2 12 13 21 34 32 6 18 0 84 109 129 91 35 100 141 71 75 91 69 82 49 106 155 115 102 63 78 102 93 74 74 50 108 132 128 63 48 105 110 112 104 92 132 
90 104 104 93 85 97 75 72 70 67 65 52 61 57 54 50 47 49 78 45 95 122 118 121 116 125 117 128 122 119 129 93 73 68 57 55 63 64 54 46 44 50 53 53 49 47 66 95 103 95 96 86 92 101 81 91 92 74 93 84 74 103 152 158 117 122 89 138 105 49 110 112 74 68 46 43 18 83 93 48 24 0 56 63 49 46 50 64 52 59 57 46 47 62 93 129 137 56 98 113 82 104 78 77 95 82 133 157 144 94 21 84 111 44 94 85 81 139 112 69 68 114 131 120 110 106 107 123 
96 98 94 87 86 93 101 103 106 106 105 98 135 143 100 111 110 110 105 106 90 95 89 82 85 74 70 76 79 73 71 76 75 81 83 86 90 80 68 68 72 54 55 57 51 57 56 38 49 49 47 47 48 46 51 64 43 5 1 12 2 56 156 159 79 34 43 75 73 60 105 68 97 121 34 22 54 91 71 10 36 54 90 107 94 90 94 87 83 105 96 91 99 74 68 114 122 94 99 68 100 107 92 107 94 114 127 125 141 121 89 129 123 118 125 118 116 120 110 114 133 155 162 159 167 166 162 171 
99 103 97 89 92 100 113 126 132 127 120 126 151 157 141 132 140 136 133 136 135 141 137 129 132 126 127 131 129 123 121 125 123 115 113 110 103 100 100 96 102 103 102 102 101 105 109 108 114 113 112 114 117 108 101 104 109 94 99 102 86 108 149 154 117 101 98 101 127 122 114 88 116 148 113 117 127 117 86 96 123 129 141 140 133 142 147 131 140 142 129 139 165 150 137 165 145 156 186 163 178 175 168 181 171 180 172 152 175 182 155 169 181 166 161 175 180 170 176 187 179 197 199 194 198 194 189 195 
93 91 81 78 91 96 100 113 108 132 145 153 126 110 134 128 136 129 122 114 116 116 120 120 123 123 124 124 123 122 127 133 129 120 131 140 136 143 153 148 159 167 166 162 170 172 171 178 173 172 170 171 175 171 168 172 169 172 170 146 130 128 133 156 140 141 143 134 164 179 150 155 166 181 171 173 171 137 99 159 172 174 184 188 185 189 186 170 176 197 192 176 178 181 188 206 188 171 177 182 209 191 172 173 198 199 186 165 186 206 183 176 198 185 171 193 199 184 195 203 188 201 202 198 203 202 199 203 
82 82 74 75 85 81 73 79 138 159 171 182 156 142 167 156 115 122 134 130 138 133 142 146 145 150 155 156 155 160 165 168 180 177 182 188 186 188 190 188 190 189 183 181 188 193 194 197 177 185 193 200 204 199 195 199 194 202 192 185 195 193 187 200 198 183 194 202 201 206 177 181 186 186 185 194 202 177 125 152 168 169 187 203 192 172 160 155 162 193 200 174 157 168 189 201 196 174 167 180 203 185 182 186 196 192 193 188 196 203 190 188 198 198 191 198 200 195 199 195 193 200 200 198 204 205 203 206 
182 185 184 182 178 163 150 153 170 173 174 179 184 190 196 193 175 184 190 180 190 185 193 197 193 199 204 207 208 208 204 201 191 200 194 194 205 202 197 208 204 196 199 200 192 196 200 189 209 204 192 183 180 174 171 174 174 207 213 218 203 169 160 155 153 147 172 220 218 210 175 151 150 151 157 178 196 200 171 162 161 163 178 194 191 179 178 185 186 184 187 190 187 186 188 187 181 191 191 188 196 194 202 195 189 184 190 191 187 187 189 194 191 195 202 194 193 200 194 192 199 201 198 195 197 196 194 194 
198 196 198 204 206 203 199 195 202 204 208 200 202 207 201 210 202 210 207 199 213 214 208 203 209 207 203 199 198 198 195 191 207 225 220 215 220 194 162 165 165 150 150 149 146 177 218 228 215 194 162 141 141 145 149 154 153 191 204 211 184 154 169 169 174 178 165 182 185 187 184 180 194 190 186 188 181 185 191 186 199 199 195 190 188 188 186 184 188 182 182 186 186 187 185 177 188 193 191 189 192 192 194 183 195 196 200 198 193 196 200 195 200 195 205 197 194 200 192 200 189 189 188 188 187 188 187 186 
192 189 195 196 186 190 200 196 194 187 189 183 181 185 172 168 203 223 221 216 219 209 172 149 154 149 143 139 139 140 142 144 192 208 212 213 212 186 155 151 153 154 163 166 163 171 181 181 189 186 176 174 182 187 186 187 187 186 175 180 186 187 195 193 178 195 186 187 188 186 188 191 182 184 190 186 181 182 187 195 181 184 180 175 179 183 181 178 176 186 191 184 180 191 200 197 195 191 195 197 191 187 193 201 185 189 191 189 188 190 191 181 191 187 188 189 187 186 185 190 189 188 190 192 189 190 191 189 
210 215 222 188 125 102 115 118 118 113 117 117 110 116 127 121 192 218 210 203 201 203 172 157 165 166 172 179 182 183 182 186 183 181 182 183 185 184 187 191 185 190 184 182 188 186 179 178 175 186 192 192 190 185 181 183 182 184 183 178 183 183 174 181 184 177 174 175 173 175 177 176 180 179 180 169 180 183 169 176 177 180 181 185 188 182 181 190 190 185 183 187 191 190 186 183 190 184 184 178 175 184 177 170 179 177 172 175 176 173 180 182 179 187 180 187 190 188 195 186 188 184 185 184 177 173 172 168 
202 205 202 186 164 152 155 163 168 169 172 174 177 179 181 181 182 181 179 178 178 181 184 187 187 188 188 188 188 187 186 185 181 180 179 179 180 180 180 179 176 178 180 181 184 187 188 186 187 186 185 183 181 178 177 176 175 176 172 170 170 167 167 173 169 168 170 173 178 179 177 174 180 180 180 182 183 182 181 180 183 182 182 183 182 180 179 180 171 172 173 173 172 171 171 171 164 167 166 166 170 172 171 174 182 181 181 181 182 182 181 180 180 177 175 175 173 169 166 165 157 156 156 155 153 152 156 162 
173 173 174 175 177 180 183 185 179 179 180 181 181 182 182 182 180 180 178 177 176 178 180 183 180 180 181 181 181 180 179 178 179 178 177 177 177 178 177 177 178 178 177 175 174 175 173 170 168 168 168 167 167 167 168 168 171 173 172 173 177 177 179 187 193 191 189 189 189 187 182 178 177 177 176 175 175 173 171 169 164 161 160 160 160 160 161 163 168 168 168 166 163 160 158 157 168 176 178 175 175 173 172 176 171 169 168 167 166 164 162 160 155 151 148 147 145 143 142 143 149 150 154 158 161 165 172 179 
