P2
128 85
255
245 245 245 247 247 247 247 246 248 248 248 248 248 248 249 249 249 249 249 249 249 250 249 249 250 250 250 249 249 249 249 249 250 250 250 250 250 250 250 250 251 251 251 251 251 251 251 251 251 251 251 251 251 252 252 252 253 253 253 253 252 252 252 252 252 252 252 252 252 252 252 252 252 252 252 252 252 252 252 252 252 252 252 252 252 252 252 252 252 252 252 252 252 252 252 252 252 252 252 252 252 252 252 252 252 252 252 252 252 252 252 252 252 252 252 252 252 252 252 252 252 252 252 252 252 252 251 251 
245 245 245 247 247 247 247 247 248 248 248 248 248 248 249 249 249 249 249 249 249 249 249 249 250 250 250 249 249 249 249 249 250 250 250 250 250 250 250 250 251 251 251 251 251 251 251 251 251 251 251 251 251 252 252 252 253 253 253 253 252 252 252 252 252 252 252 252 252 252 252 252 252 252 252 252 252 252 252 252 252 252 252 252 252 252 252 252 252 252 252 252 252 252 252 252 252 252 252 252 252 252 252 252 252 252 252 252 252 252 252 252 252 252 252 252 252 252 252 252 252 252 252 252 252 252 251 251 
245 245 245 246 247 247 247 247 248 248 248 248 248 248 249 249 249 249 249 249 249 249 249 249 250 250 250 250 249 249 249 249 250 250 250 250 250 250 250 250 251 251 251 251 251 251 251 251 252 251 251 252 252 252 252 252 254 254 252 252 252 252 252 252 252 252 252 252 252 252 252 252 252 252 252 252 252 252 252 252 252 252 252 252 252 252 252 252 252 252 252 253 253 252 252 252 252 252 252 252 252 252 252 252 252 252 252 252 252 252 252 252 252 252 252 252 252 252 252 252 252 252 252 252 252 252 251 251 
245 245 246 246 247 247 247 247 247 247 247 247 247 247 248 248 248 248 248 248 248 248 248 249 249 249 249 249 249 249 249 249 250 250 250 250 250 250 250 251 251 251 251 251 251 251 251 251 252 252 252 252 252 252 252 252 252 252 252 252 252 252 252 252 252 252 252 252 252 252 252 252 252 252 252 252 252 252 252 252 252 252 252 252 252 252 252 252 252 252 253 253 253 253 253 253 253 253 252 252 252 252 252 252 252 252 252 252 252 252 252 252 252 252 252 252 252 252 252 252 252 252 252 252 252 252 252 251 
245 245 246 246 246 246 247 247 247 247 247 247 247 248 248 248 248 248 248 248 248 248 248 249 249 249 249 249 249 249 249 249 250 250 250 250 250 250 251 251 251 251 251 251 251 251 251 251 252 252 252 252 252 252 252 252 252 252 252 252 252 252 252 252 252 252 252 252 252 252 252 252 252 252 252 252 252 252 252 252 253 253 253 253 253 253 253 253 252 252 253 253 253 253 253 253 253 253 252 252 252 252 252 252 252 252 252 252 252 252 252 252 253 253 253 252 252 252 252 252 252 252 252 252 252 252 252 252 
246 246 246 246 246 246 246 246 247 247 247 247 247 248 248 248 248 248 248 248 248 248 249 249 249 249 249 249 249 249 249 249 250 250 250 250 250 250 251 251 251 251 251 251 251 251 251 251 251 252 252 252 252 252 252 252 252 252 252 252 252 252 252 252 252 252 252 252 252 252 252 252 252 252 252 252 253 253 253 253 253 253 253 253 253 253 253 253 252 252 253 253 253 253 253 253 253 253 252 252 252 252 252 252 252 252 253 253 253 253 253 253 253 253 253 253 252 252 252 252 252 252 252 252 252 252 252 252 
246 246 246 246 247 247 247 247 247 247 247 247 247 248 248 248 248 248 248 248 248 249 249 249 249 249 249 249 249 249 250 250 250 250 250 250 250 250 251 251 251 251 251 251 251 251 251 251 251 251 252 252 252 252 252 252 251 251 252 252 252 252 253 253 252 252 252 252 252 252 252 251 252 252 253 253 253 253 253 253 253 253 253 253 253 253 252 252 252 252 253 253 253 253 253 253 253 253 252 252 252 252 252 253 253 253 253 253 253 253 253 253 253 253 253 253 252 252 252 252 252 252 252 252 252 252 252 252 
246 246 246 247 247 247 247 247 247 247 247 247 247 248 248 248 248 248 248 248 249 249 249 249 249 249 249 249 249 249 250 250 250 250 250 250 250 250 251 251 251 251 251 251 251 251 251 251 251 251 252 252 252 252 252 252 251 251 252 253 253 253 253 253 252 252 252 252 252 251 251 251 253 253 253 253 253 253 253 253 253 253 253 253 252 252 252 252 252 252 253 253 253 253 253 253 253 253 252 252 252 252 253 253 253 253 253 253 253 253 253 253 253 253 253 253 252 252 252 252 252 252 252 252 252 252 252 252 
246 246 246 246 247 247 247 248 247 247 248 248 248 248 248 248 248 248 248 248 249 249 249 249 249 249 249 250 248 250 250 250 250 249 251 252 250 250 253 250 252 252 251 249 254 251 252 250 252 250 251 252 249 252 254 252 254 251 252 230 204 188 170 240 253 250 255 252 255 254 255 255 252 250 255 254 250 255 251 254 253 253 253 253 253 253 253 253 253 253 253 253 253 253 253 253 253 253 253 253 253 253 253 253 253 253 253 253 253 253 253 253 253 253 253 253 253 253 252 252 252 252 252 252 252 252 252 252 
246 246 246 246 246 247 247 247 247 247 248 248 248 248 248 248 248 248 248 249 249 249 249 249 248 249 247 251 252 252 247 250 252 248 251 249 249 253 252 252 251 253 247 251 253 253 249 255 255 254 254 253 252 253 249 251 251 251 253 196 141 143 121 192 212 243 235 204 201 210 190 226 252 254 252 253 254 250 254 252 253 253 253 253 253 253 253 253 253 253 253 253 253 253 253 253 253 253 253 253 253 253 253 253 253 253 253 253 253 253 253 253 253 253 253 253 253 253 252 252 252 252 252 252 252 252 252 252 
246 246 246 246 246 247 247 247 247 247 248 248 248 248 248 248 248 248 248 249 249 249 249 249 249 249 251 250 250 249 251 252 248 252 254 252 252 249 251 250 249 250 249 255 241 217 189 171 204 208 226 253 252 250 253 253 255 220 191 162 96 147 139 133 142 179 124 69 74 101 101 189 239 250 251 252 252 255 253 253 253 253 253 253 253 253 253 253 253 253 253 253 253 253 253 253 253 253 253 253 253 253 253 253 253 253 253 253 253 253 253 253 253 253 253 253 253 253 253 252 253 253 252 252 252 252 252 252 
246 246 246 246 246 247 247 247 247 247 248 248 248 248 248 248 248 248 248 249 249 249 249 249 247 255 250 248 253 249 251 248 254 248 238 233 246 255 251 252 252 254 245 193 207 157 137 84 110 122 219 253 246 250 255 249 248 198 109 101 87 124 176 124 114 97 90 94 91 127 145 139 170 248 253 252 255 250 253 252 253 253 253 253 253 253 253 253 253 253 253 253 253 253 253 253 253 253 253 253 253 253 253 253 253 253 253 253 253 253 253 253 253 253 253 253 253 253 253 253 253 253 253 252 252 252 252 252 
246 246 246 246 247 247 247 247 247 248 248 248 248 248 248 248 249 249 249 249 249 249 249 250 254 247 248 250 248 251 251 247 241 222 109 80 202 218 242 214 243 250 212 132 124 186 144 45 138 148 165 164 205 254 231 247 221 164 133 129 72 121 150 76 86 76 82 84 99 117 105 76 141 241 255 251 254 254 253 255 253 253 253 253 253 253 253 253 253 253 253 253 253 253 253 253 253 253 253 253 253 253 253 253 253 253 253 253 253 253 253 253 253 253 253 253 253 253 253 253 253 253 253 253 252 252 252 252 
246 246 246 247 247 247 247 247 248 248 248 248 248 248 248 248 249 249 249 249 249 249 250 250 249 250 252 249 250 250 245 176 153 140 46 74 138 161 213 105 175 184 93 94 96 210 231 136 96 91 87 76 129 197 216 185 221 136 75 85 89 85 112 118 81 80 79 92 83 99 71 103 180 200 195 208 243 251 253 251 253 253 253 253 253 253 253 253 253 253 253 253 253 253 253 253 253 253 253 253 253 253 253 253 253 253 253 253 253 253 253 253 253 253 253 253 253 253 253 253 253 253 253 253 253 252 252 252 
246 246 247 247 247 247 247 247 248 248 248 248 248 248 248 248 249 249 249 249 249 250 250 250 250 251 250 250 248 253 229 99 122 65 73 94 82 96 95 95 126 78 75 69 133 229 253 221 94 49 78 72 78 62 145 119 124 132 90 63 74 47 85 95 76 73 80 68 69 73 85 124 124 83 85 138 175 251 255 253 253 253 253 253 253 253 253 253 253 253 253 253 253 253 253 253 253 253 253 253 253 253 253 253 253 253 253 253 253 253 253 253 253 253 253 253 253 253 253 253 253 253 253 253 253 252 252 252 
246 247 247 247 247 247 247 247 248 248 248 248 248 248 248 248 249 249 249 249 249 250 250 250 250 249 251 250 254 242 128 85 83 74 86 83 61 62 22 89 133 119 47 85 169 230 246 242 125 60 70 68 64 77 29 90 61 61 78 73 57 63 92 61 71 50 47 64 87 70 75 65 58 80 84 102 172 241 254 251 253 253 253 253 253 253 253 253 253 253 253 253 253 253 253 253 253 253 253 253 253 253 253 253 253 253 253 253 253 253 253 253 253 253 253 253 253 253 253 253 253 253 253 253 253 253 252 252 
246 247 247 245 249 247 250 247 246 251 247 249 248 249 246 249 250 248 248 251 251 249 250 249 250 249 251 250 221 207 155 90 55 45 64 85 60 39 94 144 146 87 78 101 191 236 245 251 156 73 91 84 89 85 67 55 39 45 52 61 54 60 105 115 103 115 96 79 98 76 61 86 77 67 99 125 199 248 255 252 244 201 253 253 253 253 252 253 252 253 254 253 251 252 253 252 255 252 252 253 253 252 252 255 253 253 255 252 255 253 252 253 251 253 253 253 254 253 254 253 254 254 251 254 253 254 254 252 
248 247 248 246 247 246 249 248 247 248 250 247 253 247 254 248 247 251 247 249 251 248 249 253 250 251 251 255 206 139 141 97 48 41 35 33 48 85 110 110 146 169 117 108 206 243 248 254 156 2 62 64 61 66 43 29 37 48 40 73 59 51 63 77 72 87 84 89 77 83 91 99 86 81 91 118 217 254 241 255 253 189 251 255 250 255 254 251 253 252 253 254 254 254 253 253 251 253 252 254 254 254 253 252 251 253 245 203 241 244 253 254 255 253 253 253 253 254 251 254 252 254 254 253 255 252 252 253 
247 245 250 249 248 253 250 249 249 247 245 248 247 247 249 248 248 251 249 250 249 249 252 250 250 252 230 183 187 139 34 42 52 64 40 52 80 97 84 69 57 83 91 128 212 247 249 255 170 19 51 43 51 63 67 76 78 68 68 61 75 51 46 38 46 39 44 76 74 76 78 88 114 82 122 119 142 179 173 232 226 184 250 254 251 252 255 253 253 254 253 253 253 253 253 254 255 253 251 255 249 255 253 251 254 225 206 142 173 215 204 206 217 249 254 255 250 254 252 253 252 250 255 250 253 255 254 252 
250 242 249 219 174 162 194 238 247 248 251 246 249 250 248 249 251 247 249 251 250 250 250 248 248 255 208 0 50 94 77 64 63 58 41 42 34 78 66 50 41 58 86 136 213 246 251 255 176 42 55 48 65 89 88 86 90 90 100 90 86 84 89 65 40 50 54 80 95 95 82 78 80 82 90 75 86 91 139 197 232 180 248 254 254 254 250 253 252 255 254 252 252 253 252 253 252 253 254 252 252 250 255 224 232 228 160 107 103 180 169 130 160 226 251 253 254 255 255 254 253 255 253 253 254 251 252 254 
199 135 159 132 48 74 100 165 245 250 251 251 249 248 245 247 246 248 252 248 247 250 249 251 250 240 198 147 63 13 35 46 30 21 33 30 87 52 40 43 47 63 94 143 216 243 254 255 185 39 55 47 40 55 55 53 40 48 71 73 67 74 74 68 50 47 58 82 65 67 67 39 63 85 79 78 82 83 92 145 254 199 250 254 253 254 251 254 253 252 252 253 255 255 253 252 255 252 250 253 252 255 242 164 143 173 161 73 76 109 112 85 66 199 209 247 247 224 219 198 208 247 247 251 252 251 255 251 
113 114 93 61 71 79 80 81 147 235 196 198 245 251 254 255 255 250 249 250 251 251 250 248 254 226 165 110 58 27 39 31 33 31 18 62 116 55 48 51 51 83 120 153 224 246 248 255 207 48 45 45 45 43 41 43 35 43 48 42 48 28 65 71 44 54 65 65 75 78 68 63 84 94 98 113 113 126 135 153 183 169 232 254 252 253 255 254 254 251 253 255 253 252 254 255 254 254 255 252 254 240 209 162 84 65 100 61 71 79 74 72 87 128 137 233 210 160 168 141 165 194 230 254 255 253 251 255 
90 112 108 87 97 88 81 68 96 126 127 132 176 186 212 214 208 245 250 249 251 246 250 251 252 255 250 157 63 19 19 36 46 53 45 67 53 38 48 52 50 84 123 167 225 244 249 255 226 70 45 49 52 50 46 42 48 38 40 48 42 44 60 58 42 58 65 53 80 78 69 81 85 88 98 102 103 120 91 92 110 117 212 255 253 255 252 251 254 252 254 254 250 251 254 251 248 206 200 220 229 236 143 142 116 84 69 76 43 60 36 73 93 82 125 185 168 121 124 84 140 136 178 199 229 252 252 252 
84 116 117 135 126 109 132 127 96 75 76 92 107 51 35 59 1 180 253 245 249 249 251 247 219 231 190 82 92 78 96 102 24 42 60 28 41 42 47 45 52 84 122 175 228 250 246 255 237 95 37 47 48 50 57 45 43 36 40 37 44 44 43 41 57 62 44 48 62 74 89 87 58 59 73 76 78 59 72 94 126 155 226 254 253 253 253 253 253 252 254 253 252 255 252 236 206 133 100 160 120 127 93 80 94 69 65 94 100 87 99 80 60 75 176 177 126 100 80 114 109 86 92 107 184 234 253 252 
79 95 98 132 122 129 121 112 99 101 111 128 93 90 87 94 72 130 246 254 250 247 251 235 171 90 34 0 41 67 75 63 49 80 34 49 46 46 44 63 62 90 127 176 230 247 245 255 245 115 34 50 50 38 41 48 41 42 41 37 37 40 40 38 65 60 40 49 60 51 55 52 56 67 67 64 66 80 94 99 105 113 164 198 244 254 254 253 251 254 252 254 252 239 211 161 110 84 65 63 73 63 60 69 62 70 56 62 103 130 125 89 80 110 118 99 80 88 94 106 85 86 101 133 164 219 254 253 
88 93 98 141 93 104 95 94 137 112 150 127 62 143 125 66 88 82 163 239 252 254 244 159 76 16 38 38 34 5 19 5 63 108 34 52 51 41 55 57 66 104 149 190 236 248 242 254 248 123 16 50 43 38 47 47 43 42 46 48 52 36 36 45 42 42 45 42 39 46 48 51 75 81 68 77 86 84 85 91 85 103 124 100 149 208 253 253 254 252 254 246 189 134 84 78 72 53 61 57 65 83 65 56 57 49 48 56 48 104 47 2 66 91 75 89 94 97 102 106 107 81 105 159 153 248 254 251 
127 133 109 79 93 84 141 150 124 91 143 102 99 93 78 85 137 190 87 97 155 175 130 76 2 41 33 28 30 40 34 36 28 62 50 34 37 52 64 55 70 120 175 206 240 248 240 254 249 126 3 47 42 41 39 40 41 36 43 40 46 41 51 43 45 47 42 50 49 55 51 52 67 60 58 64 73 65 84 73 74 97 152 196 210 241 251 253 253 255 213 123 96 94 81 74 62 51 62 57 58 65 59 55 53 51 43 19 110 83 86 96 47 75 70 63 65 77 78 77 73 82 77 92 156 229 222 251 
119 109 121 86 57 52 90 122 84 101 94 109 152 83 51 67 133 204 161 6 1 0 1 1 38 30 27 30 31 31 27 28 23 14 27 49 49 44 54 69 73 125 190 216 241 247 241 255 249 131 1 48 51 38 48 44 41 45 51 38 36 43 59 41 40 63 59 47 53 62 57 46 38 58 72 90 86 74 77 71 91 100 132 191 255 254 253 254 239 201 152 51 66 80 70 66 59 51 66 75 72 50 51 48 49 44 47 43 88 131 146 96 44 60 59 52 56 62 71 53 65 87 79 79 97 89 166 251 
89 95 128 118 70 63 64 60 60 75 51 109 114 88 100 140 179 231 226 161 98 41 47 39 22 29 29 32 38 37 49 60 94 111 69 42 52 44 57 65 74 122 194 222 242 246 244 254 254 146 1 61 44 44 44 49 44 45 46 47 44 37 41 43 45 49 54 54 41 104 79 49 81 77 73 94 96 91 75 66 69 95 83 149 250 254 249 255 238 96 91 151 169 110 49 67 58 47 63 72 56 48 48 46 42 46 47 40 56 119 100 1 58 54 50 45 50 62 73 61 63 74 60 72 67 69 156 200 
127 75 91 127 89 53 71 66 75 64 72 53 58 82 91 202 252 252 244 240 177 1 43 48 51 35 36 34 46 45 47 60 85 92 71 28 43 46 45 56 76 119 194 226 244 246 246 251 255 170 1 62 66 46 54 49 38 43 44 43 43 43 43 46 50 71 59 49 46 73 87 92 89 95 79 59 61 91 100 102 85 90 82 139 207 246 251 249 246 189 127 115 107 90 59 52 51 50 52 60 42 48 42 44 43 43 43 50 48 8 27 53 54 58 47 49 44 57 62 55 73 80 65 66 56 82 88 59 
97 88 69 72 87 73 78 67 79 102 110 59 67 88 48 135 212 220 202 184 137 102 46 50 51 38 30 34 50 45 50 62 42 1 16 41 42 44 40 67 78 120 196 227 246 245 246 251 255 186 0 58 61 50 40 41 38 40 46 42 43 39 42 53 51 65 60 48 55 65 71 87 66 58 52 58 57 97 102 90 106 105 115 143 154 215 243 248 165 150 138 108 83 59 59 47 48 52 40 53 51 50 45 45 44 43 46 51 48 61 53 57 57 50 40 44 40 53 47 49 59 72 64 73 53 68 64 81 
83 94 104 75 75 72 75 85 61 90 66 61 56 62 110 119 144 120 90 49 55 51 38 40 29 33 47 37 34 30 38 28 39 38 32 32 41 43 46 60 79 123 196 225 245 243 247 253 255 189 0 55 38 44 38 43 43 57 58 36 55 57 49 48 46 43 48 48 48 40 55 58 64 72 82 82 82 85 74 49 76 99 117 117 131 206 253 227 224 235 152 136 150 39 54 47 52 54 51 57 58 42 49 47 36 48 56 44 45 51 64 62 62 69 57 61 46 40 52 50 51 78 66 60 61 61 70 85 
106 85 67 59 81 80 75 83 65 54 67 75 51 139 162 90 95 102 82 83 71 31 43 40 41 39 46 32 28 34 27 30 35 32 28 34 38 49 49 54 78 134 192 230 246 243 249 253 254 195 2 47 48 40 41 40 50 41 36 38 48 55 67 51 43 52 44 42 39 43 48 40 49 55 58 65 85 64 54 52 55 88 105 97 98 167 221 200 196 184 110 51 50 48 51 48 58 50 52 53 40 46 47 44 42 56 67 52 38 55 55 60 61 74 74 85 77 44 43 47 49 70 46 64 70 61 69 81 
74 68 60 59 75 95 90 101 112 88 70 56 84 109 102 95 96 89 97 78 58 41 43 41 40 40 32 31 33 32 35 32 29 28 33 34 58 51 47 63 75 136 194 230 242 240 247 251 253 202 6 62 64 88 48 52 45 37 40 46 47 40 38 37 40 51 53 49 43 43 43 46 47 33 50 50 55 58 62 56 56 76 100 92 73 116 143 151 91 101 99 51 49 48 47 44 51 45 50 51 73 82 44 45 57 49 49 44 48 53 52 37 41 41 38 48 73 53 43 41 50 73 37 40 51 51 70 71 
105 110 91 100 92 80 84 72 83 92 94 88 80 76 83 96 90 82 65 48 22 48 53 47 62 53 38 30 31 29 28 35 34 32 37 29 66 71 60 58 81 143 199 233 240 239 247 251 254 194 51 59 48 44 50 73 44 48 43 39 44 40 45 47 45 51 44 37 48 56 42 45 59 51 65 99 65 53 67 57 65 74 109 111 69 102 104 64 66 131 93 31 49 43 44 42 44 48 51 57 70 63 44 55 57 47 55 48 60 62 50 43 40 36 41 49 50 45 43 45 48 71 44 34 42 49 58 60 
98 127 117 102 103 54 66 62 57 66 79 87 83 81 78 76 62 61 76 61 68 52 37 48 53 43 41 32 28 29 25 39 45 37 32 33 46 52 49 59 89 148 200 232 238 237 245 249 254 197 32 41 48 44 44 66 25 45 39 34 44 39 45 59 57 44 41 45 46 50 44 47 59 75 54 84 98 83 88 82 80 95 97 86 71 75 100 95 70 44 22 51 48 46 36 43 42 47 49 57 59 44 45 66 67 45 54 46 58 65 43 45 46 36 42 50 38 40 41 35 53 76 42 69 63 50 52 55 
112 92 121 131 105 95 72 41 64 68 83 74 105 80 59 54 85 88 86 72 89 84 42 36 32 33 35 36 34 33 37 43 41 48 36 40 50 66 55 46 88 151 200 231 237 237 244 248 254 192 27 44 49 57 43 60 75 53 36 44 41 40 41 39 40 41 44 45 38 43 46 44 46 48 66 74 66 91 70 91 85 101 111 99 72 69 83 82 66 53 52 55 50 40 44 38 50 48 48 62 61 53 56 52 51 41 56 58 44 33 42 55 43 41 42 42 41 37 46 44 46 76 83 101 121 71 39 72 
103 89 92 105 112 114 123 84 66 65 77 71 84 77 66 72 62 58 66 56 80 82 36 37 36 39 36 37 35 34 39 37 38 47 42 45 50 62 59 44 84 155 203 230 236 238 245 247 254 199 37 47 31 41 63 79 103 92 8 51 43 40 45 44 37 44 40 42 44 45 47 52 54 50 74 93 84 83 81 89 101 85 99 83 63 82 76 80 60 52 47 47 40 36 38 44 46 45 42 54 56 69 72 54 56 59 70 70 59 35 45 48 44 45 36 38 40 39 42 41 48 72 42 33 45 57 51 64 
66 102 102 78 93 93 102 121 114 80 59 60 72 98 78 87 75 60 71 73 74 69 67 43 35 35 34 32 31 33 33 34 39 41 43 46 45 45 46 44 91 160 202 230 237 237 241 247 254 194 30 55 113 86 89 93 76 96 64 29 42 40 53 47 40 44 43 41 36 42 47 44 43 47 51 81 84 80 86 83 79 65 89 66 64 81 68 78 62 60 50 41 47 46 42 41 46 46 38 37 50 76 55 56 51 52 45 33 38 38 37 36 38 41 37 46 37 40 38 36 46 69 39 39 44 54 62 54 
55 63 94 96 105 88 77 93 105 96 65 53 76 82 65 53 68 66 67 48 67 71 81 70 31 35 32 27 29 33 38 45 37 40 36 39 43 40 41 67 105 168 202 233 242 238 240 249 255 199 83 74 155 161 123 116 70 83 89 15 50 39 38 39 42 41 42 45 42 39 36 38 42 36 39 40 47 53 77 100 93 93 106 108 82 95 59 55 53 52 57 48 48 48 38 39 47 47 35 42 47 59 35 35 31 47 53 54 48 52 45 48 37 35 38 41 40 43 45 43 49 62 45 47 44 50 61 49 
69 50 42 67 78 95 81 62 60 78 75 69 58 42 43 37 34 51 56 45 51 41 56 65 38 29 29 30 31 31 37 40 41 36 33 32 44 54 60 82 130 178 212 236 245 244 245 249 254 209 130 128 185 199 177 146 87 49 86 51 35 35 39 41 38 39 39 39 39 44 44 42 52 55 43 34 47 34 41 57 66 80 107 102 85 81 56 38 51 49 43 44 42 38 40 36 45 49 36 44 42 56 38 41 40 53 56 49 46 49 48 49 44 37 37 40 42 49 46 46 64 73 39 41 42 50 65 66 
88 73 55 59 49 72 47 42 54 63 57 56 55 38 36 41 81 75 60 51 55 39 53 45 35 28 28 29 32 32 36 34 42 41 38 37 47 68 81 110 146 189 218 239 249 248 249 252 253 224 156 168 198 205 208 173 124 32 82 67 20 38 38 40 40 36 41 41 41 46 54 61 51 54 55 55 25 70 79 50 64 75 84 86 100 71 70 55 41 38 40 42 43 34 31 39 51 45 46 39 40 56 40 46 49 51 47 41 42 44 42 43 43 38 37 38 37 41 37 39 47 69 44 66 33 33 50 43 
48 69 76 52 21 27 31 38 38 28 32 18 50 32 30 39 54 63 69 55 31 36 29 26 35 32 31 28 28 32 41 44 40 40 36 52 65 69 93 111 154 197 226 245 250 248 249 253 255 225 175 182 191 209 208 162 137 69 61 68 16 39 34 34 38 41 41 41 46 52 44 40 41 42 54 55 70 81 71 54 61 86 81 73 74 64 72 54 43 40 39 42 53 78 74 42 52 54 36 37 43 58 43 54 45 47 43 39 39 39 38 41 41 38 37 37 39 44 44 49 46 59 85 126 118 102 93 85 
39 59 93 94 82 47 32 28 29 31 30 25 50 30 32 31 46 62 40 59 36 34 35 37 30 28 30 31 36 37 38 34 45 45 36 52 69 88 107 123 161 204 232 248 250 247 247 252 255 237 197 201 188 197 211 158 126 99 34 77 35 36 40 44 42 46 48 37 46 58 71 57 65 40 35 50 58 50 63 47 37 50 86 38 65 87 69 59 71 58 41 42 52 83 79 43 50 52 30 49 75 63 47 47 35 44 44 38 36 35 36 39 39 40 41 43 44 45 40 42 46 60 101 107 98 127 128 141 
57 29 59 93 96 86 54 26 29 27 28 29 51 38 36 30 45 62 31 41 32 34 32 30 35 30 28 28 33 34 35 32 44 50 37 60 79 103 116 144 174 210 235 249 251 250 250 252 255 240 215 214 193 182 202 179 112 115 43 71 47 35 45 45 44 66 53 49 54 75 79 73 58 37 38 54 30 34 63 57 55 47 90 77 60 64 81 72 80 86 71 68 33 13 56 46 47 54 44 42 55 61 46 35 35 43 41 35 34 32 34 35 39 39 36 37 39 42 39 40 49 70 40 87 111 99 100 104 
80 36 36 66 54 68 71 64 47 23 28 23 52 43 30 27 40 56 6 23 28 30 31 33 34 32 32 31 34 34 36 36 51 51 52 79 98 102 137 160 178 213 237 250 252 252 252 254 255 247 216 218 214 176 173 176 136 132 80 83 60 33 82 61 54 73 45 40 75 117 101 76 33 47 63 59 51 46 64 39 50 66 91 63 63 94 116 110 76 82 78 65 67 50 64 52 49 54 45 43 41 56 37 39 36 43 40 36 35 31 34 36 38 39 37 39 40 41 36 34 41 72 38 30 100 106 100 113 
56 55 42 45 33 43 53 55 38 33 27 29 50 38 26 22 42 62 14 32 28 28 30 33 33 32 30 29 35 38 38 35 53 50 64 79 109 118 162 173 183 217 241 253 253 252 252 255 253 245 230 222 225 199 157 158 141 136 105 95 88 19 62 53 44 61 52 14 69 101 89 57 41 44 47 58 32 23 68 49 29 48 80 19 60 94 111 102 83 84 78 64 59 50 64 50 49 50 40 36 44 57 41 37 33 43 41 38 36 32 36 37 38 38 36 37 37 40 39 36 42 69 40 52 31 77 102 81 
53 49 45 61 44 51 40 37 31 37 32 19 50 33 25 15 40 57 27 31 30 30 36 37 30 35 37 32 34 36 38 37 37 59 62 103 143 148 172 174 197 225 245 253 254 254 252 253 255 247 232 227 220 224 192 154 134 139 127 75 75 27 51 45 62 85 51 4 84 118 78 75 77 82 69 87 85 91 91 101 86 79 90 66 54 83 87 74 68 81 77 75 51 40 59 52 51 52 51 56 40 55 38 38 33 45 40 34 33 34 36 33 35 37 38 42 40 41 39 34 39 67 51 61 79 132 135 116 
42 51 60 59 33 40 34 39 32 33 28 17 50 35 25 17 41 57 20 33 22 20 25 35 33 34 27 36 41 40 44 14 84 129 103 135 138 176 195 197 206 228 246 253 255 254 252 253 255 249 237 231 216 213 213 194 141 124 141 66 67 41 39 43 71 60 35 34 55 111 114 115 105 91 94 116 108 89 94 113 99 106 101 83 57 90 112 40 51 62 48 57 31 2 59 46 49 53 61 63 70 60 30 35 25 35 42 29 33 32 36 33 34 34 40 42 41 39 34 32 40 68 55 64 97 81 93 115 
72 78 74 52 43 19 22 32 37 27 32 20 48 30 25 12 38 72 40 17 25 21 25 24 25 32 34 34 43 52 47 57 120 111 129 125 149 193 201 203 214 231 247 253 254 253 252 253 255 247 233 228 223 206 216 213 165 117 147 103 58 45 35 36 47 41 36 26 70 92 121 86 98 84 64 91 92 69 76 93 76 76 74 85 74 40 93 43 35 53 46 67 121 100 54 42 43 48 47 39 72 95 34 47 78 61 35 30 31 33 30 35 34 33 37 38 35 29 36 31 31 62 5 78 93 47 59 12 
55 45 45 41 28 21 18 25 21 23 24 11 49 30 14 12 44 60 27 22 26 25 25 25 24 28 24 32 54 35 36 79 88 83 125 134 156 185 211 217 223 234 247 254 253 252 252 252 254 244 232 226 224 199 200 209 176 95 133 133 77 50 38 48 40 41 46 29 58 75 98 82 64 76 42 42 62 75 98 76 54 55 1 36 67 66 97 49 34 42 56 81 47 109 60 31 47 61 41 37 52 122 67 3 32 61 43 29 32 30 31 29 34 33 37 36 32 36 15 40 61 91 75 1 1 4 27 40 
64 48 8 16 18 24 18 23 19 20 23 11 47 35 18 11 40 56 2 23 23 22 24 25 27 29 24 30 43 42 35 86 72 124 143 134 154 192 218 218 227 234 247 255 254 252 252 251 251 246 238 224 215 200 182 192 201 114 109 135 102 47 49 63 39 37 30 38 39 34 81 79 52 62 40 45 59 42 77 79 53 40 29 0 2 7 96 48 43 40 80 95 152 191 124 3 65 82 5 36 0 64 145 100 51 105 60 28 50 49 48 48 49 48 45 48 44 43 56 101 121 128 144 155 167 157 122 36 
98 76 2 31 26 23 24 22 23 21 27 10 48 31 18 11 39 55 10 25 24 25 25 23 25 26 32 29 37 45 55 87 81 133 146 148 163 192 221 220 227 233 245 255 254 253 252 249 249 247 240 218 203 195 176 177 198 150 99 121 113 52 57 55 35 39 42 43 41 35 51 55 35 41 37 48 54 44 66 54 49 51 2 36 158 131 85 37 0 114 118 115 209 248 203 41 41 91 51 11 58 40 98 101 93 125 135 1 1 1 2 1 0 0 1 0 1 1 1 50 88 114 118 159 170 178 142 125 
94 89 3 30 24 20 32 31 31 30 31 35 48 42 27 25 40 56 23 32 29 31 32 32 31 29 32 32 41 28 79 87 119 137 132 153 175 199 214 213 227 233 245 254 254 253 252 248 249 244 235 216 205 186 174 160 187 163 108 99 125 80 46 34 44 35 3 3 8 8 6 26 47 53 45 30 64 51 69 86 83 37 0 80 187 168 111 105 104 120 87 77 9 138 162 107 107 91 84 87 90 88 100 46 46 5 68 138 162 165 172 181 188 191 198 203 202 215 187 167 161 156 177 191 204 203 203 208 
107 94 38 2 34 43 2 1 1 1 3 1 24 6 1 4 12 40 1 3 1 1 2 1 2 8 17 32 44 55 94 99 138 133 141 170 176 201 209 216 230 236 246 253 253 253 252 248 250 243 237 229 218 191 182 165 182 178 156 126 153 134 95 104 108 112 106 103 104 104 116 125 131 146 137 137 141 142 129 143 107 1 7 76 29 0 124 142 140 117 99 88 32 85 124 126 144 116 83 87 68 112 151 11 78 76 42 187 254 248 251 250 247 247 249 246 248 247 248 247 244 192 212 195 193 173 170 157 
99 87 73 66 69 75 71 73 79 75 73 81 84 81 75 71 75 85 85 88 86 87 87 89 90 85 85 88 100 127 146 153 161 161 170 188 196 209 214 225 234 239 247 251 252 252 252 249 247 242 242 241 222 202 193 191 184 187 175 162 157 158 124 125 131 134 132 125 128 131 139 136 132 134 136 137 129 140 138 140 88 3 1 55 86 4 102 178 179 140 75 43 73 111 92 135 199 164 33 0 8 1 93 69 53 83 88 120 189 185 185 179 175 176 175 172 170 170 170 173 166 141 169 180 180 182 181 185 
151 153 156 167 168 156 150 150 138 131 129 132 133 129 126 129 126 120 126 130 134 134 133 131 135 146 148 156 169 182 202 216 215 213 212 214 216 223 226 232 240 243 250 254 254 255 254 252 250 246 249 246 234 216 205 208 193 186 176 162 150 154 145 155 152 131 112 111 116 116 113 108 113 122 124 130 127 136 127 134 110 2 25 1 100 143 63 175 195 141 24 70 63 84 105 130 203 172 2 7 13 2 33 88 39 34 50 99 151 149 150 150 147 153 159 161 167 163 164 172 171 136 179 180 172 186 193 196 
151 144 148 162 164 156 150 146 141 136 136 137 138 137 136 141 140 128 124 122 128 133 139 141 142 147 153 167 176 185 195 195 188 181 175 173 170 174 173 178 176 176 177 177 177 176 175 174 170 171 174 172 167 163 158 160 160 156 152 151 152 162 158 166 165 157 151 152 153 150 148 148 153 159 163 160 166 172 164 166 118 5 49 36 61 156 118 85 165 157 50 1 0 1 80 134 200 181 37 2 30 26 1 53 57 39 1 114 227 231 227 231 233 234 233 231 236 232 229 227 217 178 203 204 200 193 192 189 
127 133 131 129 133 130 132 138 140 135 137 139 144 146 147 148 151 151 151 144 145 147 153 161 174 180 190 194 185 177 172 167 155 152 152 156 158 165 164 166 168 170 172 175 179 180 179 178 183 186 190 189 189 191 188 187 191 193 193 198 200 205 200 202 200 200 203 206 209 208 210 211 214 216 218 217 222 219 227 209 74 6 30 40 4 187 219 123 239 232 65 15 60 27 49 163 246 229 57 1 59 97 0 36 50 47 77 141 212 213 211 202 201 196 189 181 183 180 171 160 153 150 141 148 153 152 152 146 
182 179 177 181 181 178 181 186 185 186 189 187 187 189 192 194 195 196 195 190 195 198 200 205 206 209 212 210 209 207 208 212 210 210 211 211 212 217 214 214 214 216 217 218 221 222 222 223 223 223 223 224 226 227 228 228 229 232 232 237 236 240 240 241 241 241 242 243 243 243 243 244 245 243 244 244 244 239 247 223 30 2 25 12 1 115 165 101 160 171 44 16 27 4 37 106 168 168 55 1 1 73 76 6 54 49 92 85 132 153 146 146 148 143 139 135 138 144 153 155 159 159 167 168 165 162 159 152 
191 194 193 192 190 191 192 187 193 193 196 198 199 201 196 191 196 197 197 194 202 203 199 198 196 197 200 201 202 203 204 209 207 207 207 206 202 201 198 200 199 201 203 203 202 203 205 208 211 209 208 210 213 214 215 217 219 220 218 222 222 224 226 226 227 229 231 232 231 231 233 234 238 237 240 238 241 242 234 231 134 1 45 46 4 88 169 133 127 150 79 4 83 100 58 153 157 156 71 3 60 117 100 0 93 97 34 133 143 159 154 152 158 152 151 153 153 148 146 143 144 142 142 149 140 120 116 126 
135 143 145 145 145 140 143 152 149 150 154 157 163 165 158 153 151 159 168 168 171 168 166 166 165 166 170 172 168 168 176 180 186 185 189 194 193 194 194 201 202 204 207 209 207 209 211 213 211 213 213 213 215 216 216 214 217 217 218 220 219 220 222 223 221 221 222 223 224 224 225 227 224 224 226 228 228 232 227 232 225 111 1 33 46 78 223 235 232 233 171 57 138 147 31 167 232 233 191 2 137 167 76 1 90 164 113 209 202 202 194 197 191 179 173 173 171 158 150 143 138 105 110 124 103 87 79 105 
115 119 121 122 119 120 122 117 118 120 124 123 122 125 127 130 130 130 134 130 132 130 130 132 138 137 136 140 140 139 145 147 145 144 146 152 154 161 165 173 178 177 181 183 182 186 193 194 202 206 207 211 213 213 217 216 215 214 217 216 214 214 216 218 219 218 217 220 223 224 224 225 224 225 223 228 224 224 227 227 231 125 2 96 34 26 211 235 229 240 169 30 110 115 30 170 240 235 234 86 115 168 59 52 87 182 156 243 243 242 242 243 243 241 242 242 241 235 237 239 233 230 231 226 224 216 215 213 
124 126 123 126 132 132 130 130 132 129 129 129 131 134 132 132 131 132 134 131 133 132 132 135 137 141 134 139 144 141 143 146 145 146 145 144 141 145 142 142 137 135 141 143 140 141 145 141 143 146 148 155 161 168 179 185 198 196 205 208 213 217 216 214 215 214 215 218 219 219 218 221 222 224 225 224 226 226 223 229 224 92 1 169 58 10 213 233 227 235 160 1 61 117 117 198 236 227 236 122 77 136 57 113 126 163 83 212 238 230 234 234 233 235 237 235 237 237 241 241 242 244 244 246 248 246 250 248 
143 142 146 147 150 147 148 151 147 144 147 146 150 146 148 148 148 148 142 144 142 143 146 140 140 146 143 140 146 151 146 144 145 148 150 151 152 154 153 151 152 151 151 153 148 153 156 154 150 146 152 150 146 142 145 156 163 157 176 186 189 198 202 210 207 208 214 214 214 217 214 216 218 216 220 220 223 223 223 222 226 117 1 145 48 82 219 229 224 235 194 1 76 93 60 197 238 234 234 99 123 106 49 80 139 167 84 215 238 232 235 233 234 236 236 235 236 237 236 233 233 233 233 234 237 238 237 237 
146 143 151 151 148 149 151 150 152 151 153 148 163 160 159 155 154 161 158 161 159 158 158 159 160 160 159 159 158 156 157 161 160 160 160 163 161 162 159 159 160 156 154 165 157 161 158 163 166 163 165 170 174 170 176 174 175 175 171 173 168 162 168 163 169 181 181 193 201 206 211 217 218 212 218 214 216 219 218 220 225 154 23 93 70 6 199 230 221 228 218 101 132 100 71 148 237 227 230 91 109 122 35 6 41 131 224 229 236 234 233 232 234 235 233 226 219 218 219 220 219 220 221 223 227 230 230 231 
143 143 147 150 148 146 151 147 147 147 154 151 153 154 158 151 153 157 159 160 164 157 154 160 162 160 160 159 157 159 163 167 166 164 165 166 162 163 160 166 162 157 161 165 164 155 157 162 160 151 159 168 163 162 176 167 173 171 168 164 155 155 152 139 154 156 156 167 162 173 180 179 192 209 213 220 220 219 216 218 223 154 84 106 68 2 191 235 226 225 230 123 121 78 28 114 229 226 236 121 148 162 24 79 1 86 234 235 230 233 232 236 233 235 235 232 231 233 235 236 237 237 236 235 235 233 232 232 
147 142 145 147 153 147 144 151 149 149 153 159 151 156 155 152 155 157 161 154 161 153 151 155 155 155 155 154 152 156 160 156 156 163 171 163 164 171 168 166 167 167 163 163 165 173 167 158 157 150 157 165 161 161 152 149 142 144 159 155 150 157 158 166 160 163 164 152 157 158 171 185 157 156 158 183 204 210 213 217 227 131 116 111 73 23 190 224 220 223 221 72 56 40 130 212 227 225 232 154 158 152 14 127 57 95 223 238 233 232 234 232 235 235 235 235 236 237 235 233 234 235 236 236 237 236 236 238 
150 150 159 145 152 162 152 154 153 153 148 159 161 161 152 156 148 152 159 157 161 163 158 159 158 162 159 160 161 159 160 161 160 159 168 160 165 163 165 166 168 163 160 166 170 170 168 169 168 160 148 153 148 154 143 152 154 153 158 159 154 153 153 155 152 154 166 161 150 155 149 216 197 158 149 139 149 186 211 209 218 145 71 87 99 62 181 228 218 226 222 169 146 99 193 241 225 227 236 182 59 72 28 106 134 202 234 232 229 235 236 234 233 235 236 235 235 235 236 236 236 237 237 237 237 236 236 238 
154 149 151 149 149 145 145 148 159 152 155 158 161 155 159 164 155 151 150 165 163 164 151 154 156 158 153 156 157 148 151 163 162 158 163 158 157 145 148 155 164 169 180 173 169 160 162 157 164 163 148 158 154 158 153 160 152 156 151 140 133 138 146 137 151 153 151 145 153 167 190 207 190 149 157 166 140 171 203 208 218 145 3 62 102 11 181 226 217 222 220 232 214 127 198 229 226 225 232 195 63 42 70 115 159 227 231 234 235 230 233 234 232 234 235 235 233 233 234 236 234 234 234 235 235 233 233 235 
146 142 139 143 147 144 149 152 157 146 156 152 145 139 156 158 156 148 143 156 159 156 146 149 156 161 157 157 157 150 151 159 156 167 172 171 171 173 170 172 175 166 158 152 146 149 151 151 161 166 149 153 163 163 156 160 153 155 154 144 144 157 158 152 149 152 162 176 193 210 200 177 165 145 149 164 142 178 205 210 222 168 96 1 111 46 175 229 225 227 231 233 223 157 202 234 229 228 244 171 60 141 170 178 150 223 231 229 230 233 236 233 231 232 233 233 233 233 233 233 236 236 235 237 238 236 235 238 
164 153 156 150 158 160 149 163 165 155 159 159 152 154 163 160 155 158 160 148 156 155 161 157 152 163 163 163 165 163 162 159 159 160 151 163 163 164 155 160 163 149 146 145 156 161 169 164 168 165 162 152 153 155 153 157 155 158 165 160 153 157 167 182 182 176 204 200 182 187 165 165 159 159 159 154 173 201 209 209 221 182 160 129 135 1 162 225 207 198 191 194 191 185 222 221 215 213 207 150 19 124 156 149 192 226 231 232 235 234 232 233 232 233 233 233 233 232 233 234 235 234 233 235 236 234 233 236 
156 146 149 154 152 147 156 160 163 161 161 166 166 153 155 165 160 164 158 163 163 157 160 158 167 163 160 171 181 163 145 161 161 161 153 159 162 156 152 161 170 163 162 160 157 163 167 152 145 154 150 149 136 147 161 163 159 150 154 155 175 177 185 186 204 191 156 155 150 130 141 148 157 167 175 193 215 221 216 218 224 186 150 161 165 104 165 185 188 191 202 208 213 223 215 190 196 200 196 215 186 159 214 185 225 228 232 233 232 231 231 231 233 233 233 234 233 233 233 232 233 233 234 233 232 232 233 234 
144 150 151 149 154 157 157 157 160 161 159 155 158 161 145 156 161 160 160 162 159 158 161 156 162 157 162 160 149 138 122 159 164 156 157 161 168 166 169 168 160 165 164 150 141 151 157 160 157 152 146 141 147 142 154 149 168 177 185 205 212 213 194 181 185 169 99 108 143 137 167 190 200 210 220 220 219 221 222 220 223 211 133 178 213 146 211 230 229 236 235 234 238 231 225 231 227 217 199 181 158 168 223 221 231 231 231 230 229 229 230 232 232 232 232 232 232 233 233 233 233 232 233 234 236 236 235 233 
152 150 147 157 160 166 155 145 148 160 146 154 157 147 172 165 160 166 163 161 157 158 159 145 145 157 160 156 161 156 157 164 165 163 162 164 158 153 161 145 150 153 155 162 163 155 161 159 162 153 157 155 178 202 197 196 205 200 185 184 182 187 135 119 158 150 154 170 194 210 218 221 222 223 225 227 224 221 221 220 213 211 137 167 214 196 222 229 222 215 204 197 185 163 155 165 152 156 174 186 199 220 231 227 227 228 228 228 229 229 230 231 230 230 229 229 230 230 231 232 232 234 235 233 230 228 229 230 
145 140 149 153 152 153 159 152 146 150 157 151 161 152 153 154 161 163 153 155 154 144 148 152 166 165 170 151 166 156 165 158 155 160 151 157 157 158 161 156 162 160 159 160 161 168 176 174 180 202 200 200 187 194 199 182 167 154 145 101 135 144 156 170 190 203 209 213 212 215 218 213 207 200 178 175 189 175 153 155 172 177 185 202 214 226 223 225 215 200 196 199 197 199 210 218 221 229 233 236 230 229 226 229 226 226 227 229 230 230 229 228 232 232 231 231 231 231 232 232 232 231 230 230 230 230 230 230 
159 147 154 142 155 145 153 139 144 149 146 152 154 151 153 157 159 162 159 158 163 163 156 157 156 155 163 155 158 148 141 143 143 157 162 153 152 155 156 183 182 186 188 201 204 208 200 197 170 154 144 154 116 101 142 97 131 151 161 161 190 197 209 216 220 214 215 219 219 215 201 184 181 179 181 186 191 199 209 217 223 228 227 226 227 227 223 228 229 228 230 232 231 229 227 226 226 232 224 227 225 228 228 226 229 228 227 228 229 230 230 229 229 229 230 230 230 229 229 229 227 228 229 230 231 231 231 230 
145 136 146 149 150 147 157 152 157 149 150 164 156 146 152 152 158 150 160 154 156 164 156 164 155 148 150 151 162 146 152 152 156 159 169 169 182 199 206 207 202 198 181 169 186 177 175 168 120 119 81 142 128 116 161 168 187 200 210 215 217 216 218 217 218 218 220 219 221 220 220 225 224 227 228 228 230 229 225 225 221 224 223 225 225 223 231 225 223 225 224 223 224 226 227 228 226 229 225 228 225 228 227 226 229 228 226 226 228 229 229 229 225 226 226 227 227 227 227 227 228 230 232 231 229 228 229 231 
155 147 153 166 153 158 164 165 170 156 155 156 155 153 148 148 148 142 146 134 141 159 148 147 156 149 135 152 150 165 172 188 191 204 207 209 193 174 180 157 129 113 118 101 136 124 130 144 115 144 144 165 186 198 211 215 217 212 219 216 216 219 218 219 219 221 225 221 222 224 220 221 220 218 219 221 221 222 223 223 228 222 224 223 227 223 219 223 224 223 226 228 226 226 226 222 227 224 225 228 226 226 226 230 228 228 227 227 227 227 226 225 227 227 227 227 227 228 228 228 231 230 228 228 230 231 232 231 
153 153 155 155 155 153 150 144 140 144 131 136 122 142 154 142 140 150 144 131 129 131 135 146 166 178 187 190 199 210 210 199 198 200 170 177 163 131 132 130 136 129 124 111 138 152 169 182 191 203 210 218 218 218 216 215 216 217 215 219 220 221 219 219 218 218 215 215 218 217 221 218 221 222 223 224 223 224 225 224 223 221 225 222 223 225 224 226 225 227 225 223 224 224 224 226 225 224 227 227 224 224 226 227 226 226 226 227 228 228 228 227 227 227 226 225 225 225 225 226 222 224 225 226 226 226 227 228 
137 129 136 134 146 150 140 139 137 140 142 142 133 142 152 148 152 160 171 179 193 205 207 200 188 184 175 159 136 121 118 131 158 160 130 100 128 119 114 130 158 167 180 193 205 211 215 216 216 217 216 216 215 215 214 214 216 215 214 213 212 213 214 216 215 216 218 219 220 221 223 224 224 222 222 223 223 222 223 223 224 224 224 225 226 225 224 226 225 224 225 224 226 224 225 225 227 226 226 228 228 226 226 227 229 228 229 230 229 227 228 229 230 231 230 230 229 229 229 228 233 233 232 233 235 233 231 231 
142 144 149 144 141 157 140 134 155 158 154 154 163 170 173 198 220 223 226 222 220 213 207 179 129 107 138 136 108 103 91 106 120 132 145 147 166 174 191 203 208 210 211 212 213 212 212 213 213 213 213 213 213 213 213 212 212 212 213 214 214 216 218 220 221 221 221 221 221 221 221 222 223 221 221 222 222 222 222 223 223 223 222 222 223 222 222 223 223 223 225 224 227 225 226 225 227 226 226 228 228 226 226 228 226 226 228 229 228 227 227 228 228 228 229 230 232 232 231 229 232 232 230 225 218 213 212 214 
135 139 140 149 149 166 174 172 185 196 201 201 201 203 185 158 191 187 167 169 167 158 145 105 91 116 142 150 147 153 162 177 191 197 208 210 212 212 212 209 211 211 210 209 210 211 213 215 211 211 212 213 213 213 214 214 214 215 216 217 218 218 219 220 220 220 219 219 219 220 219 219 220 219 219 220 221 221 221 221 219 219 218 218 219 218 218 219 223 223 225 224 226 223 223 222 223 221 221 222 223 222 223 225 222 222 222 222 222 223 225 227 226 224 224 225 227 228 228 228 225 224 223 222 220 218 219 221 
187 191 197 191 195 192 191 194 184 160 149 160 158 157 141 114 167 130 80 118 134 131 129 138 135 164 182 197 205 207 208 210 208 211 208 206 206 210 210 211 209 210 209 209 209 208 208 210 212 212 212 214 215 215 215 216 218 218 218 218 217 217 217 217 219 219 218 218 219 220 220 219 219 219 219 220 221 221 221 222 218 220 221 222 225 225 226 227 225 225 226 224 226 224 224 221 224 224 223 224 225 225 226 226 223 223 223 223 223 224 226 228 228 227 226 226 226 226 226 227 231 229 229 230 230 229 228 226 
209 207 203 201 201 146 137 138 122 134 126 123 153 160 118 92 135 154 135 166 185 200 200 211 210 204 203 205 204 206 203 205 203 204 206 209 205 208 206 203 207 207 206 206 207 207 207 211 212 212 212 214 215 215 215 216 216 216 215 215 215 215 216 216 217 217 215 214 214 215 215 214 214 216 215 215 217 217 217 218 220 222 223 223 223 221 219 219 219 219 220 218 221 221 222 220 220 220 220 223 224 223 223 223 223 225 227 228 228 227 227 228 229 230 231 230 227 224 224 226 227 228 231 234 232 231 232 232 
