P2
128 91
255
240 237 233 233 236 236 233 229 226 223 219 214 210 208 207 207 205 206 207 210 211 209 205 200 200 203 207 208 210 216 227 236 219 220 221 223 224 224 223 223 231 231 230 228 225 222 219 217 229 235 241 243 242 239 239 240 248 245 241 237 233 231 230 230 233 234 235 237 238 238 238 238 235 233 229 225 225 226 229 231 238 242 248 254 254 254 254 254 254 254 254 254 254 254 254 254 255 255 254 252 252 252 252 252 242 243 244 245 247 249 252 253 250 253 255 254 248 241 238 237 245 246 246 245 243 243 244 246 
223 223 223 221 218 216 214 214 208 208 207 205 202 199 195 194 190 188 185 184 186 191 195 199 196 199 202 203 204 209 219 227 225 225 226 227 228 229 230 230 235 235 235 236 236 235 233 232 231 233 235 235 233 229 226 225 226 229 235 239 239 237 232 228 230 230 229 229 227 226 224 223 229 227 225 224 224 227 229 231 232 234 237 241 244 247 249 249 246 249 251 252 253 252 251 250 253 253 254 254 255 255 255 255 250 250 250 250 250 251 251 252 251 253 253 250 243 237 235 234 238 239 239 238 236 236 238 240 
209 213 215 211 204 199 198 200 196 197 198 197 194 189 184 181 178 179 179 179 181 188 197 206 198 201 203 203 203 207 214 221 226 226 226 227 228 230 231 232 227 227 228 228 229 228 228 228 231 229 227 226 224 222 218 215 212 218 226 234 237 235 230 227 228 227 227 225 223 221 219 217 227 227 226 226 226 227 228 229 222 222 222 223 226 230 234 236 235 238 243 247 250 250 249 248 249 250 252 253 254 254 253 252 252 252 251 251 251 251 251 251 252 252 250 246 240 235 233 232 231 232 232 231 230 230 232 234 
207 209 209 206 200 194 192 191 191 190 187 184 181 179 177 176 178 185 194 198 200 201 208 213 211 213 214 214 213 215 220 224 223 223 223 223 224 225 227 228 233 233 233 232 232 232 232 232 229 225 222 221 223 224 221 218 220 221 223 224 226 227 228 228 229 229 230 230 230 229 228 228 222 222 221 221 219 218 217 216 225 224 222 222 222 224 226 228 226 229 233 238 243 246 248 248 251 252 253 254 253 250 248 246 245 246 247 248 250 251 251 251 249 250 250 248 244 239 236 233 229 230 230 229 228 227 229 231 
213 210 207 205 204 200 195 190 186 182 177 172 172 175 180 184 189 198 208 214 214 213 216 219 226 227 227 226 225 226 228 229 223 223 223 223 223 224 224 225 230 229 229 229 229 229 230 231 229 226 222 223 226 227 226 224 230 228 226 224 224 226 228 230 229 230 231 232 233 234 233 233 232 233 233 233 233 231 230 229 238 238 237 236 235 233 231 231 226 226 228 230 234 238 242 245 252 253 254 255 253 251 248 246 242 244 246 248 249 250 250 250 246 248 250 251 250 246 241 237 229 230 230 228 226 226 227 229 
221 216 211 210 211 210 205 200 190 186 182 180 183 191 200 206 210 214 218 219 219 221 225 229 232 231 231 231 230 230 229 229 227 227 227 227 227 225 224 223 216 216 215 216 218 220 222 223 227 225 223 222 222 222 222 220 225 226 227 228 229 228 227 227 226 226 227 227 227 226 225 224 231 233 234 236 238 239 239 239 237 238 240 240 240 238 235 233 232 231 229 228 229 233 236 239 244 245 246 247 247 246 245 244 246 247 249 250 251 250 249 249 246 247 249 251 252 249 245 241 229 230 229 227 224 223 224 226 
217 214 210 207 206 206 206 205 201 200 201 202 207 212 218 222 224 223 223 224 226 228 231 233 229 229 229 229 228 227 225 223 225 226 227 227 226 222 219 216 215 215 215 216 217 219 221 223 216 217 217 215 213 211 211 212 215 217 220 222 223 222 220 219 220 220 220 220 219 217 216 215 208 209 211 213 215 217 219 220 221 223 227 231 234 235 235 235 237 236 236 236 237 239 241 243 242 242 242 242 242 242 242 242 244 245 248 250 252 252 251 250 249 247 245 245 246 246 244 242 233 233 232 229 225 223 223 225 
201 202 200 196 191 191 195 200 206 209 213 217 220 221 221 220 222 223 225 228 230 231 229 227 226 226 226 226 226 224 221 219 220 222 222 223 220 216 211 207 205 204 203 201 201 202 203 204 202 206 209 208 205 203 204 206 210 210 209 209 210 210 212 212 216 216 216 217 216 215 214 214 213 213 213 214 215 217 219 220 211 213 218 224 230 235 239 241 238 239 242 245 248 250 252 252 253 252 250 248 246 245 245 245 237 240 244 249 252 253 254 254 253 247 241 239 240 242 242 241 237 237 235 232 228 225 225 226 
198 200 201 202 203 205 209 212 221 222 225 227 227 227 225 224 229 231 229 221 218 218 219 218 222 221 221 221 221 220 218 216 211 207 211 209 198 197 200 196 193 194 195 194 191 190 191 192 199 184 187 189 182 190 196 182 195 186 186 198 202 197 199 208 202 202 205 210 209 206 209 215 213 212 212 212 213 214 215 216 213 216 216 216 220 226 226 221 231 233 236 239 242 244 246 246 248 249 248 245 240 239 241 245 244 245 246 245 245 246 250 253 253 253 251 247 241 237 235 235 235 236 236 236 234 232 229 228 
184 189 195 200 203 205 208 210 215 213 211 211 213 217 222 225 215 219 221 217 214 215 215 212 208 209 210 211 211 209 206 204 200 191 188 187 185 188 191 186 177 177 176 175 174 172 170 169 172 173 182 188 184 186 188 182 184 193 194 185 185 195 198 192 195 195 197 200 202 203 205 208 206 206 207 208 210 211 213 214 213 205 204 211 215 213 213 217 212 214 216 218 220 222 222 223 229 230 231 232 234 235 237 238 248 249 248 245 242 241 242 244 240 241 241 239 238 237 239 240 233 233 233 231 229 227 225 223 
181 188 198 207 212 214 215 215 206 204 201 200 200 203 207 210 211 217 220 217 214 213 210 206 201 201 201 199 195 190 186 183 189 186 182 179 175 174 175 174 178 178 179 182 184 186 186 185 185 198 203 200 197 192 194 206 188 200 203 195 193 201 202 195 199 200 200 199 199 202 203 202 198 198 197 195 194 192 191 191 201 198 195 198 202 205 206 206 204 205 206 208 210 211 213 213 218 218 219 222 226 229 229 229 245 247 248 248 248 250 252 255 245 245 243 239 234 231 232 233 232 231 231 230 229 228 227 227 
189 196 206 213 217 218 218 218 206 206 205 203 199 194 190 187 194 199 201 197 193 192 190 186 175 177 178 179 179 179 180 182 173 183 189 192 196 197 199 206 208 212 216 217 217 217 220 223 211 223 212 193 185 177 186 217 225 215 215 225 227 218 215 220 217 221 221 215 212 212 213 213 215 215 214 212 210 208 207 205 199 207 205 196 197 206 205 193 205 204 204 204 206 209 212 214 209 210 212 213 215 219 224 228 227 229 233 236 238 241 245 248 255 253 249 242 235 230 229 230 228 228 228 228 229 229 230 231 
198 201 206 209 209 208 208 209 207 206 204 199 194 187 181 177 170 175 177 175 174 177 178 176 180 182 185 188 193 200 209 215 201 201 190 191 210 212 201 203 202 208 213 211 203 197 199 204 219 224 204 181 172 163 178 215 194 173 162 173 187 190 191 195 195 195 195 193 189 189 195 202 206 208 210 213 216 217 218 218 218 217 220 225 222 214 212 216 211 210 207 206 206 209 212 214 203 206 208 207 205 209 219 227 227 229 231 233 233 233 235 237 243 244 243 241 238 237 237 239 227 227 227 227 227 227 227 227 
204 205 206 204 201 198 198 198 196 192 187 181 178 177 178 179 182 188 191 190 192 197 201 200 211 210 206 200 193 191 194 198 205 189 154 150 182 188 168 162 169 176 183 183 177 173 176 182 171 169 159 148 143 138 151 176 140 131 118 119 148 184 196 188 166 150 142 146 150 151 162 177 170 172 174 176 178 178 177 177 186 167 178 210 209 180 186 220 218 218 219 219 220 220 219 218 216 217 214 209 204 205 211 216 221 224 227 228 229 229 231 233 230 231 233 234 233 233 235 235 233 233 234 233 232 230 227 226 
203 205 205 202 198 194 192 191 186 184 181 179 179 182 186 188 195 201 203 200 197 197 195 192 188 187 182 172 158 149 146 146 149 147 122 122 157 166 153 160 151 156 163 170 175 178 181 182 157 145 145 152 148 147 157 164 141 139 135 143 174 207 215 204 181 140 111 117 128 128 138 157 159 160 159 158 155 151 147 144 138 126 137 160 153 129 140 176 181 187 197 206 210 208 205 202 209 206 204 205 208 211 210 209 204 207 210 212 211 211 212 214 219 222 225 226 225 224 223 223 228 230 233 235 234 232 229 226 
196 198 200 198 194 189 186 185 187 190 193 197 199 200 200 200 177 182 181 173 163 154 145 137 143 148 154 154 151 148 150 153 137 159 151 142 155 145 135 156 128 128 130 141 152 158 156 152 121 98 102 115 110 113 123 118 122 112 117 142 161 159 149 145 193 130 82 85 98 96 102 120 154 154 154 153 150 147 143 140 165 175 177 162 141 133 142 154 116 128 147 164 173 172 167 162 174 171 174 188 209 221 220 214 221 223 223 220 215 210 208 207 206 211 216 220 222 222 222 221 212 216 221 226 229 228 225 223 
191 184 192 194 199 194 184 208 205 179 180 154 172 169 160 146 147 164 155 135 142 153 136 109 122 146 165 156 142 144 134 105 101 109 131 129 99 90 95 84 92 90 91 92 92 99 118 138 124 111 85 81 99 92 78 84 80 74 72 151 167 162 168 163 182 139 86 112 96 92 109 101 141 106 109 115 104 135 152 111 143 160 170 160 136 124 132 148 84 130 135 140 175 166 140 156 150 151 145 153 177 187 180 177 180 194 191 209 220 210 213 215 207 206 210 214 211 206 211 221 218 219 214 217 223 217 213 223 
211 195 195 196 198 186 158 163 153 129 139 123 143 155 151 128 143 163 155 126 115 117 113 109 99 123 141 129 107 103 102 91 101 94 92 78 61 73 88 78 76 93 110 113 106 102 109 119 97 108 120 122 105 74 60 73 85 80 79 158 174 167 173 167 195 146 70 89 95 105 119 108 111 112 118 115 105 108 103 83 89 102 111 101 83 77 88 103 94 104 114 139 169 171 158 155 164 180 180 165 157 151 141 135 130 143 143 168 186 182 195 206 214 218 214 205 206 214 210 198 199 210 213 214 222 224 219 218 
182 168 168 154 138 127 123 146 135 100 122 121 116 124 141 139 114 127 119 99 92 94 102 115 107 121 133 128 114 102 97 95 102 96 102 106 97 95 101 99 97 95 88 85 90 97 91 78 81 79 94 103 82 56 53 62 92 88 87 164 180 173 175 168 180 144 70 91 104 103 100 93 76 92 83 75 88 94 92 99 72 77 80 78 72 69 69 72 88 74 84 95 86 91 112 120 149 148 137 131 151 178 185 176 144 143 125 136 145 137 159 182 194 175 173 196 210 204 202 211 204 211 208 200 204 216 217 212 
137 129 142 130 108 105 121 156 160 99 111 125 98 82 88 92 96 101 102 110 123 117 104 104 82 78 75 85 98 100 96 100 90 81 91 107 95 70 68 83 87 85 77 75 89 102 89 64 93 73 79 91 74 64 74 78 91 87 89 168 182 173 175 167 193 139 49 79 108 102 95 101 112 106 82 70 84 95 94 97 90 92 97 104 107 103 91 80 77 72 76 72 57 69 102 123 95 103 115 115 113 136 173 199 177 169 147 152 151 130 143 165 142 127 135 167 184 180 188 210 206 203 204 205 203 208 214 212 
132 123 153 165 152 144 137 144 140 85 92 105 83 87 82 69 80 73 65 76 98 99 93 97 77 67 51 56 72 66 57 67 85 85 82 84 89 91 94 102 93 102 94 73 63 71 78 77 76 68 83 91 69 59 69 72 78 77 80 164 182 174 177 169 212 123 9 44 85 83 89 112 130 114 110 109 107 113 112 95 92 103 116 119 114 106 102 102 92 97 81 67 74 79 80 87 104 104 130 153 145 139 148 154 145 151 147 168 173 152 155 166 116 145 157 142 140 160 170 162 175 164 182 207 202 192 199 206 
128 125 166 176 147 128 119 122 102 94 99 75 34 69 90 95 84 85 81 78 70 41 13 8 47 65 75 89 100 76 54 65 47 77 79 66 88 108 83 44 61 68 66 55 48 53 58 58 49 45 50 55 53 54 53 46 64 64 73 160 182 177 180 174 194 128 49 89 93 62 65 93 73 65 79 87 79 85 93 82 89 106 118 108 87 76 88 105 107 119 111 101 109 107 107 124 106 80 94 132 144 139 119 87 105 115 108 127 141 133 142 149 131 162 176 159 142 146 149 144 144 121 139 167 153 142 163 182 
104 98 137 138 95 82 94 111 93 107 112 76 14 31 48 76 95 86 64 57 73 95 125 153 170 190 188 179 166 113 62 58 63 103 106 84 93 95 54 10 18 31 54 76 88 84 69 55 60 64 56 51 65 75 66 56 62 65 74 162 184 178 181 172 187 146 93 126 99 57 57 65 78 80 74 70 78 75 68 73 82 86 87 82 76 77 87 97 120 116 134 146 118 85 82 91 124 125 145 141 105 96 99 80 79 85 68 74 86 88 97 98 115 126 148 166 160 142 139 149 121 103 125 146 123 117 145 162 
89 68 98 108 84 87 100 109 77 81 97 117 87 76 49 72 63 80 100 132 172 195 199 204 185 188 160 141 143 112 74 76 74 94 85 69 73 75 79 96 113 112 109 100 86 80 90 106 64 102 107 89 83 79 69 72 70 72 81 166 186 177 177 168 199 124 36 51 41 41 53 38 27 38 13 11 49 38 4 12 57 45 39 56 86 104 102 92 51 34 108 198 195 168 160 141 142 152 167 136 83 78 82 50 40 57 50 58 72 69 64 49 58 83 113 133 145 149 142 131 98 103 149 177 153 145 162 161 
107 111 121 145 130 101 103 97 86 94 97 105 100 72 75 118 151 172 199 200 196 192 169 153 116 115 88 74 91 87 75 85 99 99 102 68 93 125 102 132 148 163 138 123 119 88 142 141 136 156 146 154 163 161 153 113 87 108 176 183 182 172 184 172 212 171 139 150 152 163 144 151 159 172 174 156 139 138 143 145 108 122 113 98 109 124 121 112 135 77 109 173 152 185 193 180 211 197 208 189 180 153 150 132 106 84 29 2 32 60 51 39 41 62 74 82 104 148 121 136 161 135 151 179 166 155 170 177 
137 131 125 138 126 113 131 134 77 77 68 75 114 154 178 194 200 192 189 181 169 151 126 113 77 86 105 107 98 110 124 118 90 102 124 120 132 129 91 96 95 92 97 84 142 178 180 173 176 183 161 159 164 161 152 115 72 85 151 181 192 182 188 174 197 193 190 200 187 199 195 208 176 180 163 128 108 119 140 151 122 145 145 104 55 43 96 168 169 175 184 161 93 89 81 90 119 106 160 162 168 190 186 198 186 189 178 152 111 71 60 76 58 65 57 58 88 122 108 109 129 126 119 122 142 157 159 159 
123 112 97 100 88 79 92 86 95 125 152 165 184 203 204 192 172 166 149 130 118 116 122 124 148 112 112 109 95 138 175 145 90 74 98 159 200 201 202 225 229 207 175 115 114 113 100 98 99 116 117 130 139 135 121 88 55 54 107 161 184 173 179 168 198 199 184 172 133 137 141 148 110 78 78 95 60 5 23 91 125 115 103 116 149 176 202 230 216 175 145 156 145 103 82 153 166 72 4 51 82 83 118 117 124 135 160 169 138 101 89 91 93 77 42 38 84 101 95 66 80 98 83 81 121 140 134 141 
91 101 92 72 39 47 112 149 165 186 208 208 191 175 167 163 156 152 118 85 71 79 97 92 89 80 105 107 73 79 97 77 91 108 153 219 243 237 246 247 243 253 245 241 178 99 109 88 106 135 160 170 163 148 135 120 99 81 111 176 195 179 186 180 198 163 111 94 57 65 81 84 102 100 107 111 94 74 84 112 165 202 224 226 233 243 248 254 254 212 152 127 139 129 108 151 180 204 149 139 76 62 100 77 66 61 76 93 99 113 112 87 102 98 74 70 107 110 136 111 68 74 73 84 107 107 103 117 
96 86 74 94 126 167 201 191 196 191 171 154 155 158 149 140 110 102 78 82 82 75 94 96 55 53 58 78 98 104 102 104 106 177 230 237 222 228 239 214 212 228 238 252 168 93 97 54 77 99 120 107 79 65 70 86 113 87 101 176 188 164 171 170 204 140 69 68 39 46 74 81 54 65 78 101 146 198 228 234 240 251 250 249 254 254 254 244 250 244 209 125 80 84 99 121 142 112 128 117 98 123 85 126 131 120 122 119 101 102 111 103 77 98 105 98 107 109 172 182 103 80 80 87 82 86 95 90 
91 131 165 189 190 194 203 181 158 170 132 88 100 117 102 85 91 98 103 136 106 44 70 107 165 151 119 135 191 181 123 96 199 223 242 235 231 237 240 242 239 238 236 186 111 111 106 97 84 91 103 82 53 42 47 74 103 82 93 188 203 182 190 189 211 150 87 102 70 72 115 123 157 175 204 228 240 247 253 254 252 244 233 230 224 203 199 217 209 212 199 113 74 97 120 110 115 132 118 47 43 94 70 85 115 115 142 168 149 114 112 130 115 114 110 99 94 105 148 156 124 97 88 76 64 89 107 83 
183 198 198 197 188 179 164 117 98 133 94 41 48 60 59 81 68 103 125 162 122 58 98 143 142 151 117 95 129 161 175 196 234 230 243 237 236 210 157 164 193 225 187 120 89 97 69 91 97 84 92 82 75 74 58 69 90 68 70 173 192 179 187 182 203 155 101 127 104 127 192 201 181 237 253 254 235 234 225 201 207 199 194 203 209 195 193 212 201 220 192 82 89 148 142 72 112 140 104 122 152 84 62 67 49 54 81 128 146 123 115 138 166 139 126 115 97 115 112 104 110 108 106 94 79 77 81 79 
192 200 188 180 169 156 127 66 38 85 74 64 95 87 81 131 129 158 147 151 120 78 99 96 71 95 81 53 79 138 175 186 117 175 217 168 156 155 93 90 130 193 94 77 111 92 69 98 91 61 68 85 120 145 130 135 133 102 85 181 197 184 190 180 207 157 91 108 93 137 215 216 220 199 193 205 207 194 195 207 196 208 206 201 206 209 207 211 221 213 187 128 151 159 155 162 170 159 114 97 141 70 23 54 82 77 62 68 94 103 111 136 134 121 132 125 84 100 81 87 93 119 134 134 107 46 26 65 
183 176 172 156 158 118 90 70 63 96 104 62 64 70 91 93 131 167 124 130 125 70 93 128 118 86 98 124 94 123 164 81 104 109 115 79 81 93 121 107 128 126 86 84 93 87 107 106 108 81 85 119 138 138 139 140 127 121 105 178 200 191 190 187 195 148 48 93 90 126 164 149 127 99 154 183 167 182 196 211 211 221 221 215 211 215 216 211 213 228 178 137 142 143 148 152 147 159 135 59 5 71 42 58 87 94 94 74 104 134 107 101 121 159 146 96 81 70 56 78 93 101 112 132 135 132 116 62 
166 164 154 110 85 56 78 103 106 116 98 51 64 62 55 39 62 105 76 66 92 104 117 99 71 119 127 102 118 139 113 84 117 114 86 57 52 74 86 87 96 110 113 119 114 90 80 74 70 88 106 114 130 160 165 140 131 127 111 181 201 192 190 185 210 129 13 64 78 104 116 81 76 86 96 83 67 107 161 161 159 173 192 208 210 205 208 215 224 228 166 117 120 125 123 117 141 146 135 100 69 107 67 58 45 52 65 58 76 99 82 79 105 136 159 142 114 99 93 100 89 77 71 98 115 118 130 120 
150 124 104 77 85 83 104 114 98 124 112 61 69 62 73 91 80 101 104 95 101 114 113 98 89 124 97 41 87 126 80 92 70 99 98 107 77 57 33 56 99 98 110 102 82 58 31 28 34 46 90 133 150 153 157 154 138 135 119 182 198 189 187 181 197 110 10 71 99 116 115 74 48 88 89 86 83 105 140 106 68 118 148 138 143 173 183 167 171 199 171 138 129 124 131 132 123 128 130 132 130 124 96 72 46 27 37 48 65 79 54 30 69 71 104 134 130 130 140 135 150 137 96 76 68 63 90 112 
89 84 106 116 142 144 162 161 153 155 122 75 101 99 106 120 134 124 141 117 88 89 80 81 95 97 99 90 116 135 110 104 86 116 119 129 107 68 47 87 96 68 74 64 64 83 85 106 120 98 115 154 155 132 129 142 151 151 132 184 196 188 189 182 211 155 87 125 125 125 124 94 99 108 102 120 139 145 150 128 115 162 173 138 134 172 183 159 159 186 176 163 145 120 124 133 134 140 138 137 143 113 117 94 63 29 26 41 51 69 75 63 42 84 92 74 85 129 139 93 118 134 95 60 59 65 80 82 
74 69 104 130 160 167 183 172 162 161 137 102 122 116 124 140 165 148 161 118 86 107 98 83 46 74 100 129 118 99 103 85 95 117 112 88 110 100 89 90 7 15 80 116 120 120 97 98 136 152 173 184 190 195 169 124 165 167 144 189 194 190 193 186 196 174 135 139 112 110 126 107 86 73 99 132 167 184 170 175 162 163 161 157 156 163 171 178 186 174 154 166 167 143 145 154 169 172 153 137 145 119 143 116 140 113 92 71 35 28 62 83 64 82 55 57 80 78 89 104 80 139 145 124 106 92 101 106 
108 81 91 95 110 117 141 130 98 112 133 123 129 117 138 156 148 137 164 149 112 100 87 90 121 163 146 148 148 112 102 90 56 106 120 73 108 136 138 99 101 93 121 125 100 103 127 152 153 181 199 191 188 192 146 72 160 167 145 186 189 187 190 181 203 189 164 156 136 148 173 158 117 111 160 174 170 167 129 119 126 128 127 125 125 124 117 108 144 133 130 163 167 146 158 172 170 167 146 135 158 152 172 144 146 142 129 121 91 74 103 121 110 69 4 32 78 51 72 129 108 126 122 127 126 109 109 106 
91 86 115 102 79 75 126 141 109 91 110 125 144 131 127 102 103 93 117 125 94 57 51 73 153 170 152 155 172 128 78 76 100 132 130 89 99 150 179 165 149 121 105 99 70 81 142 170 166 159 156 152 152 161 157 135 144 159 143 184 188 186 189 177 202 176 155 148 134 135 146 127 133 118 143 157 145 150 156 146 133 156 159 136 124 122 93 54 112 119 129 147 133 108 124 132 135 134 133 138 160 164 176 166 174 180 160 160 151 123 124 122 141 140 62 28 38 52 81 67 82 54 33 62 106 132 131 95 
71 63 106 125 133 141 174 165 120 101 132 144 136 113 114 89 109 103 85 71 73 90 99 93 107 78 100 126 130 96 64 101 159 140 106 105 99 140 156 164 159 118 82 90 78 94 160 169 174 174 179 176 166 166 164 152 138 158 148 192 196 193 194 179 204 173 162 166 156 141 139 119 159 119 104 135 115 101 133 114 125 142 158 164 160 145 118 94 142 141 132 135 126 123 139 131 114 119 136 148 151 150 158 173 179 196 168 160 153 133 149 165 159 166 140 122 61 19 56 59 53 108 146 135 95 102 142 139 
69 67 100 149 171 174 179 185 135 90 147 143 96 64 70 57 85 83 76 83 61 80 84 91 60 53 74 73 83 111 108 109 117 84 69 84 97 97 105 125 137 125 69 47 99 136 143 162 172 175 183 185 183 191 189 171 183 174 174 187 195 188 182 182 198 193 162 154 150 136 148 160 159 162 133 167 169 143 165 134 114 128 117 128 120 156 158 138 160 140 143 133 124 132 133 138 132 126 115 106 124 155 162 154 167 169 124 103 97 107 151 159 174 159 155 156 132 124 122 84 83 143 185 161 125 129 138 123 
59 50 76 121 145 152 160 165 144 75 69 91 85 65 17 3 54 54 49 63 44 46 34 33 47 48 74 71 73 96 96 98 87 91 90 87 94 106 109 103 140 118 100 89 94 130 151 136 146 159 173 167 151 154 164 160 164 161 165 177 188 189 184 181 202 195 168 168 176 168 173 176 166 173 161 163 164 163 178 179 154 140 132 164 151 149 154 176 183 176 187 175 151 146 142 150 132 135 106 103 98 101 145 157 147 156 130 105 128 140 123 128 154 159 102 121 158 144 147 134 145 143 121 93 83 92 101 103 
2 19 80 144 167 166 167 170 120 90 74 100 76 43 3 28 77 68 57 67 61 65 57 63 96 105 122 96 66 75 90 106 92 81 81 100 117 123 130 138 127 115 125 139 137 144 156 151 122 106 115 139 151 168 200 225 189 189 188 187 190 193 188 181 198 192 164 165 177 167 163 156 191 199 202 186 193 193 167 172 188 181 174 183 172 175 173 187 183 159 165 169 174 186 176 172 150 144 97 110 110 95 143 152 143 153 142 107 131 139 95 115 139 147 86 120 153 126 154 157 173 133 68 39 49 60 72 95 
94 115 158 176 148 118 120 132 82 58 52 89 93 79 58 77 86 80 72 81 93 102 109 125 140 158 169 131 71 48 59 76 88 65 57 78 96 91 85 87 91 87 81 130 189 171 138 157 83 49 75 160 211 212 214 226 209 216 214 200 190 190 188 183 199 204 185 188 199 195 198 194 177 190 188 172 168 136 94 108 120 136 144 136 143 160 150 146 123 136 187 206 196 187 177 184 174 163 134 144 151 148 171 174 176 159 141 113 112 115 113 145 147 133 123 151 113 75 115 120 144 141 98 60 58 49 36 47 
147 154 170 166 128 99 105 120 107 73 81 103 114 104 113 95 78 92 102 107 124 120 119 129 115 133 153 144 93 50 39 33 19 38 50 55 69 85 75 49 55 45 32 78 151 143 90 80 67 47 75 142 178 174 166 164 166 186 201 195 188 187 186 184 199 219 209 206 205 199 208 210 215 214 182 171 154 97 84 115 82 115 159 161 173 176 158 169 139 158 221 252 246 219 178 162 183 176 180 155 152 179 187 207 194 125 87 110 109 120 164 163 143 112 130 140 98 70 77 94 98 149 143 101 92 83 53 35 
160 141 132 126 106 89 84 80 92 76 95 92 77 54 91 82 115 135 136 115 125 109 99 101 96 99 115 143 126 90 82 75 90 108 111 90 64 50 42 33 42 44 59 63 59 64 52 20 40 55 75 80 78 96 119 124 121 148 177 193 194 191 187 183 191 225 225 220 214 205 212 210 230 183 122 128 131 82 64 77 77 148 210 173 177 188 167 164 180 143 147 175 202 213 185 165 183 165 166 114 114 168 165 182 158 57 22 89 115 138 178 130 101 83 86 87 115 111 79 114 121 166 154 103 99 122 112 87 
147 108 81 79 84 95 102 98 91 69 47 75 104 105 124 125 151 162 137 83 90 75 67 65 88 84 94 133 120 87 109 129 139 132 120 97 63 37 39 55 30 41 63 61 43 52 72 70 91 116 143 144 133 141 150 144 125 138 164 189 200 196 188 184 192 234 244 250 252 246 242 227 195 119 78 87 106 91 56 56 96 169 212 140 164 214 201 184 169 124 105 98 104 130 155 183 181 165 153 107 109 150 145 143 123 46 38 90 113 134 141 96 70 75 74 76 104 107 92 114 151 160 137 99 98 129 140 127 
116 94 89 101 108 110 102 87 94 78 19 68 123 133 130 158 158 166 131 66 75 62 54 44 50 59 81 117 81 32 70 114 143 148 127 83 58 55 42 21 10 8 4 33 99 114 118 160 166 142 138 149 147 136 125 114 139 137 149 175 194 193 188 185 201 238 244 245 244 221 193 158 138 70 73 64 70 89 67 99 100 117 136 92 162 227 232 244 222 173 152 140 132 138 138 148 174 192 187 159 139 143 151 146 124 89 111 116 109 120 107 100 78 95 111 110 66 53 84 74 86 87 99 110 120 142 159 156 
125 114 136 116 80 93 84 43 62 78 73 90 133 133 128 165 186 183 122 63 62 58 30 18 47 58 51 55 75 82 91 117 139 144 134 109 87 71 50 31 50 77 108 134 156 171 167 158 162 158 156 147 137 141 142 130 144 147 157 181 199 191 178 183 198 223 248 249 216 171 144 139 124 67 37 55 88 104 91 67 74 94 90 108 119 133 186 208 205 226 194 106 99 102 108 87 116 149 168 175 151 144 163 134 116 120 127 129 119 101 86 77 87 86 79 67 41 34 54 61 74 76 72 84 104 137 138 81 
117 131 142 79 17 26 28 6 69 96 100 117 144 113 70 73 157 176 137 74 48 32 18 25 40 43 50 77 109 112 120 149 155 150 136 113 97 96 106 115 144 150 150 155 162 156 157 176 160 138 131 143 144 138 134 130 124 124 145 180 196 189 184 186 187 230 252 235 200 176 158 143 128 127 124 118 125 141 116 66 101 104 101 111 117 117 126 123 163 149 125 99 102 98 101 103 84 110 134 161 162 159 148 91 76 110 119 95 88 111 117 98 94 91 80 59 26 14 30 42 63 69 58 82 76 113 118 86 
118 129 140 101 74 90 81 62 58 95 113 129 144 101 36 14 87 111 99 67 61 59 59 71 81 86 92 111 132 136 141 160 147 127 105 104 122 144 158 163 146 152 135 135 161 154 124 122 157 160 147 126 124 141 142 124 124 111 138 179 186 183 186 184 189 221 248 238 194 152 142 150 167 161 152 133 120 134 153 156 148 138 136 125 121 123 117 120 117 79 56 68 71 81 84 89 105 107 108 122 137 160 160 108 59 62 71 81 83 86 104 125 94 60 33 30 44 51 44 34 43 57 45 72 42 82 102 101 
79 63 70 77 85 83 62 62 62 99 116 126 137 107 57 39 86 105 102 91 92 94 95 104 112 122 131 140 160 170 157 140 99 106 120 145 171 177 150 117 112 123 123 155 192 152 95 95 126 157 164 143 141 158 164 159 167 143 165 197 186 176 181 174 196 226 244 217 161 128 139 166 178 165 160 158 151 152 147 133 124 136 171 153 130 122 103 116 105 75 44 53 48 89 97 87 68 80 97 108 119 144 137 86 50 69 74 67 85 121 135 125 97 77 63 51 53 49 37 44 26 40 39 60 43 62 63 36 
57 41 55 65 58 47 47 79 96 122 132 133 137 122 102 99 120 135 140 133 124 120 127 141 143 147 160 171 173 161 132 102 123 148 162 154 148 145 129 106 118 118 126 167 181 117 85 139 138 146 161 183 183 147 132 154 136 120 150 186 182 181 191 181 190 245 246 166 108 126 160 164 161 168 167 157 158 160 108 32 27 72 154 173 163 148 112 110 89 76 56 57 50 99 110 98 58 70 92 94 101 128 112 59 44 49 46 49 84 128 140 127 106 96 93 79 73 57 28 44 43 37 36 28 47 72 109 77 
38 26 48 55 43 44 52 74 111 128 138 140 142 135 133 141 129 117 114 128 142 151 158 162 171 173 188 179 134 104 114 134 167 169 151 119 105 113 121 115 110 116 98 93 113 117 129 165 170 162 149 158 170 139 110 121 116 118 149 179 184 189 194 185 186 234 236 171 120 129 143 140 150 154 157 148 139 136 116 79 17 51 106 136 152 157 135 120 73 70 69 81 83 102 108 109 120 105 99 76 83 129 114 62 37 11 6 35 64 79 100 124 94 80 85 80 92 75 24 33 15 27 53 27 36 55 149 166 
77 27 36 52 42 40 39 43 100 110 127 142 147 140 141 151 142 102 83 105 137 155 155 146 165 169 168 136 96 110 154 177 141 134 129 128 124 114 102 96 100 110 93 77 114 164 174 163 151 161 141 134 168 180 167 163 199 204 205 199 192 189 182 172 188 208 221 209 183 163 153 149 143 134 152 177 171 150 133 123 103 103 91 99 118 124 115 85 51 62 82 94 115 112 115 121 116 108 117 98 108 152 124 65 49 64 64 46 40 57 80 91 83 89 110 95 85 51 3 23 12 48 113 127 109 88 153 180 
117 24 15 41 26 17 29 52 96 100 119 144 151 141 138 146 140 102 87 105 127 145 157 159 176 166 134 88 95 161 176 122 132 123 128 137 124 98 99 120 104 102 117 152 174 169 157 152 146 160 158 175 214 214 201 218 230 235 216 189 181 184 183 181 187 210 221 216 218 227 216 195 151 132 128 150 175 170 106 29 134 137 112 126 143 136 119 69 5 33 61 63 103 107 115 115 90 100 135 126 141 189 165 112 100 103 112 102 55 15 31 77 102 90 100 92 105 78 3 10 3 6 46 111 121 111 143 159 
141 106 34 13 48 54 49 81 111 72 76 116 134 135 135 129 107 99 122 110 88 116 145 153 157 117 114 109 161 174 105 126 122 115 133 136 125 93 117 104 88 132 171 175 162 155 150 144 161 177 202 221 224 220 217 220 235 226 216 181 187 182 182 186 194 218 220 208 212 221 219 216 213 196 183 168 144 132 133 131 106 143 157 131 118 138 137 101 62 5 75 107 70 118 135 70 77 105 117 117 150 188 176 139 129 93 103 115 91 33 7 63 70 88 100 89 62 36 17 6 57 30 23 66 93 95 116 121 
118 122 91 76 95 90 89 126 111 79 79 109 133 137 110 68 62 61 83 76 78 119 143 145 132 108 113 159 164 127 112 113 119 128 123 117 97 109 123 93 131 156 173 165 149 143 149 154 193 201 216 226 224 217 215 220 221 207 204 189 198 176 175 186 206 224 219 203 203 210 209 208 212 215 221 207 173 151 149 150 134 156 169 151 121 107 112 120 108 58 73 102 66 65 108 110 63 105 120 114 135 157 155 151 115 90 86 89 107 101 53 43 66 72 77 73 65 61 68 76 121 115 97 91 77 82 114 120 
96 117 101 82 86 76 76 109 107 100 104 119 133 131 86 28 25 40 68 79 103 136 131 121 112 109 148 190 149 107 123 113 119 129 107 107 85 125 142 119 170 171 166 150 136 139 160 181 216 218 221 223 217 210 211 217 223 217 210 193 202 182 182 182 202 218 214 201 202 208 207 208 207 218 237 231 201 175 162 150 152 147 152 167 156 116 102 123 96 86 54 69 78 84 137 153 101 68 94 112 89 119 142 93 63 83 105 106 125 133 89 58 40 43 55 71 81 86 97 111 115 133 135 122 93 91 131 145 
123 125 90 57 60 61 65 88 101 122 142 143 135 120 88 52 55 68 97 114 138 145 118 111 107 126 191 167 118 129 125 123 128 113 94 106 89 110 148 159 173 162 148 138 135 150 182 211 220 217 217 215 210 206 210 217 210 220 204 170 185 185 192 171 199 212 212 206 209 208 203 204 209 212 223 228 218 203 174 139 151 139 139 163 177 150 129 140 113 100 56 45 51 58 90 110 123 55 78 106 71 88 106 51 43 46 59 98 158 181 148 115 71 67 77 99 110 103 100 106 95 105 117 131 113 102 136 155 
143 130 89 56 59 69 77 93 92 123 150 155 142 123 112 112 125 120 133 139 141 128 106 121 113 159 185 133 114 135 122 123 128 103 96 95 85 81 141 165 157 145 135 135 146 168 199 225 216 213 213 212 209 205 209 216 201 211 193 176 196 189 205 189 212 218 213 207 208 204 198 203 217 213 216 222 225 223 195 153 144 153 154 154 160 163 155 149 162 109 94 74 33 11 24 72 61 74 91 107 96 64 51 67 62 45 32 72 142 178 171 154 155 139 131 136 133 119 113 117 127 122 112 120 116 113 131 126 
120 115 96 74 63 59 64 79 88 111 131 145 150 140 138 153 152 143 156 152 130 109 97 114 135 192 147 129 140 116 123 119 108 102 104 82 80 90 159 164 147 140 133 136 156 182 208 221 213 210 210 210 206 202 202 206 206 196 184 200 210 161 181 197 214 213 203 199 204 202 203 214 218 220 223 220 219 225 211 179 141 150 157 151 153 170 152 102 141 97 109 94 62 51 38 57 17 49 98 129 109 54 35 57 42 49 40 69 121 149 150 128 157 155 155 154 140 123 118 122 128 138 127 124 132 153 157 115 
98 100 98 87 66 43 42 56 90 113 124 136 153 152 147 158 147 144 165 150 113 107 108 112 169 196 131 125 140 104 114 115 98 106 100 85 84 125 177 165 145 141 133 136 160 194 215 219 216 213 211 210 205 199 197 200 194 182 170 195 186 109 139 179 200 200 194 197 206 204 203 215 216 220 222 213 210 223 216 187 142 133 147 154 154 175 157 89 122 114 100 83 83 88 68 50 58 53 115 161 116 64 43 21 7 29 39 92 150 160 137 93 105 133 159 157 131 104 99 104 101 127 131 132 143 170 183 145 
83 77 77 74 54 31 27 40 94 125 136 138 152 152 143 149 151 147 164 131 91 109 131 130 191 179 141 107 111 108 97 109 107 111 89 96 89 142 172 156 144 142 133 134 161 202 224 225 226 222 218 217 211 205 203 205 189 191 180 190 169 96 143 188 192 195 195 205 212 201 191 198 220 219 214 206 210 227 216 181 148 127 148 156 137 161 183 147 161 156 102 94 100 78 95 119 117 122 154 178 144 77 34 25 5 58 99 149 156 115 103 97 96 139 173 159 116 85 83 94 112 125 126 127 124 140 174 171 
52 62 72 64 34 18 38 72 119 122 134 149 132 95 96 133 146 167 125 83 115 129 129 181 202 147 110 106 103 101 106 110 109 115 104 88 78 175 168 144 137 137 124 132 175 202 210 223 222 221 217 209 202 198 198 200 186 191 190 179 162 153 154 160 195 198 203 207 207 206 204 202 217 216 214 205 205 218 215 189 136 137 141 134 148 171 169 166 166 153 97 111 108 87 124 110 135 147 156 190 173 113 91 80 61 140 149 138 122 74 56 56 136 162 168 136 97 85 91 97 100 106 111 118 115 111 142 192 
64 34 22 37 46 48 71 106 112 107 112 125 123 104 87 80 120 132 108 88 108 111 124 182 172 128 102 104 102 97 99 101 115 108 100 82 96 168 167 147 132 136 127 131 167 204 217 215 210 212 211 206 198 195 197 201 189 192 194 188 178 175 181 186 200 202 204 206 206 205 204 204 215 217 220 216 215 224 215 187 134 136 139 135 150 160 172 161 100 156 110 91 105 108 125 88 103 119 130 177 187 135 105 95 125 128 108 122 108 43 36 71 96 135 153 124 81 62 62 65 87 88 83 81 81 85 120 171 
73 31 4 18 53 82 105 121 93 88 100 107 101 100 81 44 96 97 96 106 112 106 137 192 150 120 108 115 111 104 104 104 99 96 102 98 138 179 171 143 130 131 130 129 150 194 217 207 212 213 212 206 197 192 194 197 191 192 191 188 185 186 192 197 203 201 201 201 201 202 204 205 217 216 220 221 220 223 208 177 130 136 134 135 152 145 178 156 87 153 119 118 139 106 98 90 73 88 97 153 195 155 110 102 76 89 95 101 79 40 36 43 51 106 144 119 68 40 38 40 55 72 78 65 52 57 107 173 
86 71 43 31 58 99 106 84 71 77 103 101 70 70 74 49 81 78 91 116 111 110 155 189 137 119 119 127 122 114 113 110 96 105 106 111 149 191 174 141 136 127 129 129 133 171 208 211 219 215 210 205 202 200 201 201 197 194 190 185 183 185 189 191 200 198 196 194 195 198 202 205 222 214 215 217 217 214 193 159 129 134 128 134 150 139 185 150 97 136 123 148 153 92 82 99 74 82 81 134 197 170 111 101 56 71 79 61 37 39 36 7 23 88 140 116 55 21 18 26 40 57 56 41 35 57 117 183 
85 85 70 57 78 103 82 38 55 64 97 97 58 54 80 84 79 80 91 113 102 113 164 168 117 108 113 120 115 111 114 112 112 127 100 103 110 179 176 144 144 124 125 130 125 148 196 222 217 209 199 198 204 208 208 205 205 201 195 191 189 191 193 195 197 195 193 192 194 198 203 206 225 215 215 223 219 205 173 136 128 133 123 134 146 146 186 136 78 119 126 133 118 96 102 89 94 93 87 126 197 187 124 107 91 61 68 91 99 101 78 41 50 112 161 137 70 25 20 32 45 38 18 15 44 88 131 161 
50 42 41 62 94 103 72 34 43 49 80 97 83 86 116 133 103 107 107 119 104 122 177 164 103 99 106 110 106 107 112 110 101 120 94 103 84 164 181 148 145 126 122 130 127 137 177 216 215 206 197 195 200 203 199 193 204 202 199 197 197 199 203 206 199 197 196 196 197 200 204 207 222 214 222 228 214 186 152 120 126 130 122 137 138 164 175 110 84 115 130 127 107 100 112 92 106 100 95 117 183 195 137 110 97 71 96 128 141 146 129 113 96 138 172 158 96 40 25 33 31 42 42 49 79 108 119 123 
36 31 34 56 89 102 82 53 38 50 76 101 113 122 134 145 119 125 113 122 110 124 187 177 110 107 112 113 105 109 113 108 97 105 100 113 87 145 190 157 144 134 123 124 130 132 150 179 205 204 203 204 204 200 195 191 203 204 203 201 199 199 203 206 200 200 199 199 199 200 201 202 214 211 217 213 182 151 133 120 123 126 124 143 132 184 158 79 105 125 127 135 128 101 97 109 114 105 105 112 164 193 142 104 108 106 118 91 75 101 118 134 117 133 155 161 122 65 33 32 33 70 89 84 87 92 91 92 
61 74 73 63 74 97 91 64 43 68 88 105 120 122 115 114 110 115 98 111 100 111 180 183 122 119 121 118 108 109 110 102 125 111 114 114 84 120 195 170 142 143 125 117 129 129 125 138 185 195 206 213 213 211 209 209 211 212 211 206 199 196 198 201 200 200 200 200 198 198 196 194 211 206 207 189 146 118 121 129 120 124 127 148 129 197 144 55 92 132 125 121 137 110 87 110 127 116 120 116 154 191 144 97 106 106 120 93 79 97 108 137 143 141 161 185 169 116 74 63 69 92 87 61 55 64 68 70 
111 106 41 25 54 58 67 69 68 87 112 144 122 92 105 91 104 77 80 89 89 108 185 157 113 121 101 81 97 108 103 108 98 117 94 114 94 89 176 190 144 143 129 120 126 127 122 127 134 158 189 209 215 213 215 218 216 213 210 209 209 209 208 207 211 212 209 204 205 211 211 204 206 192 165 139 128 131 128 120 124 119 138 118 184 173 79 72 101 135 121 95 128 120 80 107 131 140 136 123 156 185 143 100 98 87 88 83 68 67 93 113 138 159 151 174 179 132 112 106 109 93 67 49 28 14 40 96 
76 108 90 76 59 27 39 71 77 103 120 136 108 78 94 100 63 65 80 92 78 102 168 135 103 75 59 85 106 83 79 113 110 108 109 93 127 149 136 189 178 156 125 112 119 118 118 134 130 133 144 165 190 209 220 223 214 213 212 209 206 203 201 201 194 201 207 210 213 214 207 198 178 161 138 122 121 125 122 117 119 131 119 163 180 94 75 97 144 134 98 86 124 110 73 108 132 136 132 131 168 177 122 92 94 74 65 77 75 90 97 99 147 166 155 168 179 154 141 131 132 108 64 31 44 45 62 88 
91 116 110 106 87 50 58 93 89 116 128 138 120 80 68 67 63 67 56 63 47 93 160 135 76 64 49 55 77 82 81 93 100 94 115 85 109 129 85 137 218 135 127 144 109 112 135 106 116 120 125 130 140 158 181 198 202 206 210 211 210 210 213 216 220 222 220 211 198 182 163 147 122 126 133 134 128 120 119 123 134 140 155 184 152 96 94 154 156 164 126 84 106 117 87 100 124 126 119 129 178 172 112 102 84 76 61 77 61 89 98 113 145 167 160 165 178 177 168 150 134 105 53 11 64 79 88 84 
118 122 113 113 115 99 95 106 117 126 122 132 140 101 48 24 63 52 21 39 35 98 163 149 70 78 58 31 43 81 91 77 89 86 88 94 77 70 81 68 153 189 161 121 129 122 104 118 113 120 125 122 116 120 133 147 170 177 185 188 188 189 195 200 171 169 165 157 148 138 129 122 127 123 123 121 117 115 126 139 122 138 151 159 147 166 136 119 130 177 178 117 99 106 90 99 124 129 116 126 181 173 112 115 110 104 75 79 43 79 95 122 133 162 168 165 174 184 176 153 132 103 57 12 77 85 97 94 
100 113 117 108 107 108 96 93 137 128 115 119 138 111 48 18 27 27 17 61 64 107 159 155 88 67 50 45 48 58 74 86 97 98 71 93 88 75 100 61 76 182 201 140 122 123 114 123 120 116 113 118 126 130 125 118 115 119 123 120 115 112 115 119 114 114 115 118 120 122 125 128 132 121 113 117 125 128 126 125 154 153 71 101 129 167 177 87 115 158 189 153 104 76 72 102 126 139 129 135 186 175 111 109 145 128 83 79 47 89 100 114 134 157 175 165 161 175 171 155 146 114 79 32 74 69 97 116 
85 89 95 77 78 97 92 86 112 112 125 130 133 111 56 32 27 45 56 98 92 102 151 160 90 54 45 59 59 56 71 88 95 116 95 82 102 93 79 96 76 77 157 203 151 133 141 103 117 115 116 119 122 124 124 123 125 125 124 119 113 109 109 111 115 116 119 122 121 117 117 120 109 118 125 126 129 136 143 145 152 106 48 62 82 105 120 105 115 151 182 146 95 82 80 91 105 120 130 146 187 169 105 99 128 123 96 88 63 101 122 137 150 157 179 167 153 164 167 163 150 112 83 49 62 57 97 127 
88 73 80 65 66 87 83 82 84 93 136 141 124 105 65 49 66 87 93 102 93 91 152 162 90 57 46 56 62 75 90 88 90 112 113 85 91 89 67 101 79 63 79 146 192 167 133 133 120 125 128 123 112 111 117 124 114 112 109 106 104 104 104 105 103 104 109 115 116 113 115 121 125 133 130 119 123 143 157 158 62 26 65 58 69 75 51 88 118 143 166 125 88 105 107 92 96 100 124 159 188 159 102 103 106 112 106 91 74 106 141 157 163 152 180 178 161 165 161 166 148 103 77 60 56 60 86 91 
80 73 100 93 72 69 57 67 87 89 133 130 103 97 76 69 82 100 99 85 89 92 158 156 111 57 39 61 72 83 100 105 99 91 92 94 87 91 94 73 82 89 68 62 118 182 190 164 137 130 122 121 124 124 119 113 121 116 110 105 104 105 106 106 111 109 111 116 117 117 124 135 131 131 132 146 177 181 130 65 41 40 45 39 78 90 103 97 125 115 136 127 99 102 109 115 118 102 128 173 190 150 101 111 130 115 98 79 83 115 142 137 165 145 179 189 174 169 156 162 159 109 83 77 62 68 66 38 
88 90 71 93 64 46 45 59 69 94 119 144 121 96 102 77 79 98 114 87 90 87 133 172 136 76 56 77 84 85 89 89 99 97 96 97 91 83 84 90 94 77 77 82 76 91 143 189 183 182 143 133 128 113 126 127 121 112 114 118 93 113 107 101 111 109 106 114 126 120 118 132 152 174 179 175 156 98 54 62 43 31 41 36 17 49 113 140 138 109 112 127 113 100 113 123 138 146 140 185 193 123 97 115 127 113 104 63 63 122 144 149 162 171 180 179 168 158 157 161 152 130 81 59 78 79 59 52 
86 56 11 29 27 32 39 51 82 93 115 151 138 108 105 83 81 87 94 102 88 77 108 170 166 113 78 80 91 98 100 99 112 99 93 98 102 97 85 77 83 82 100 116 102 83 76 75 140 175 179 188 186 163 150 130 136 118 112 130 113 112 97 103 116 115 109 116 136 151 166 187 176 168 138 88 56 65 77 74 49 16 7 15 30 81 134 142 120 108 122 148 147 132 130 134 136 129 137 190 184 117 100 113 128 117 111 79 89 141 144 132 145 160 178 189 191 184 170 157 165 142 101 77 71 55 54 79 
59 40 5 12 11 23 47 67 98 96 113 155 154 120 106 87 84 90 87 115 90 80 92 153 194 163 118 91 97 103 105 108 112 103 101 105 106 98 84 74 86 116 160 175 145 111 95 88 68 105 117 135 163 179 187 177 166 147 110 117 121 138 136 150 145 159 168 177 191 188 173 169 121 73 62 79 86 99 95 62 78 67 85 113 124 138 137 112 97 109 131 155 162 145 140 156 135 120 149 201 170 112 112 116 120 115 108 86 104 141 121 89 83 118 154 172 179 181 171 155 150 136 118 102 68 23 16 48 
17 54 66 59 29 26 65 93 105 102 118 149 157 133 109 89 84 96 96 108 96 91 90 117 184 192 163 122 108 103 97 104 105 106 103 93 84 85 101 117 166 189 212 194 140 104 100 103 92 93 74 70 89 109 125 134 157 146 78 67 101 158 173 177 177 174 153 136 137 133 117 107 130 109 121 145 141 128 128 126 122 131 150 152 126 110 108 100 97 103 101 115 140 138 131 144 128 125 174 200 139 103 121 117 107 110 99 87 111 133 105 69 67 116 162 172 170 175 179 176 160 151 145 135 95 37 9 16 
7 70 107 88 49 40 77 93 100 110 126 139 154 149 119 99 88 88 95 95 111 91 85 86 132 180 194 168 142 114 95 98 107 108 102 89 85 108 150 181 206 205 203 179 135 108 99 92 89 84 80 80 81 74 79 107 156 133 43 26 44 79 83 72 54 49 33 36 70 104 118 123 149 167 158 144 152 159 152 152 137 139 137 121 95 91 107 121 114 98 70 73 114 131 117 113 121 140 194 177 99 90 119 111 97 106 90 88 118 130 110 86 95 138 174 174 167 170 172 168 173 159 148 136 112 75 38 12 
37 75 92 73 63 57 86 82 96 113 131 136 157 161 124 106 102 82 90 99 129 93 86 89 83 137 186 198 180 145 115 104 110 116 125 134 148 169 186 194 196 197 200 177 121 70 44 30 58 59 78 85 82 76 91 145 211 162 65 60 55 50 52 49 67 72 71 82 108 117 108 102 87 95 83 101 152 155 121 110 101 90 76 72 80 90 94 95 115 111 96 88 103 117 119 118 132 166 197 144 78 91 114 110 98 104 80 86 114 114 106 99 113 135 154 157 160 163 154 139 146 138 134 127 115 103 68 22 
78 75 71 64 74 60 87 91 103 112 130 138 163 161 110 97 102 91 89 102 122 108 97 102 78 97 143 187 196 178 148 124 122 135 153 171 187 188 173 152 152 162 187 192 157 120 111 114 119 106 109 95 85 75 73 114 137 104 47 78 72 67 90 94 95 96 91 91 95 86 73 77 75 70 77 105 116 102 97 115 132 116 90 81 93 102 102 104 105 118 128 116 104 114 131 130 158 184 181 109 77 102 106 110 101 101 70 85 119 109 107 116 135 141 147 154 162 165 157 147 135 133 137 129 111 109 96 64 
88 72 72 77 83 49 84 108 113 110 128 141 168 154 92 82 85 103 90 94 97 122 109 106 99 76 101 159 193 195 175 144 145 154 159 161 161 153 136 117 120 106 117 138 136 128 133 140 156 141 143 133 137 127 86 87 67 73 61 110 103 103 126 107 113 118 118 116 107 83 71 82 102 91 104 113 108 122 127 101 128 136 130 115 103 85 76 80 109 104 110 111 110 131 138 113 175 187 157 83 79 107 95 106 99 97 66 95 139 128 132 150 154 155 156 153 151 151 155 159 142 134 132 110 77 82 104 104 
76 72 69 66 61 66 87 112 108 129 129 149 148 131 91 93 98 85 77 66 83 97 126 110 87 101 88 89 147 194 183 157 154 143 134 130 117 98 86 83 72 83 84 85 94 100 110 128 132 141 152 154 145 134 136 144 136 112 123 151 157 148 123 87 86 99 118 102 94 77 50 73 82 78 117 118 94 79 79 130 97 116 157 86 89 77 79 78 89 86 94 91 104 133 139 150 180 177 119 83 86 93 105 107 98 80 89 127 145 134 72 91 145 155 156 146 139 141 135 122 143 109 85 89 78 68 91 110 
72 77 69 51 50 76 102 113 110 131 126 130 114 96 66 80 84 79 82 69 80 89 116 106 93 101 90 82 112 158 178 175 158 134 112 104 101 92 85 83 74 85 86 83 84 81 79 89 94 103 117 128 130 128 133 142 129 109 118 133 124 109 91 66 65 89 112 103 104 93 62 75 55 50 91 95 76 68 74 130 106 93 115 85 113 107 80 71 85 84 97 94 108 136 145 160 177 154 99 84 93 89 95 102 82 87 112 132 120 97 59 106 156 161 155 141 137 140 133 119 98 71 65 84 81 67 77 88 
68 82 68 35 41 88 116 112 119 142 131 119 88 70 55 82 73 74 92 77 79 83 106 102 96 97 99 86 79 118 171 192 169 134 101 93 97 96 87 82 85 97 102 100 100 90 82 87 74 80 94 107 114 115 120 127 109 96 105 114 94 79 74 62 65 90 101 85 93 102 85 92 22 24 84 103 84 72 71 116 110 74 80 92 130 130 76 66 81 83 99 99 111 139 152 170 173 133 80 85 102 87 89 98 76 97 133 140 103 79 59 128 169 167 153 136 134 139 131 115 65 41 48 78 82 68 66 71 
