P2
128 72
255
142 142 142 142 143 143 143 143 143 144 143 143 144 144 145 145 145 145 146 145 145 145 145 145 146 146 146 146 146 146 146 147 147 147 147 147 147 148 148 148 149 149 148 149 149 149 149 149 151 150 151 151 151 151 151 151 150 150 151 150 150 150 150 149 149 148 148 147 147 147 146 147 146 145 145 145 145 144 145 145 144 144 144 143 143 143 143 143 142 142 143 142 141 141 141 140 140 140 140 139 139 139 138 138 138 137 137 137 136 136 136 135 134 134 134 134 134 133 133 132 132 132 131 131 131 130 130 130 
144 143 142 143 143 144 144 144 144 145 143 145 144 145 144 145 146 145 146 146 146 146 147 148 146 147 147 147 147 147 148 148 148 149 149 149 149 149 150 150 149 149 151 149 152 151 151 152 151 152 151 152 151 150 152 151 152 151 151 152 151 151 150 149 150 149 149 149 149 148 147 147 148 147 146 146 145 146 145 144 145 145 145 145 144 144 144 144 143 143 143 144 142 142 142 141 141 141 140 140 140 140 139 139 139 139 138 137 138 136 136 136 136 136 134 135 134 135 134 134 133 133 132 132 131 131 131 131 
144 144 145 145 146 145 144 144 145 145 146 145 146 145 147 146 147 146 146 147 147 148 147 149 148 148 148 148 149 149 149 149 150 150 150 149 149 149 151 151 150 150 150 150 150 151 150 152 152 151 152 151 152 151 152 151 151 150 151 151 151 151 152 151 151 151 150 150 150 150 149 149 149 148 148 147 147 147 146 145 146 146 146 145 145 145 145 145 144 144 144 144 143 143 143 143 142 142 141 141 141 141 140 139 140 139 138 139 137 138 137 137 137 136 137 136 137 134 135 134 134 134 133 133 132 132 132 131 
147 146 145 144 144 145 145 146 147 146 147 147 146 147 147 147 148 147 147 147 148 148 148 149 148 149 150 149 149 149 150 151 150 151 150 150 151 151 152 151 151 150 152 150 154 152 154 154 153 152 152 152 153 153 154 153 151 152 151 152 151 152 151 152 150 150 151 150 151 150 150 149 150 149 149 148 148 148 148 147 147 147 146 147 146 146 146 146 145 145 145 145 144 144 144 143 143 143 143 142 142 141 141 141 140 141 140 138 141 138 138 138 137 137 136 137 135 137 136 136 134 134 134 134 134 133 132 131 
148 148 148 148 149 148 147 147 148 148 150 148 150 148 149 149 148 148 149 149 150 149 149 149 149 151 150 149 151 150 150 152 152 151 151 152 152 152 152 151 152 152 152 153 152 153 152 153 154 154 154 153 154 153 154 154 154 153 152 152 152 152 154 154 153 152 152 152 151 152 151 152 150 151 151 150 150 150 149 148 148 148 148 148 147 147 147 147 147 147 146 146 146 146 146 145 144 144 144 143 143 142 142 142 142 142 141 142 139 140 139 139 138 138 139 138 139 136 137 135 136 136 135 135 135 134 134 133 
148 148 148 149 149 149 150 150 150 149 148 150 148 150 149 150 150 151 150 150 149 149 149 150 150 151 151 152 151 151 152 153 152 152 152 153 153 152 153 153 153 154 155 155 156 155 155 155 155 154 154 155 155 153 155 154 154 154 152 155 154 155 153 154 153 152 153 153 153 152 152 151 152 153 152 151 151 149 150 148 150 150 149 149 149 149 148 148 148 148 148 148 147 148 146 146 146 146 145 144 144 144 143 143 143 143 143 141 143 141 140 140 141 140 139 139 137 138 138 138 137 137 136 136 136 135 135 134 
149 149 150 150 151 151 151 151 152 152 152 151 151 150 151 152 151 152 151 151 150 150 151 151 153 152 153 153 153 152 153 152 153 154 154 154 154 154 155 154 155 155 153 155 154 155 153 154 156 156 156 156 155 156 156 156 156 155 154 152 155 153 154 154 154 153 153 154 153 153 154 154 153 153 152 152 151 152 150 150 151 150 150 150 150 150 150 150 149 148 149 148 149 148 148 147 147 147 146 145 145 145 144 144 144 143 143 143 142 142 142 141 141 141 141 139 141 140 140 139 138 138 137 137 137 136 136 136 
150 150 150 150 151 151 152 152 152 153 153 153 153 151 152 152 151 152 152 153 152 152 153 153 154 154 154 154 153 154 154 154 153 154 154 154 154 154 155 155 156 156 154 154 155 155 155 155 156 156 156 156 155 155 156 155 157 156 155 155 156 156 156 155 155 154 154 155 155 156 155 155 155 155 153 152 154 152 153 152 152 151 151 151 151 151 149 150 150 150 150 151 150 149 148 149 148 147 146 146 147 146 145 145 145 144 144 143 143 143 142 142 142 141 140 141 140 139 139 138 139 139 139 137 137 136 136 136 
151 151 151 151 151 153 154 153 153 153 153 153 153 153 154 155 153 153 152 153 153 153 154 153 154 154 153 155 155 155 155 155 155 155 155 155 155 155 155 156 156 156 156 157 156 156 156 155 157 157 157 157 157 157 157 158 157 156 157 157 157 157 156 156 155 156 156 155 155 155 155 155 154 154 156 155 154 153 153 153 152 152 152 151 151 152 152 151 149 151 152 151 151 150 149 149 148 148 149 148 147 146 145 145 145 144 144 145 144 144 143 142 142 142 141 141 141 140 140 139 139 139 138 138 139 138 138 138 
150 151 151 151 151 152 152 152 153 153 153 152 154 153 154 154 154 153 154 154 154 155 154 154 155 155 156 155 156 154 155 154 155 155 157 156 156 156 157 157 157 157 157 156 157 157 158 157 157 157 158 157 158 158 158 158 157 158 157 157 158 158 158 157 156 157 157 157 157 157 155 156 156 155 156 156 155 155 154 155 155 154 153 152 153 152 153 152 153 153 153 152 152 152 150 150 150 150 149 148 148 148 147 147 146 146 146 146 144 144 144 144 144 144 143 143 142 143 142 141 141 141 139 139 139 139 138 138 
150 151 151 152 152 152 152 153 154 154 152 153 152 154 154 155 154 154 154 153 154 154 155 155 155 156 155 156 155 157 156 156 155 155 156 158 157 157 156 157 155 157 156 156 156 158 157 158 157 158 157 157 158 158 158 157 159 159 158 157 158 158 157 157 157 158 158 158 158 157 157 157 157 156 156 155 156 156 157 155 156 155 154 154 154 154 152 153 153 152 152 152 153 152 152 152 151 151 151 150 149 149 149 149 149 147 148 146 146 147 146 145 147 146 145 143 144 142 143 142 142 141 141 140 141 139 139 138 
150 151 152 152 153 152 152 152 152 153 154 154 154 154 154 153 156 155 155 155 155 155 156 156 156 156 157 156 157 155 158 157 158 156 157 156 158 156 157 157 158 159 159 157 158 157 160 158 158 159 159 159 158 159 159 158 159 158 159 159 159 158 159 160 158 158 159 159 159 158 158 157 157 158 157 158 157 158 155 155 155 153 155 153 156 154 155 155 154 153 153 153 153 152 152 153 153 153 152 151 152 150 151 151 149 150 150 150 148 147 147 147 146 147 145 146 145 145 143 143 143 143 141 142 140 141 139 139 
153 153 153 154 153 154 153 154 155 154 154 154 155 155 156 155 154 154 155 155 156 157 157 157 157 157 155 156 156 157 156 156 157 156 156 158 157 157 156 157 159 158 158 159 157 159 158 158 158 158 159 158 159 159 159 159 159 160 159 160 160 159 159 159 160 160 160 160 160 160 159 159 159 158 158 157 157 156 157 157 158 158 156 157 154 156 154 155 155 155 154 154 153 154 154 154 154 153 153 153 153 152 151 152 152 150 150 150 148 149 148 149 148 147 148 146 147 145 146 145 144 143 144 142 143 141 142 141 
153 152 153 152 153 153 153 153 153 155 153 156 154 155 154 155 156 156 156 156 156 156 157 157 157 156 158 158 158 157 158 159 158 157 159 157 160 157 160 160 159 159 160 159 160 159 160 159 158 159 161 161 160 161 161 161 160 161 161 161 160 161 161 162 161 161 161 161 161 161 160 160 159 160 159 159 158 159 157 157 156 157 157 156 157 155 156 156 156 156 155 155 155 155 155 155 153 153 154 153 152 152 152 152 151 152 150 152 151 149 149 150 149 149 147 147 145 146 145 146 146 146 144 145 143 144 143 144 
153 153 154 154 153 154 154 154 155 155 156 155 156 155 157 156 155 156 156 156 157 157 158 157 157 157 156 157 157 159 157 158 159 158 159 160 158 160 158 159 158 159 158 160 160 161 160 160 160 159 160 161 161 161 161 161 161 161 161 161 161 159 161 160 161 162 162 161 161 161 161 161 160 159 159 158 158 159 158 159 159 157 156 158 156 157 157 156 156 156 156 156 156 156 156 156 155 155 155 155 154 153 153 154 154 154 152 152 152 150 150 150 148 148 149 148 148 147 148 147 147 146 146 145 145 144 145 144 
152 153 154 154 153 154 155 155 155 155 156 157 157 156 156 156 158 158 157 157 157 157 158 158 158 159 159 159 159 159 159 159 159 159 160 159 160 160 160 160 160 160 161 159 160 161 161 160 161 161 160 161 161 162 162 162 161 162 162 162 161 161 162 162 162 162 161 161 161 161 161 161 161 161 160 160 160 160 159 158 159 158 158 158 158 158 158 157 156 157 157 157 156 155 155 155 156 155 156 155 155 154 154 154 154 154 153 152 152 151 151 150 150 149 149 149 148 148 148 148 146 146 145 147 147 147 146 145 
159 154 154 153 160 157 158 158 161 164 163 160 158 159 160 158 158 158 156 158 159 157 159 160 160 158 158 159 159 160 160 160 159 160 160 164 165 163 161 162 160 160 160 161 161 161 161 160 162 162 162 162 162 162 162 162 162 162 162 162 162 162 162 162 162 162 162 161 161 161 161 161 159 161 161 160 160 160 159 159 158 159 159 159 158 159 158 157 157 157 157 157 156 157 157 156 156 156 155 156 155 154 154 154 153 154 154 153 153 151 150 150 151 151 149 149 148 149 148 147 146 148 149 147 146 146 147 147 
170 171 167 172 172 167 165 169 170 168 166 165 162 160 159 160 160 161 161 158 156 162 164 163 161 160 160 159 160 159 159 159 160 161 163 164 164 165 164 162 162 163 163 161 161 161 162 162 162 162 162 162 162 162 162 162 163 163 162 162 162 162 162 162 162 161 162 162 161 161 161 162 160 162 162 161 161 161 160 160 159 160 160 159 159 159 157 158 158 157 158 158 157 156 156 159 155 155 157 155 155 154 154 155 154 153 154 154 152 152 152 151 151 150 151 151 150 150 150 150 149 149 149 148 149 146 148 147 
153 166 169 151 166 172 168 168 167 167 162 161 161 161 162 163 158 160 158 160 163 169 164 161 163 162 160 161 161 159 160 161 160 162 162 162 162 163 162 162 162 163 163 161 161 162 161 161 162 163 163 163 163 162 163 163 163 163 163 163 163 163 163 163 162 163 162 161 162 161 162 162 162 162 161 161 161 161 161 161 160 160 160 161 159 158 160 158 157 159 158 158 157 157 156 156 157 156 156 156 157 156 156 154 154 156 153 154 154 153 153 153 153 152 150 151 151 151 150 149 150 151 150 148 149 151 146 149 
148 141 119 136 165 165 163 163 165 165 165 163 165 167 165 165 160 158 158 159 167 167 166 163 161 160 160 160 160 159 159 161 161 162 160 162 161 162 161 163 161 163 162 161 162 162 163 162 163 163 163 163 163 163 163 163 163 163 163 163 163 163 163 163 163 162 162 163 162 162 162 163 162 162 162 161 162 161 162 161 160 160 161 159 161 161 158 160 159 159 159 157 159 158 158 159 156 157 158 157 156 155 156 157 154 154 155 154 152 153 153 153 151 150 152 151 151 150 151 151 150 148 152 153 149 150 158 158 
119 113 145 163 164 160 159 162 167 169 167 168 168 165 165 161 160 159 159 161 162 164 163 161 160 159 159 159 159 159 160 161 160 160 160 162 162 161 162 161 162 162 162 162 162 163 162 163 163 163 163 163 163 163 163 163 163 163 163 163 163 163 163 163 163 164 164 163 162 163 163 161 163 162 162 163 163 163 162 162 161 161 160 161 160 159 161 159 159 160 157 160 157 160 157 158 157 156 155 156 156 157 155 154 155 156 155 154 155 153 153 153 154 152 152 150 152 152 150 148 151 152 164 168 160 170 177 174 
105 111 148 160 158 158 157 160 169 168 169 169 170 167 161 159 159 159 159 158 160 160 160 159 161 160 161 160 160 161 160 160 160 161 161 162 161 162 161 162 161 161 162 162 163 162 162 163 163 163 162 163 163 163 164 163 164 164 164 163 163 163 163 163 162 162 162 163 164 163 163 163 163 162 163 162 162 161 162 162 161 161 161 159 161 161 159 160 160 158 162 161 156 157 167 158 156 157 157 156 155 155 155 155 156 155 154 155 153 154 153 152 152 152 152 152 152 150 151 151 151 150 172 180 182 185 182 181 
107 122 144 159 159 159 158 163 166 167 166 165 165 163 161 159 158 160 158 160 157 160 159 160 160 161 160 161 162 161 161 161 161 161 161 162 161 162 162 163 163 163 164 163 163 163 163 163 163 163 163 163 164 163 164 164 164 163 163 163 163 163 163 163 163 163 163 162 163 164 163 162 163 163 163 163 162 162 161 162 162 162 161 162 161 160 162 161 161 162 159 156 168 195 193 155 159 157 156 156 156 156 155 155 155 156 154 154 154 155 153 155 152 153 151 152 153 152 152 153 155 158 171 180 180 181 180 178 
108 128 152 157 155 156 156 158 160 160 161 160 160 159 159 159 161 158 159 159 159 159 161 159 161 161 161 161 162 162 161 161 162 161 160 162 161 161 161 163 162 162 162 162 162 162 162 162 162 162 162 164 164 163 164 164 164 164 164 164 164 164 164 164 162 162 162 164 163 164 163 163 162 163 163 164 166 165 163 162 163 162 161 160 161 161 161 162 160 157 166 192 209 215 178 153 158 158 156 157 156 155 155 155 155 154 154 154 153 154 153 153 151 153 153 152 152 151 154 159 166 169 169 171 173 173 173 174 
71 101 123 113 140 158 155 157 157 158 158 158 158 158 158 159 159 158 158 159 159 159 160 161 160 161 161 161 161 161 161 162 161 161 161 161 162 162 162 163 162 162 162 162 162 162 162 162 162 162 163 164 164 164 162 162 163 162 162 163 163 164 164 164 164 165 164 164 163 163 163 163 163 163 162 164 166 166 165 163 162 161 164 162 163 170 170 165 173 190 210 212 213 207 172 157 159 157 156 156 156 156 155 155 156 155 154 154 153 153 154 154 153 152 152 153 153 152 155 160 163 165 166 167 166 165 167 171 
60 119 119 140 150 157 156 157 158 157 157 157 158 159 158 158 158 158 158 159 160 160 161 162 161 161 161 162 161 162 161 162 163 163 161 161 162 162 163 162 163 162 162 162 162 164 164 163 162 164 164 165 163 163 164 164 163 162 163 163 164 164 163 164 163 162 162 165 162 164 163 163 163 163 163 162 163 163 162 162 162 169 176 179 174 175 177 191 211 219 216 210 213 203 167 161 157 158 158 157 158 156 156 155 155 155 155 155 154 153 153 153 154 153 152 152 153 152 152 152 154 157 158 157 159 158 159 161 
132 153 158 158 155 156 156 157 156 156 157 157 158 158 158 159 159 159 159 160 159 159 161 161 160 162 162 162 162 160 163 162 162 162 162 163 163 163 164 165 163 163 163 162 164 164 164 164 165 162 164 162 164 165 163 164 163 163 164 164 164 164 164 164 164 162 164 166 167 167 169 166 168 167 165 164 165 170 171 164 170 176 176 172 173 187 208 214 215 213 215 212 213 191 161 160 158 159 156 157 156 157 155 155 156 156 155 157 155 154 154 154 153 152 153 155 153 150 149 151 152 151 151 151 152 153 153 151 
156 154 155 156 154 155 156 157 157 157 156 157 158 158 158 158 159 159 159 159 160 160 162 162 159 160 162 163 161 163 162 163 163 163 163 163 162 163 163 162 163 163 163 164 164 164 164 164 162 165 164 165 165 163 164 164 164 164 163 163 164 164 164 164 164 164 165 170 170 172 172 170 170 165 167 168 169 171 167 167 168 167 169 187 204 217 214 213 214 216 212 213 210 155 157 159 159 158 158 155 157 155 155 156 155 155 157 154 156 153 155 155 153 154 153 152 151 152 151 149 150 151 148 149 151 152 150 150 
155 156 156 154 157 158 155 154 155 156 158 158 158 158 158 160 159 160 160 161 160 161 161 161 161 162 162 162 162 161 163 162 162 165 165 163 162 163 164 163 163 163 164 164 164 164 163 164 165 162 163 162 163 165 162 164 164 164 163 164 164 164 164 164 165 163 164 162 166 165 168 166 162 164 164 162 163 166 166 164 163 177 203 216 214 214 215 211 212 215 213 211 204 161 158 160 158 159 157 157 156 157 155 155 155 155 155 155 153 155 154 154 153 153 153 153 151 150 150 153 150 151 152 152 150 149 149 148 
155 155 155 155 158 155 157 157 157 157 157 157 158 158 158 157 158 159 159 160 160 161 161 161 162 162 162 163 162 164 162 162 163 164 167 167 164 163 163 162 162 163 163 165 164 163 163 163 162 164 164 164 163 161 164 163 164 164 164 165 164 164 164 164 164 165 163 163 163 162 162 163 164 163 163 161 166 168 168 184 202 215 217 216 210 213 213 214 214 213 212 215 195 156 159 157 157 158 159 157 157 156 156 156 155 156 155 155 155 154 154 154 155 154 153 153 153 154 153 152 151 150 151 150 151 150 148 149 
156 155 154 155 155 156 156 156 156 157 157 157 157 159 158 158 160 160 160 160 160 161 160 161 162 162 161 162 163 163 164 163 165 163 162 164 164 164 165 166 164 164 164 163 163 163 163 163 163 163 163 163 163 164 163 163 164 164 164 164 164 163 164 164 164 163 163 161 163 161 163 162 162 162 163 164 166 179 201 214 218 212 214 213 211 209 212 213 210 212 212 212 177 155 158 158 158 158 158 159 157 157 155 155 156 156 155 155 155 156 155 155 155 153 154 156 156 153 153 153 152 151 150 151 149 149 149 148 
155 156 153 155 155 155 156 156 155 157 157 157 158 158 157 156 159 159 160 160 161 160 161 160 161 162 161 161 161 163 165 167 167 166 165 163 163 166 167 165 163 163 163 162 161 163 163 163 163 163 163 163 163 163 163 163 163 163 162 163 163 163 163 163 163 163 163 162 163 163 164 162 163 162 157 168 192 212 218 213 213 215 212 214 212 211 213 213 210 210 211 207 162 156 159 156 158 158 157 156 157 157 157 157 156 155 155 155 156 155 154 154 154 153 155 157 157 156 154 151 151 151 152 151 148 147 146 147 
153 154 155 155 155 156 156 156 156 157 157 157 157 157 157 157 157 158 159 157 159 158 159 160 160 160 159 160 162 166 168 168 168 169 167 164 165 165 164 163 163 165 164 165 163 163 162 164 163 163 162 163 163 162 164 162 162 164 163 163 163 164 164 163 162 162 162 163 163 162 162 161 156 166 188 210 218 213 213 215 213 214 212 213 213 211 211 212 212 209 213 199 154 158 159 160 160 160 159 158 157 159 157 157 156 156 156 156 154 153 154 153 153 152 156 156 154 155 153 152 151 153 152 148 146 148 146 146 
155 154 154 155 155 155 155 156 156 157 157 157 157 157 158 158 159 157 156 158 159 161 160 160 160 159 159 159 160 160 161 163 163 164 164 163 163 162 162 162 163 163 163 163 161 162 162 161 163 162 163 162 163 164 162 163 162 162 162 162 163 163 161 163 162 160 164 161 162 162 158 163 186 208 215 214 212 214 212 215 215 212 211 211 212 212 211 212 212 208 214 180 143 154 157 149 140 136 143 158 155 157 158 157 158 156 155 153 153 153 154 154 152 154 152 152 156 156 153 151 152 151 151 149 149 145 147 144 
154 154 154 155 155 155 155 156 156 156 157 157 157 156 157 157 158 158 158 160 137 147 161 158 159 159 160 160 159 159 159 160 160 162 162 162 161 161 161 162 161 162 161 161 162 163 163 162 161 162 161 162 162 161 162 162 162 161 162 162 161 161 163 161 161 162 162 162 158 160 184 207 217 209 211 211 214 211 211 211 217 213 211 211 210 211 210 210 211 210 210 120 81 100 101 87 68 82 91 88 110 110 149 149 139 157 157 156 160 162 156 155 157 155 156 139 142 146 145 152 143 147 139 139 149 147 147 145 
152 153 154 153 153 154 154 154 154 155 156 157 156 156 157 158 158 156 159 155 158 157 160 159 159 159 160 158 158 159 160 160 160 160 160 161 160 160 160 161 161 161 160 162 160 161 161 163 162 162 162 161 162 162 161 161 161 162 161 161 162 162 160 161 162 162 157 158 180 205 218 215 211 211 209 212 211 213 211 213 213 213 211 210 210 211 213 211 209 213 194 66 60 69 69 74 76 62 69 61 60 65 86 83 91 142 142 130 133 145 162 153 135 146 149 123 105 110 114 126 88 96 95 92 113 127 144 142 
153 153 153 153 153 153 154 155 155 156 156 155 155 155 156 156 154 157 156 159 160 158 157 158 157 157 158 158 158 158 158 159 159 159 159 160 160 160 160 160 160 160 163 161 160 160 161 160 161 160 161 161 160 161 160 162 161 161 163 161 160 162 161 162 158 157 178 202 218 217 212 214 211 212 210 209 211 212 211 212 212 214 212 210 210 210 211 210 208 217 166 18 72 52 63 71 63 57 65 69 55 56 44 54 79 82 79 86 86 93 111 93 91 99 111 94 72 80 72 70 70 58 59 51 53 76 94 100 
151 151 152 152 153 154 154 154 154 155 154 154 154 155 156 157 157 155 157 155 158 159 155 157 157 157 157 157 157 158 158 159 159 158 158 159 159 159 159 159 158 161 159 161 160 158 160 161 160 160 161 160 163 163 163 162 161 162 160 161 162 162 159 158 174 199 216 218 215 212 213 213 211 210 211 209 208 211 211 208 211 210 211 210 210 210 209 211 208 213 129 51 76 60 42 57 57 54 68 64 50 52 53 64 64 65 65 72 71 81 69 64 91 105 83 65 66 69 61 54 56 59 64 60 62 61 55 58 
150 150 151 151 152 154 154 153 154 155 154 154 154 155 156 156 154 155 155 155 160 155 154 156 155 156 157 156 156 157 157 156 157 157 157 158 158 158 158 159 158 158 158 158 159 161 159 159 160 160 162 163 160 146 147 153 158 160 164 164 162 155 171 196 213 214 213 213 214 214 214 213 213 210 210 205 210 214 213 210 212 209 211 211 209 210 209 210 213 202 72 53 65 69 56 44 60 48 49 59 67 47 34 45 63 67 74 58 51 57 65 59 56 55 45 39 50 44 59 55 30 45 54 65 51 48 56 52 
150 149 150 151 152 152 151 152 153 153 153 153 153 153 153 153 153 154 154 155 153 155 155 155 155 155 155 156 156 156 156 157 157 157 157 157 157 157 157 158 160 161 159 160 153 112 155 159 160 157 129 107 90 66 73 77 88 110 142 143 162 192 211 214 209 209 211 213 214 214 212 212 211 208 211 215 213 191 156 196 212 210 211 212 209 208 210 208 214 176 30 56 68 63 55 35 44 54 56 56 54 31 29 41 46 49 66 69 63 62 69 54 44 41 42 50 49 54 39 38 52 48 43 50 42 42 44 50 
149 150 150 150 150 151 152 151 153 153 152 152 153 153 154 153 153 154 155 154 155 155 155 155 155 155 156 156 157 156 157 157 157 156 156 159 161 162 160 157 149 143 152 161 127 0 124 158 118 85 51 53 41 46 59 67 56 0 81 165 209 215 210 210 208 210 210 212 215 211 210 211 216 217 207 174 114 68 90 188 214 210 209 214 212 208 209 208 215 140 0 57 60 53 65 58 46 39 48 65 60 50 37 33 34 44 56 68 74 57 47 44 38 41 39 45 45 44 52 47 51 52 47 62 59 48 34 43 
148 149 151 149 151 150 151 152 153 151 151 153 152 152 153 153 153 153 153 154 156 154 156 155 155 155 156 156 155 156 157 158 156 155 159 154 138 117 102 93 73 61 77 93 83 47 81 110 47 57 64 65 63 57 57 7 72 151 203 217 211 208 209 210 210 208 209 210 212 213 218 213 192 152 80 1 57 111 118 177 215 209 209 209 212 208 208 210 206 84 5 38 42 44 51 65 58 29 13 35 47 40 41 33 34 35 42 51 52 59 39 28 27 22 26 35 39 47 49 44 51 46 46 46 47 54 49 56 
149 149 149 150 151 152 152 153 150 152 153 140 144 155 152 153 151 153 153 153 160 155 154 154 155 156 153 156 155 156 156 154 155 160 150 88 49 51 49 46 56 65 62 58 64 65 55 50 56 54 58 55 55 5 52 147 202 219 213 208 210 208 211 210 207 207 209 216 217 205 169 119 51 0 19 92 108 116 116 166 214 209 209 211 213 210 207 215 188 13 27 29 40 49 14 6 37 34 16 18 23 16 17 30 34 40 51 42 26 44 36 30 24 24 26 27 29 35 52 47 40 42 46 46 47 56 56 48 
150 148 152 152 150 149 154 160 150 153 150 148 148 152 152 154 154 153 152 152 153 153 153 153 154 153 154 153 155 156 156 160 158 136 74 49 59 52 57 56 54 52 58 61 56 61 47 29 40 47 53 5 33 134 197 219 213 208 211 211 209 209 207 208 211 214 209 187 145 76 1 27 44 61 100 111 108 122 118 153 211 209 209 210 214 209 208 215 151 1 43 32 41 46 18 36 44 30 28 45 43 39 34 29 30 43 46 56 52 42 32 36 43 43 31 22 31 37 37 43 42 40 35 47 53 56 55 49 
154 114 187 159 143 141 150 157 151 150 152 151 151 151 153 152 154 152 151 154 153 153 155 159 156 157 158 159 156 157 153 125 88 43 46 62 53 57 42 43 49 47 53 47 49 48 51 46 52 22 0 123 191 217 214 209 210 210 209 209 210 209 212 213 200 171 129 87 68 78 87 74 70 105 115 112 115 122 123 146 206 211 208 211 212 213 208 209 102 1 63 66 64 67 55 54 66 54 28 50 65 58 65 51 37 29 25 28 43 38 40 34 19 37 43 34 28 31 34 42 43 29 36 45 53 48 41 55 
138 127 188 154 146 149 149 156 149 150 150 149 151 153 148 153 148 155 152 153 157 153 132 114 106 106 119 132 127 106 82 21 44 55 40 57 47 52 46 34 44 40 41 47 56 48 40 2 0 114 185 217 216 210 209 211 211 209 207 211 217 212 184 139 76 6 0 63 72 86 101 89 111 110 115 117 119 126 127 135 201 209 207 208 211 210 212 194 22 21 33 52 68 66 65 52 42 44 51 28 52 64 51 46 43 21 20 19 25 42 37 32 21 11 25 31 28 31 33 39 40 25 31 43 31 42 50 49 
133 127 182 149 148 150 145 158 148 153 153 150 141 106 82 100 78 130 152 137 126 89 55 50 45 49 56 45 43 50 41 53 52 54 39 23 17 24 53 48 50 53 47 47 58 9 2 97 183 214 219 207 207 211 210 208 211 217 217 201 167 107 46 55 52 31 20 6 42 31 85 118 110 113 119 119 120 124 131 131 194 212 206 208 208 210 216 163 0 40 11 26 40 17 37 49 3 30 56 40 1 21 17 32 31 21 18 18 21 37 33 22 25 19 20 25 28 32 39 45 47 30 40 39 30 33 45 50 
142 146 176 151 151 148 149 161 147 133 100 94 73 46 59 59 65 72 107 64 94 43 53 56 59 66 62 43 45 48 59 33 27 54 53 32 22 35 39 41 39 53 62 29 0 83 173 219 222 213 210 211 211 210 213 215 210 185 140 73 4 14 49 67 83 67 46 37 37 62 114 116 111 117 117 121 123 125 129 129 187 213 208 209 209 208 215 121 1 31 25 31 41 36 33 43 21 24 44 65 27 12 16 10 12 19 13 14 20 20 22 22 33 29 29 41 39 24 43 46 43 33 35 40 37 34 39 48 
83 144 173 121 106 97 90 133 83 72 59 59 59 60 63 66 67 70 88 65 102 61 58 59 41 49 52 51 47 32 58 63 37 50 40 27 35 43 46 35 49 37 0 64 162 212 222 215 216 215 211 211 210 210 201 162 90 22 17 45 57 50 56 54 52 68 55 43 39 81 124 114 113 118 121 120 124 126 130 126 176 213 207 208 207 211 201 67 14 29 29 36 45 57 37 23 24 40 55 45 26 9 13 17 14 13 15 10 18 16 13 20 22 24 33 34 37 21 20 34 36 19 28 32 46 34 36 42 
42 61 74 38 59 68 85 117 44 65 65 60 51 38 49 56 54 65 95 68 108 47 63 67 58 47 49 51 51 33 34 54 40 20 26 38 32 29 54 41 0 31 147 206 223 215 211 217 217 217 213 213 214 140 0 74 1 33 37 18 33 50 50 78 74 89 106 65 0 111 122 115 117 122 122 121 127 127 130 127 168 212 206 209 205 214 179 0 46 36 28 24 43 44 31 7 6 46 40 0 16 18 12 14 11 18 21 10 21 24 19 18 17 13 19 21 21 28 31 30 20 10 26 32 42 33 32 36 
43 58 58 58 62 50 84 132 51 56 47 54 54 38 34 48 54 64 88 62 87 63 64 56 43 33 39 36 34 33 46 51 31 20 30 22 33 29 0 0 138 199 221 219 212 214 213 215 216 217 217 215 216 197 71 85 69 47 28 27 43 74 67 38 39 44 93 90 85 125 122 117 119 125 124 123 129 126 131 129 158 211 209 208 207 217 137 1 48 24 31 19 29 22 6 6 25 29 9 17 19 13 13 19 11 25 24 24 30 25 16 19 21 22 24 26 20 26 33 26 14 18 20 21 19 18 15 24 
44 62 64 52 47 43 84 118 30 55 35 69 63 35 44 44 48 59 80 58 98 47 71 49 42 31 28 27 7 30 40 40 50 36 29 31 0 0 124 195 219 218 213 213 214 212 213 215 214 218 214 215 212 220 203 106 22 68 52 35 37 59 68 36 25 2 40 39 109 130 121 120 123 130 124 129 128 128 130 132 149 210 208 208 212 209 91 26 46 24 10 39 14 14 17 39 32 8 11 25 18 19 29 22 33 33 22 26 23 14 5 0 0 0 10 7 21 30 15 20 14 23 22 12 23 25 7 23 
51 60 71 73 58 34 85 136 40 49 31 60 71 46 48 44 35 57 89 55 90 18 76 56 30 35 21 12 12 21 4 2 40 45 0 1 109 190 220 219 215 213 214 215 216 214 213 212 216 215 216 217 215 212 219 203 71 0 39 20 30 49 43 41 39 64 20 61 129 126 125 123 127 131 128 131 130 129 134 135 140 204 213 209 216 188 1 52 49 34 29 31 76 42 42 42 8 21 13 25 28 37 36 23 53 32 14 43 33 35 44 58 64 74 49 56 2 12 14 20 12 19 29 19 21 34 29 21 
49 56 63 67 67 53 82 140 44 49 40 76 65 27 45 58 41 62 93 51 84 0 80 56 20 26 17 28 5 30 49 52 27 0 96 178 219 220 215 213 214 215 213 214 214 215 216 216 215 216 216 216 217 215 213 218 199 68 0 34 14 41 46 39 20 83 45 107 134 128 127 125 128 130 128 132 130 131 135 137 134 196 214 210 218 153 0 61 42 32 33 2 107 85 48 6 13 19 12 17 11 5 19 8 60 48 7 48 53 92 87 71 91 96 44 59 64 24 8 49 24 17 31 33 28 10 49 59 
23 19 45 71 66 36 99 116 11 48 14 95 89 68 28 48 26 66 86 68 104 1 77 37 0 2 1 64 65 60 82 62 94 170 213 224 215 212 214 214 215 212 214 216 217 214 215 215 214 217 215 217 215 214 217 212 219 197 62 0 32 18 34 42 5 76 83 127 132 129 126 128 129 129 131 132 132 132 135 138 133 190 217 210 211 102 0 46 26 9 26 0 88 75 55 7 30 28 21 0 62 135 36 0 53 42 8 35 86 78 108 168 167 92 137 200 144 58 28 43 29 19 24 15 32 25 36 63 
6 8 51 78 47 2 96 127 0 87 79 95 96 96 51 48 0 94 87 105 117 0 56 71 73 61 46 59 66 0 140 182 206 221 215 214 216 214 213 214 212 213 213 214 216 215 214 215 214 213 214 216 214 213 212 214 212 218 196 50 1 31 6 32 1 78 123 132 131 130 129 128 129 130 132 134 132 135 135 140 134 179 216 215 195 28 23 19 16 28 23 14 104 79 67 19 32 34 34 0 91 126 79 0 1 15 26 15 94 170 154 189 145 104 155 161 102 73 54 54 46 42 51 57 67 71 72 78 
37 35 65 66 46 16 85 115 34 88 86 93 83 53 75 65 41 89 103 134 118 54 63 78 99 126 120 114 126 157 205 221 214 210 212 214 214 214 213 212 213 214 213 215 216 215 214 214 214 214 214 214 215 213 213 214 213 212 218 193 48 13 39 31 0 81 138 130 131 129 129 126 131 131 133 135 132 134 136 140 136 167 214 222 164 0 40 41 34 32 76 104 121 86 72 59 40 30 37 50 119 84 108 42 61 69 46 64 73 84 83 66 64 73 68 65 80 88 92 92 95 76 83 95 93 91 90 88 
127 126 123 128 129 130 130 132 128 128 126 126 99 84 92 101 102 109 109 96 99 94 78 101 62 45 79 146 201 216 214 209 210 212 212 211 213 214 212 213 212 213 213 213 215 215 213 214 214 215 213 214 215 214 212 214 211 214 211 219 194 53 53 77 28 98 133 133 134 133 132 131 132 133 135 134 131 135 135 142 137 159 214 219 135 50 85 88 85 81 92 85 128 98 81 94 90 91 80 108 134 87 127 101 100 104 57 85 105 101 104 110 110 107 104 105 105 104 100 102 101 69 85 94 89 93 92 85 
114 114 113 121 120 130 136 139 140 134 136 143 138 127 129 142 143 132 141 132 139 137 137 142 128 150 196 214 215 209 208 210 211 212 208 210 212 213 212 212 212 212 213 213 214 214 212 215 214 214 213 213 215 214 213 213 213 212 214 211 220 193 88 76 88 126 137 134 137 134 133 135 135 135 136 134 135 135 136 141 140 147 213 209 105 92 99 94 95 98 98 92 113 90 90 100 100 102 93 128 137 79 122 111 97 99 54 91 98 93 94 97 92 87 88 83 88 100 94 94 89 65 76 106 89 97 102 93 
117 115 113 110 111 111 113 113 115 113 107 115 120 120 119 123 122 118 126 134 132 125 122 145 192 214 214 210 208 208 211 211 211 210 209 212 211 213 212 210 212 212 212 213 213 213 213 213 212 216 212 214 215 215 211 214 212 213 214 216 212 219 195 108 118 136 136 139 138 137 137 136 138 139 136 137 137 137 138 142 143 137 210 185 0 48 44 65 82 67 81 107 98 73 88 101 88 100 92 132 120 42 109 105 57 60 30 52 56 64 57 51 39 33 42 37 31 30 49 44 50 57 49 61 56 40 39 49 
100 104 105 104 103 103 100 104 106 106 106 105 108 108 109 109 107 110 111 103 95 133 187 211 215 209 207 207 211 209 208 209 211 213 210 208 209 213 212 211 211 211 211 212 212 214 214 213 215 212 212 213 214 215 215 212 214 212 215 214 217 215 221 193 133 138 137 141 139 137 139 139 142 141 141 137 138 137 140 143 143 133 205 161 74 100 96 99 100 94 93 98 95 93 89 88 88 87 88 102 95 92 102 102 90 90 92 89 87 89 94 93 89 91 91 91 91 92 95 96 88 87 90 88 87 87 86 89 
95 97 96 96 97 95 93 95 99 97 94 97 100 101 92 89 101 92 84 118 176 208 212 208 207 209 206 206 208 208 209 208 210 211 210 210 209 214 212 211 213 213 211 213 214 213 214 216 215 214 212 216 213 215 213 212 214 217 216 216 218 218 217 225 202 142 134 137 140 140 142 141 141 141 139 141 138 137 136 137 141 134 187 134 94 105 102 101 102 100 106 101 102 105 106 108 107 105 106 100 104 110 108 105 107 109 106 106 105 106 116 120 115 108 107 105 108 111 109 105 103 100 98 98 99 96 97 97 
92 93 95 91 88 93 91 89 94 89 90 88 92 89 87 87 79 108 167 206 216 208 208 209 210 212 212 211 214 210 214 213 213 213 214 215 216 217 215 212 214 213 212 213 214 212 211 213 213 212 212 212 211 212 213 214 209 210 208 210 210 210 207 207 210 182 143 149 146 148 146 147 149 152 151 151 149 147 148 146 150 152 155 125 126 121 116 114 111 111 112 110 107 112 113 116 115 111 110 111 105 106 107 110 107 106 105 104 102 106 101 100 102 101 103 104 103 103 101 100 101 102 100 96 97 98 96 91 
81 81 82 84 84 83 82 83 84 83 81 81 80 90 86 77 133 180 200 192 192 195 199 196 195 191 188 190 188 188 185 183 179 182 179 175 178 179 179 178 176 177 178 175 174 173 169 167 166 166 159 159 161 160 148 145 153 157 156 144 146 142 149 147 163 146 131 154 145 135 144 137 139 141 136 122 108 113 112 113 127 154 140 126 121 120 132 136 132 127 134 121 104 107 106 106 107 105 104 101 101 101 99 97 99 98 98 98 96 97 100 100 101 102 100 99 99 97 101 101 98 98 100 100 97 101 99 97 
78 76 79 80 85 87 86 87 86 86 87 89 89 94 99 96 144 117 128 133 110 113 127 120 129 127 127 131 129 132 127 124 120 125 124 121 124 126 126 124 125 124 130 130 128 129 130 131 130 125 123 125 130 131 121 110 124 129 128 120 121 116 119 118 121 113 108 107 103 105 106 102 104 105 102 105 104 101 100 98 97 103 104 97 94 95 99 98 97 97 98 98 97 100 97 96 97 99 98 99 99 96 95 96 97 95 94 95 92 91 94 91 90 93 92 90 89 91 89 89 92 91 90 91 91 93 96 96 
48 47 49 52 58 61 65 73 75 79 86 90 93 91 92 91 86 92 95 96 93 90 91 90 92 91 90 86 88 88 93 88 91 91 92 94 94 96 95 90 93 96 93 90 94 91 93 94 95 97 99 94 95 96 95 100 98 98 95 99 97 97 96 94 93 93 92 91 91 86 84 85 85 89 91 93 92 90 94 104 106 101 96 96 97 96 97 96 100 99 96 98 99 94 94 92 91 92 94 95 95 95 96 95 92 93 95 92 92 92 92 88 88 88 86 88 84 81 84 83 83 85 84 82 81 81 82 82 
44 42 39 38 38 36 41 17 27 30 36 44 49 66 68 75 81 81 85 84 86 86 89 90 90 90 91 91 92 89 88 90 88 90 86 81 82 80 83 86 85 90 94 91 90 86 88 90 89 90 89 88 88 88 90 90 93 94 97 104 107 110 114 109 107 100 95 87 87 87 88 84 84 86 84 81 80 83 85 88 91 92 91 92 86 85 83 85 86 88 88 91 91 89 94 94 91 91 92 91 89 88 88 87 86 90 90 91 90 94 92 94 92 92 91 91 86 85 86 86 84 84 80 81 79 79 78 79 
83 76 72 76 75 81 108 61 58 48 42 40 25 32 29 31 42 50 53 68 66 71 70 76 79 81 81 81 87 86 89 88 90 87 91 89 88 90 85 86 88 81 84 85 84 87 88 87 87 84 83 84 84 83 86 83 87 90 85 92 92 93 96 91 94 90 89 84 79 85 90 86 86 88 88 86 88 88 82 85 83 84 92 87 87 92 94 90 83 82 82 85 87 90 89 87 92 94 96 95 93 90 90 93 92 92 92 90 90 87 91 95 92 92 93 89 87 88 86 85 84 84 84 81 79 78 80 80 
59 57 62 66 69 73 67 73 71 73 68 77 72 72 66 64 55 48 48 35 38 30 37 36 46 53 57 57 68 69 71 80 83 88 87 86 88 89 88 87 89 91 87 86 84 83 81 80 79 78 81 81 82 84 79 82 81 80 81 81 84 87 83 85 82 86 86 84 83 85 86 87 89 87 87 87 85 83 83 84 84 85 88 91 92 94 93 94 81 79 79 82 83 85 83 85 86 83 84 87 86 86 85 83 87 85 85 85 88 84 84 80 80 82 82 84 83 83 84 84 84 83 81 86 84 83 77 75 
61 65 62 67 71 64 65 70 67 69 78 75 76 76 82 83 80 82 81 85 85 70 63 60 52 33 30 17 20 30 18 36 45 54 54 63 68 76 75 80 82 82 83 87 89 89 91 91 89 87 88 86 86 85 81 80 79 83 81 81 82 82 81 83 86 86 85 82 84 83 82 81 83 85 82 80 84 84 85 84 85 83 79 80 81 79 78 76 76 75 74 75 80 78 79 81 80 79 79 79 78 79 80 79 80 83 81 85 82 84 84 83 81 80 79 78 76 77 79 80 78 79 78 77 79 78 77 79 
66 69 71 71 74 74 73 76 75 70 72 73 75 83 78 79 79 78 74 79 81 86 83 80 84 78 80 76 68 62 50 41 38 42 22 2 9 17 30 41 47 57 74 73 77 77 78 85 86 86 88 90 89 89 90 89 90 87 89 87 84 75 79 82 81 80 84 82 78 78 80 80 82 82 82 82 83 84 87 87 86 93 88 86 85 89 87 83 80 78 75 75 78 77 78 79 78 78 78 77 79 78 77 77 79 79 78 79 80 80 83 84 84 84 83 83 82 83 83 80 81 82 80 80 77 77 76 80 
56 57 64 70 72 74 75 75 77 77 78 76 78 81 84 78 80 81 84 78 76 77 68 63 63 73 77 75 80 78 78 83 80 77 71 67 59 55 39 36 27 15 32 35 38 39 51 62 61 66 73 79 83 85 84 82 83 80 85 92 88 91 94 95 94 93 99 102 88 83 82 85 83 85 84 80 83 84 85 84 81 81 84 83 85 87 88 86 86 82 81 83 80 79 79 80 79 77 78 78 77 76 75 74 76 76 75 75 77 78 77 76 76 81 78 80 79 76 79 79 81 83 84 83 81 80 78 77 
