P2
16 16
255
0 0 0 0 0 185 184 195 206 212 207 208 0 0 0 0 
0 0 0 187 183 188 206 214 219 222 215 207 205 0 0 0 
0 0 186 185 186 212 218 211 210 210 211 216 223 239 0 0 
0 182 198 210 224 228 221 224 236 235 235 205 180 200 120 0 
191 202 139 82 77 67 79 77 101 136 104 43 16 45 28 0 
187 205 134 0 11 31 8 47 10 0 6 56 31 52 23 128 
188 183 224 71 13 59 50 63 37 130 56 34 52 29 14 216 
187 186 212 114 3 18 12 3 10 234 116 3 10 6 92 225 
187 187 191 199 117 78 75 85 150 230 207 153 144 168 221 215 
187 186 182 210 232 221 240 240 227 204 215 238 227 229 211 206 
188 187 184 203 213 222 151 173 240 227 240 131 132 230 208 209 
187 187 183 200 214 227 156 49 117 155 119 106 206 214 209 207 
0 186 184 192 214 206 232 189 103 104 123 215 223 206 209 207 
0 0 188 183 201 216 206 220 233 228 231 212 206 207 213 0 
0 0 0 185 184 201 213 214 209 209 209 209 209 207 0 0 
0 0 0 0 0 183 189 199 209 209 208 208 0 0 0 0 
